<svg width="24" height="24" viewBox="0 0 24 24" fill="none" xmlns="http://www.w3.org/2000/svg">
<path d="M24 12C24 18.6274 18.6274 24 12 24C5.37258 24 4.69686e-07 18.6274 1.04907e-06 12C1.62846e-06 5.37258 5.37259 -1.62846e-06 12 -1.04907e-06C18.6274 -4.69686e-07 24 5.37258 24 12Z" fill="#E8EBED"/>
<path d="M12 23.5C5.64873 23.5 0.5 18.3513 0.500001 12C0.500002 5.64872 5.64873 0.499998 12 0.499999C18.3513 0.5 23.5 5.64873 23.5 12C23.5 18.3513 18.3513 23.5 12 23.5Z" stroke="#E8EBED"/>
<path d="M13.002 8L13.002 10.998L16 10.998L16 13.002L13.002 13.002L13.002 16L10.998 16L10.998 13.002L8 13.002L8 10.998L10.998 10.998L10.998 8L13.002 8Z" fill="#454C53"/>
</svg>
