<svg width="32" height="32" viewBox="0 0 32 32" fill="none" xmlns="http://www.w3.org/2000/svg">
<path d="M25.2223 21.5536H23.8223C23.1323 21.5536 22.5723 20.9936 22.5723 20.3036V19.1436C22.5723 18.4536 23.1323 17.8936 23.8223 17.8936H25.2223C25.9123 17.8936 26.4723 18.4536 26.4723 19.1436V20.3036C26.4723 20.9836 25.9023 21.5536 25.2223 21.5536Z" fill="#F2BBA7"/>
<path d="M8.10312 21.5536H6.70312C6.01313 21.5536 5.45312 20.9936 5.45312 20.3036V19.1436C5.45312 18.4536 6.01313 17.8936 6.70312 17.8936H8.10312C8.79312 17.8936 9.35313 18.4536 9.35313 19.1436V20.3036C9.35313 20.9836 8.79312 21.5536 8.10312 21.5536Z" fill="#F2BBA7"/>
<path d="M17.7332 28.6335H14.2032C10.8132 28.6335 8.0332 25.8535 8.0332 22.4635V14.0235C8.0332 11.0435 10.4732 8.60352 13.4532 8.60352H18.4732C21.4532 8.60352 23.8932 11.0435 23.8932 14.0235V22.4635C23.9032 25.8535 21.1232 28.6335 17.7332 28.6335Z" fill="#FFD2C2"/>
<path d="M15.9045 24.7936C15.2045 24.7936 14.4445 24.6036 13.7045 24.0836C13.4845 23.9236 13.4245 23.6136 13.5845 23.3836C13.7445 23.1636 14.0545 23.1036 14.2845 23.2636C15.9345 24.4336 17.5745 23.3136 17.6445 23.2636C17.8745 23.1036 18.1845 23.1536 18.3445 23.3836C18.5045 23.6036 18.4545 23.9236 18.2245 24.0836C17.7745 24.4136 16.9045 24.7936 15.9045 24.7936Z" fill="#917368"/>
<path d="M12.8041 21.0637C13.2956 21.0637 13.6941 20.6652 13.6941 20.1737C13.6941 19.6822 13.2956 19.2837 12.8041 19.2837C12.3125 19.2837 11.9141 19.6822 11.9141 20.1737C11.9141 20.6652 12.3125 21.0637 12.8041 21.0637Z" fill="#312926"/>
<path d="M19.1341 21.0637C19.6257 21.0637 20.0241 20.6652 20.0241 20.1737C20.0241 19.6822 19.6257 19.2837 19.1341 19.2837C18.6426 19.2837 18.2441 19.6822 18.2441 20.1737C18.2441 20.6652 18.6426 21.0637 19.1341 21.0637Z" fill="#312926"/>
<path d="M15.9648 22.1837C15.6848 22.1837 15.4648 21.9637 15.4648 21.6837V21.0337C15.4648 20.7537 15.6848 20.5337 15.9648 20.5337C16.2448 20.5337 16.4648 20.7537 16.4648 21.0337V21.6837C16.4648 21.9637 16.2348 22.1837 15.9648 22.1837Z" fill="#917368"/>
<path d="M20.4323 23.7737C21.0453 23.7737 21.5423 23.2767 21.5423 22.6637C21.5423 22.0507 21.0453 21.5537 20.4323 21.5537C19.8192 21.5537 19.3223 22.0507 19.3223 22.6637C19.3223 23.2767 19.8192 23.7737 20.4323 23.7737Z" fill="#FF8597"/>
<path d="M11.694 23.7737C12.307 23.7737 12.804 23.2767 12.804 22.6637C12.804 22.0507 12.307 21.5537 11.694 21.5537C11.0809 21.5537 10.584 22.0507 10.584 22.6637C10.584 23.2767 11.0809 23.7737 11.694 23.7737Z" fill="#FF8597"/>
<path d="M26.4414 9.67438C24.9114 5.10438 20.0314 3.93438 15.9714 4.00438C15.9614 4.00438 15.9614 4.00438 15.9514 4.00438C15.9414 4.00438 15.9414 4.00438 15.9314 4.00438C11.8614 3.93438 6.98141 5.10438 5.45141 9.67438C3.92141 14.2544 6.77141 17.8844 6.77141 17.8844H8.04141H9.24279L11.0614 16.3344L15.9514 16.2944L20.8414 16.3344H23.8614V17.8844H25.1314C25.1214 17.8844 27.9714 14.2544 26.4414 9.67438Z" fill="#444236"/>
<path d="M17.1322 13.1836C17.1322 13.1836 15.8522 17.8836 11.8722 17.8836H8.49219C8.49219 17.8836 11.8722 15.1136 11.8722 13.1836" fill="#444236"/>
<path d="M23.9017 13.1836C23.9017 13.1836 22.6217 17.8836 18.6417 17.8836H15.2617C15.2617 17.8836 18.6417 15.1136 18.6417 13.1836" fill="#444236"/>
<path d="M18.3711 18.2039H14.9911C14.7811 18.2039 14.5911 18.0739 14.5211 17.8739C14.4511 17.6739 14.5111 17.4539 14.6711 17.3139C15.5611 16.5839 17.8711 14.3839 17.8711 13.0039C17.8711 12.7239 18.0911 12.5039 18.3711 12.5039C18.6511 12.5039 18.8711 12.7239 18.8711 13.0039C18.8711 14.4539 17.3611 16.1739 16.2911 17.2039H18.3711C21.9211 17.2039 23.1011 13.0439 23.1511 12.8739C23.2211 12.6139 23.5011 12.4539 23.7611 12.5239C24.0311 12.5939 24.1811 12.8739 24.1111 13.1339C24.1011 13.1839 22.6811 18.2039 18.3711 18.2039Z" fill="#2F2D21"/>
<path d="M11.3711 18.2039H7.99107C7.78107 18.2039 7.59107 18.0739 7.52107 17.8739C7.45107 17.6739 7.51107 17.4539 7.67107 17.3139C8.56107 16.5839 10.8711 14.3839 10.8711 13.0039C10.8711 12.7239 11.0911 12.5039 11.3711 12.5039C11.6511 12.5039 11.8711 12.7239 11.8711 13.0039C11.8711 14.4539 10.3611 16.1739 9.29107 17.2039H11.3711C14.9211 17.2039 16.1011 13.0439 16.1511 12.8739C16.2211 12.6139 16.5011 12.4539 16.7611 12.5239C17.0311 12.5939 17.1811 12.8739 17.1111 13.1339C17.1011 13.1839 15.6811 18.2039 11.3711 18.2039Z" fill="#2F2D21"/>
</svg>
