<svg width="36" height="36" viewBox="0 0 36 36" fill="none" xmlns="http://www.w3.org/2000/svg">
<path fill-rule="evenodd" clip-rule="evenodd" d="M11.9999 12C15.3136 8.68628 20.6862 8.68628 23.9999 12C27.3136 15.3137 27.3136 20.6863 23.9999 24C20.6862 27.3137 15.3136 27.3136 11.9999 24C8.68622 20.6863 8.68622 15.3137 11.9999 12ZM22.5859 13.4141C20.0532 10.8814 15.9467 10.8814 13.414 13.4141C10.8813 15.9467 10.8813 20.0533 13.414 22.5859C15.9467 25.1185 20.0532 25.1186 22.5859 22.5859C25.1185 20.0533 25.1185 15.9467 22.5859 13.4141ZM18.9638 17.0068H21.9638V19.0068H18.9638V22.0068H16.9638V19.0068H13.9638V17.0068H16.9638V14.0068H18.9638V17.0068Z" fill="#9EA4AA"/>
</svg>
