<svg width="36" height="36" viewBox="0 0 36 36" fill="none" xmlns="http://www.w3.org/2000/svg">
<path fill-rule="evenodd" clip-rule="evenodd" d="M22.5857 13.4142C25.1184 15.9469 25.1184 20.0531 22.5857 22.5858C20.0531 25.1184 15.9468 25.1184 13.4141 22.5858C10.8815 20.0531 10.8815 15.9469 13.4141 13.4142C15.9468 10.8815 20.0531 10.8815 22.5857 13.4142ZM23.9999 12C27.3136 15.3137 27.3136 20.6863 23.9999 24C20.6862 27.3137 15.3136 27.3137 11.9999 24C8.68622 20.6863 8.68622 15.3137 11.9999 12C15.3136 8.68628 20.6862 8.68628 23.9999 12ZM13.9639 19.0069H21.9639V17.0069H13.9639V19.0069Z" fill="#9EA4AA"/>
</svg>
