<svg width="157" height="182" viewBox="0 0 157 182" fill="none" xmlns="http://www.w3.org/2000/svg">
<rect y="99" width="157" height="83" rx="20" fill="#B9C6D4"/>
<rect x="75" y="99" width="7" height="83" rx="3.5" fill="#9DB0C5"/>
<path d="M15.625 19.5C15.625 8.73045 24.3554 0 35.125 0H122.875C133.645 0 142.375 8.73045 142.375 19.5V131.625C142.375 137.01 138.01 141.375 132.625 141.375H25.375C19.9902 141.375 15.625 137.01 15.625 131.625V19.5Z" fill="#69C374"/>
<path d="M15.625 112.125H142.375V131.625C142.375 137.01 138.01 141.375 132.625 141.375H25.375C19.9902 141.375 15.625 137.01 15.625 131.625V112.125Z" fill="#232730"/>
<path d="M140.625 55H150.375C153.067 55 155.25 57.1826 155.25 59.875V69.625C155.25 72.3174 153.067 74.5 150.375 74.5H140.625V55Z" fill="#232730"/>
<path d="M4 59.875C4 57.1826 6.18261 55 8.875 55H18.625V74.5H8.875C6.18261 74.5 4 72.3174 4 69.625V59.875Z" fill="#232730"/>
<path d="M64.375 133.625C64.375 132.52 65.2704 131.625 66.375 131.625H91.625C92.7296 131.625 93.625 132.52 93.625 133.625V141.375H64.375V133.625Z" fill="#F6C500"/>
<rect x="74" y="118" width="10" height="5" fill="#6C7589"/>
<path d="M25 43.75C25 38.3652 29.3652 34 34.75 34H123.25C128.635 34 133 38.3652 133 43.75V54H25V43.75Z" fill="#232730"/>
<rect x="54.625" y="9.75" width="48.75" height="4.875" rx="2.4375" fill="#32873C"/>
<rect x="54.625" y="19.5" width="48.75" height="4.875" rx="2.4375" fill="#32873C"/>
<path d="M25 54H133V82.5C133 93.2696 124.27 102 113.5 102H44.5C33.7305 102 25 93.2696 25 82.5V54Z" fill="#4A5C69"/>
<path d="M25.375 141.375H44.875V151.125C44.875 153.817 42.6924 156 40 156H30.25C27.5576 156 25.375 153.817 25.375 151.125V141.375Z" fill="#5E636E"/>
<path d="M113.125 141.375H132.625V151.125C132.625 153.817 130.442 156 127.75 156H118C115.308 156 113.125 153.817 113.125 151.125V141.375Z" fill="#5E636E"/>
<rect x="64.375" y="39.75" width="4.875" height="8.25" fill="#49ED6C"/>
<rect x="74.125" y="39.75" width="4.875" height="8.25" fill="#49ED6C"/>
<rect x="83.875" y="39.75" width="4.875" height="8.25" fill="#49ED6C"/>
<rect x="93.625" y="39.75" width="4.875" height="8.25" fill="#49ED6C"/>
<circle cx="30.25" cy="131.625" r="4.875" fill="#FFFEFF"/>
<circle cx="132.625" cy="131.625" r="4.875" fill="#FFFEFF"/>
<path d="M113.523 99.6404H115.881C116.819 99.6404 117.579 98.8807 117.579 97.9423V94.8125H113.523V99.6404Z" fill="#FFD2C2"/>
<path d="M113.522 95.1626L118.46 95.1403C118.46 88.9959 113.433 83.9688 107.289 83.9688C101.144 83.9688 96.1172 88.9959 96.1172 95.1403L101.267 95.1626V101.866H113.522V95.1626Z" fill="#BBEBC8"/>
<path d="M100.629 98.0961V92.428C100.629 92.0902 100.903 91.8164 101.241 91.8164C101.578 91.8164 101.852 92.0902 101.852 92.428L101.852 98.0961C101.852 98.0961 101.616 98.0961 101.279 98.0961C100.941 98.0961 100.629 98.0961 100.629 98.0961Z" fill="#85AC8F"/>
<path d="M112.758 98.0961V92.428C112.758 92.0902 113.032 91.8164 113.369 91.8164C113.707 91.8164 113.981 92.0902 113.981 92.428L113.981 98.0961C113.981 98.0961 113.745 98.0961 113.407 98.0961C113.07 98.0961 112.758 98.0961 112.758 98.0961Z" fill="#85AC8F"/>
<path d="M107.914 86.4222H106.663C105.467 86.4222 104.484 85.4391 104.484 84.2437V79.6745C104.484 78.4792 105.467 77.4961 106.663 77.4961H107.914C109.109 77.4961 110.092 78.4792 110.092 79.6745V84.2437C110.092 85.4391 109.109 86.4222 107.914 86.4222Z" fill="#F1BBA7"/>
<path d="M101.266 99.6378H98.909C97.9706 99.6378 97.2109 98.8781 97.2109 97.9397L97.2338 95.1172H101.289L101.266 99.6378Z" fill="#FFD2C2"/>
<g clip-path="url(#clip0_40006056_304916)">
<path d="M109.853 94.266C109.853 92.7399 108.616 91.5027 107.09 91.5027C105.564 91.5027 104.327 92.7399 104.327 94.266C104.327 95.7921 105.564 97.0292 107.09 97.0292V98.4108C104.801 98.4108 102.945 96.5551 102.945 94.266C102.945 91.9768 104.801 90.1211 107.09 90.1211C109.379 90.1211 111.235 91.9768 111.235 94.266C111.235 96.5551 109.379 98.4108 107.09 98.4108V97.0292C108.616 97.0292 109.853 95.7921 109.853 94.266Z" fill="#4A5C69"/>
<path d="M109.222 91.2135L110.199 92.1905L105.018 97.3715L104.041 96.3945L109.222 91.2135Z" fill="#4A5C69"/>
<path d="M110.14 96.3958L109.163 97.3728L103.982 92.1918L104.959 91.2148L110.14 96.3958Z" fill="#4A5C69"/>
</g>
<path d="M102.016 98.3988C103.379 98.3988 104.485 97.2934 104.485 95.9298C104.485 94.5663 103.379 93.4609 102.016 93.4609C100.652 93.4609 99.5469 94.5663 99.5469 95.9298C99.5469 97.2934 100.652 98.3988 102.016 98.3988Z" fill="#FFD2C2"/>
<path d="M112.629 98.3988C113.993 98.3988 115.098 97.2934 115.098 95.9298C115.098 94.5663 113.993 93.4609 112.629 93.4609C111.266 93.4609 110.16 94.5663 110.16 95.9298C110.16 97.2934 111.266 98.3988 112.629 98.3988Z" fill="#FFD2C2"/>
<path d="M117.589 75.8778H116.025C115.255 75.8778 114.629 75.2522 114.629 74.4814V73.1855C114.629 72.4147 115.255 71.7891 116.025 71.7891H117.589C118.36 71.7891 118.986 72.4147 118.986 73.1855V74.4814C118.986 75.2411 118.349 75.8778 117.589 75.8778Z" fill="#F2BBA7"/>
<path d="M98.4644 75.8778H96.9003C96.1295 75.8778 95.5039 75.2522 95.5039 74.4814V73.1855C95.5039 72.4147 96.1295 71.7891 96.9003 71.7891H98.4644C99.2352 71.7891 99.8608 72.4147 99.8608 73.1855V74.4814C99.8608 75.2411 99.2352 75.8778 98.4644 75.8778Z" fill="#F2BBA7"/>
<path d="M109.223 83.7906H105.28C101.492 83.7906 98.3867 80.685 98.3867 76.8978V67.469C98.3867 64.1399 101.113 61.4141 104.442 61.4141H110.05C113.379 61.4141 116.105 64.1399 116.105 67.469V76.8978C116.116 80.685 113.01 83.7906 109.223 83.7906Z" fill="#FFD2C2"/>
<path d="M107.177 79.5047C106.395 79.5047 105.546 79.2925 104.719 78.7115C104.474 78.5328 104.407 78.1865 104.585 77.9295C104.764 77.6838 105.11 77.6167 105.367 77.7955C107.211 79.1025 109.043 77.8513 109.121 77.7955C109.378 77.6167 109.724 77.6726 109.903 77.9295C110.082 78.1753 110.026 78.5328 109.769 78.7115C109.266 79.0802 108.294 79.5047 107.177 79.5047Z" fill="#917368"/>
<path d="M103.715 75.3401C104.264 75.3401 104.709 74.8949 104.709 74.3458C104.709 73.7967 104.264 73.3516 103.715 73.3516C103.166 73.3516 102.721 73.7967 102.721 74.3458C102.721 74.8949 103.166 75.3401 103.715 75.3401Z" fill="#312926"/>
<path d="M110.787 75.3401C111.336 75.3401 111.782 74.8949 111.782 74.3458C111.782 73.7967 111.336 73.3516 110.787 73.3516C110.238 73.3516 109.793 73.7967 109.793 74.3458C109.793 74.8949 110.238 75.3401 110.787 75.3401Z" fill="#312926"/>
<path d="M107.246 76.5855C106.933 76.5855 106.688 76.3397 106.688 76.0269V75.3008C106.688 74.988 106.933 74.7422 107.246 74.7422C107.559 74.7422 107.805 74.988 107.805 75.3008V76.0269C107.805 76.3397 107.548 76.5855 107.246 76.5855Z" fill="#917368"/>
<path d="M112.24 78.3629C112.925 78.3629 113.48 77.8077 113.48 77.1229C113.48 76.438 112.925 75.8828 112.24 75.8828C111.555 75.8828 111 76.438 111 77.1229C111 77.8077 111.555 78.3629 112.24 78.3629Z" fill="#FF8597"/>
<path d="M102.476 78.3629C103.161 78.3629 103.716 77.8077 103.716 77.1229C103.716 76.438 103.161 75.8828 102.476 75.8828C101.792 75.8828 101.236 76.438 101.236 77.1229C101.236 77.8077 101.792 78.3629 102.476 78.3629Z" fill="#FF8597"/>
<path d="M118.953 62.611C117.244 57.5056 111.792 56.1985 107.257 56.2767C107.246 56.2767 107.246 56.2767 107.234 56.2767C107.223 56.2767 107.223 56.2767 107.212 56.2767C102.665 56.1985 97.2135 57.5056 95.5043 62.611C93.795 67.7275 96.9789 71.7828 96.9789 71.7828H98.3977H99.7398L101.772 70.0512L107.234 70.0065L112.697 70.0512H116.071V71.7828H117.49C117.479 71.7828 120.663 67.7275 118.953 62.611Z" fill="#444236"/>
<path d="M108.555 66.5273C108.555 66.5273 107.125 71.778 102.678 71.778H98.9023C98.9023 71.778 102.678 68.6835 102.678 66.5273" fill="#444236"/>
<path d="M116.117 66.5273C116.117 66.5273 114.687 71.778 110.241 71.778H106.465C106.465 71.778 110.241 68.6835 110.241 66.5273" fill="#444236"/>
<path d="M109.939 72.1373H106.163C105.928 72.1373 105.716 71.9921 105.638 71.7686C105.56 71.5452 105.627 71.2994 105.805 71.143C106.8 70.3275 109.38 67.8698 109.38 66.3281C109.38 66.0153 109.626 65.7695 109.939 65.7695C110.252 65.7695 110.497 66.0153 110.497 66.3281C110.497 67.948 108.81 69.8695 107.615 71.0202H109.939C113.905 71.0202 115.223 66.3728 115.279 66.1829C115.357 65.8924 115.67 65.7137 115.96 65.7919C116.262 65.8701 116.429 66.1829 116.351 66.4733C116.34 66.5292 114.754 72.1373 109.939 72.1373Z" fill="#3A382C"/>
<path d="M98 100C98 97.7909 99.7909 96 102 96H112C114.209 96 116 97.7909 116 100V102H98V100Z" fill="#212A32"/>
<g clip-path="url(#clip1_40006056_304916)">
<path d="M25 54H133V82.5C133 93.2696 124.27 102 113.5 102H44.5C33.7305 102 25 93.2696 25 82.5V54Z" fill="#62A4D3" fill-opacity="0.2"/>
<path d="M56 103.375L74 85.375" stroke="#1B1D1F" stroke-width="2" stroke-linecap="round"/>
<path d="M99.707 103.375L81.707 85.375" stroke="#1B1D1F" stroke-width="2" stroke-linecap="round"/>
<path d="M50 103.375L68 85.375" stroke="#1B1D1F" stroke-width="2" stroke-linecap="round"/>
<path d="M105.707 103.375L87.707 85.375" stroke="#1B1D1F" stroke-width="2" stroke-linecap="round"/>
</g>
<defs>
<clipPath id="clip0_40006056_304916">
<rect width="10.7135" height="8.792" fill="white" transform="translate(101.703 89.8711)"/>
</clipPath>
<clipPath id="clip1_40006056_304916">
<path d="M25 54H133V82.5C133 93.2696 124.27 102 113.5 102H44.5C33.7305 102 25 93.2696 25 82.5V54Z" fill="white"/>
</clipPath>
</defs>
</svg>
