<svg width="12" height="24" viewBox="0 0 12 24" fill="none" xmlns="http://www.w3.org/2000/svg">
<path d="M7.2151 9.91483L7.28525 10.1326C7.4536 10.6772 7.94464 11.0475 8.4988 11.0475H8.72327C9.95787 11.0475 10.4699 12.6811 9.47385 13.4362L9.29147 13.5741C8.84252 13.9081 8.66014 14.5035 8.82849 15.048L8.89864 15.2658C9.27744 16.4856 7.93762 17.4948 6.93451 16.7397L6.75213 16.6018C6.30318 16.2678 5.69991 16.2678 5.25097 16.6018L5.06859 16.7397C4.06548 17.4948 2.72566 16.4783 3.10446 15.2658L3.1746 15.048C3.34296 14.5035 3.16057 13.9081 2.71163 13.5741L2.52925 13.4362C1.52614 12.6811 2.04523 11.0475 3.27983 11.0475H3.5043C4.05846 11.0475 4.5495 10.6772 4.71785 10.1326L4.788 9.91483C5.16679 8.69506 6.82929 8.69506 7.2151 9.91483Z" fill="#BAE3BF"/>
</svg>
