<svg width="254" height="241" viewBox="0 0 254 241" fill="none" xmlns="http://www.w3.org/2000/svg">
<path d="M240.176 116.748C236.457 116.596 232.738 116.52 229.019 116.292C226.152 116.14 223.363 115.837 220.342 115.533C220.109 116.444 219.877 117.355 219.645 118.494C226.772 118.949 233.513 119.404 240.253 119.86C241.415 119.936 242.345 119.784 242.345 118.266C242.345 116.748 241.338 116.824 240.176 116.748Z" fill="#CCCCCC"/>
<path d="M197.875 60.957C193.226 66.7259 188.655 72.4188 184.007 78.1118C185.091 78.7949 185.789 79.2504 186.564 79.7058C191.212 74.0129 195.783 68.3958 200.432 62.7029C199.424 62.0956 198.65 61.4884 197.875 60.957Z" fill="#CCCCCC"/>
<path d="M212.13 132.299C219.413 133.741 226.618 135.183 233.823 136.626C234.055 135.563 234.288 134.652 234.52 133.665C227.935 132.375 221.427 131.312 215.074 129.718C212.052 129.035 212.44 130.553 212.13 132.299Z" fill="#CCCCCC"/>
<path d="M206.709 144.98C213.992 146.878 221.042 148.776 228.247 150.673C228.48 149.611 228.712 148.624 228.945 147.713C221.817 145.815 214.844 143.994 207.716 142.172C207.406 143.083 207.096 143.918 206.709 144.98Z" fill="#CCCCCC"/>
<path d="M213.292 72.0417C212.75 71.3586 212.13 70.7513 211.045 69.4609C205.932 75.078 201.128 80.3914 196.17 85.7807C196.247 85.8566 196.79 86.4639 198.184 87.8302C203.143 82.289 207.946 76.9756 212.672 71.5863C212.905 71.7381 213.137 71.8899 213.292 72.0417Z" fill="#CCCCCC"/>
<path d="M250.48 88.5838C245.367 90.4055 240.098 91.7718 234.83 93.3658C231.731 94.2767 231.809 94.3526 232.971 97.237C239.943 95.0358 246.839 92.9104 253.734 90.7091C253.579 88.2042 252.804 87.7488 250.48 88.5838Z" fill="#CCCCCC"/>
<path d="M226.85 77.6484C221.582 81.2919 216.314 85.0872 210.813 88.6548C208.798 89.9452 208.876 90.932 210.658 92.526C216.623 88.3512 222.667 84.1764 228.71 80.0015C227.935 79.0147 227.393 78.3316 226.85 77.6484Z" fill="#CCCCCC"/>
<path d="M41.5295 126.238C35.1765 126.238 28.8235 126.314 22.4705 126.238C20.3012 126.238 19.294 126.921 19.9138 129.426C26.4218 129.426 32.8523 129.426 39.2827 129.426C42.0719 129.426 42.2268 129.123 41.5295 126.238Z" fill="#CCCCCC"/>
<path d="M46.4086 90.1771C45.4789 89.418 44.8591 88.8867 44.1618 88.3553C39.8232 84.9396 35.4846 81.5238 31.1459 78.0321C28.8991 76.2104 28.7442 76.1345 27.1172 78.7153C32.7729 83.1937 38.4286 87.6722 44.0844 92.1506C44.9366 91.3916 45.5564 90.8602 46.4086 90.1771Z" fill="#CCCCCC"/>
<path d="M34.5534 112.121C27.0382 112.121 19.7555 112.121 12.5503 112.121C12.5503 113.032 12.5503 113.867 12.5503 115.006C19.833 115.006 27.0382 115.006 34.4759 115.006C34.4759 114.171 34.4759 113.411 34.5534 112.121Z" fill="#CCCCCC"/>
<path d="M67.095 75.8275C69.1094 77.9529 69.1094 78.0288 70.9688 75.6757C66.0103 70.4382 60.9744 65.2766 56.016 60.0391C53.5367 62.0885 53.5368 62.0885 55.861 64.3657C59.5799 68.0851 63.3762 71.9563 67.095 75.8275Z" fill="#CCCCCC"/>
<path d="M55.2416 84.0294C57.1785 86.0029 57.1785 86.0029 58.9604 83.8017C56.7911 81.4486 54.6218 79.0196 52.375 76.7424C49.9732 74.3134 47.4165 72.0362 45.0923 69.5313C44.24 68.6205 43.6977 68.0891 42.5356 69C41.296 70.0627 42.0707 70.7458 42.9229 71.5808C47.0292 75.6797 51.1354 79.8546 55.2416 84.0294Z" fill="#CCCCCC"/>
<path d="M20.2986 93.3688C13.9456 91.3194 7.51514 89.2699 1.08466 87.1445C0.697282 88.0554 0.387378 88.9663 0 89.9531C7.05028 92.2302 14.0231 94.5074 21.0734 96.7846C21.3058 95.4183 22.5454 94.052 20.2986 93.3688Z" fill="#CCCCCC"/>
<path d="M25.5701 144.443C32.8528 143.76 40.1355 143.077 47.4182 142.393C47.4182 140.875 47.8831 139.205 45.4813 139.433C39.6707 140.04 33.9375 140.723 28.1268 141.179C25.1827 141.331 25.1052 141.179 25.5701 144.443Z" fill="#CCCCCC"/>
<path d="M159.215 60.3524C159.68 59.821 160.3 59.2897 160.687 58.6824C164.019 54.2799 167.273 49.8774 170.604 45.5507C172.541 43.0458 172.619 43.1217 170.062 41.0723C165.646 46.917 161.307 52.7618 156.891 58.5306C157.898 59.2897 158.518 59.7451 159.215 60.3524Z" fill="#CCCCCC"/>
<path d="M100.023 58.4475C95.297 53.1341 90.4935 47.7448 85.69 42.3555C84.7603 43.1904 84.063 43.7218 83.3657 44.329C87.7818 49.2629 92.043 54.1209 96.3042 58.903C98.1636 60.8006 98.1636 60.8006 100.023 58.4475Z" fill="#CCCCCC"/>
<path d="M110.56 51.0138C106.532 44.7895 102.658 38.7929 98.6291 32.6445C97.6994 33.3277 96.9247 33.9349 96.1499 34.4663C100.179 40.6906 104.052 46.6112 108.004 52.6078C108.856 52.0765 109.708 51.621 110.56 51.0138Z" fill="#CCCCCC"/>
<path d="M159.138 34.0126C157.743 33.2535 156.736 31.8113 155.496 34.0885C152.397 39.9332 149.221 45.7021 145.967 51.6986C146.819 52.1541 147.594 52.5336 148.678 53.1409C152.165 46.6888 155.651 40.3886 159.138 34.0126Z" fill="#CCCCCC"/>
<path d="M143.951 20.0425C142.866 19.8148 142.169 19.5871 141.007 19.3594C139.302 26.3427 137.598 33.2502 135.894 40.3853C136.901 40.613 137.908 40.8408 138.915 41.0685C140.62 33.8574 142.324 26.95 143.951 20.0425Z" fill="#CCCCCC"/>
<path d="M119.779 38.9475C117.454 31.9641 115.208 25.2085 112.961 18.377C111.799 18.8324 111.024 19.136 110.094 19.4396C112.419 26.423 114.588 33.1786 116.835 40.0101C117.997 39.6306 118.926 39.2511 119.779 38.9475Z" fill="#CCCCCC"/>
<path d="M128.379 0C127.527 0 126.752 0 125.9 0C125.9 7.28697 125.9 14.3462 125.9 21.4814C126.83 21.4814 127.527 21.4814 128.379 21.4814C128.379 14.2703 128.379 7.13516 128.379 0Z" fill="#CCCCCC"/>
<path d="M206.164 175.119C202.367 174.208 198.571 173.298 194.62 172.387C194.387 173.525 194.155 174.36 193.922 175.347C200.973 177.017 208.023 178.763 215.073 180.433C216.545 178.156 216.468 177.852 213.989 177.169C211.432 176.486 208.798 175.802 206.164 175.119Z" fill="#CCCCCC"/>
<path d="M207.559 214.203C205.932 212.989 204.382 211.698 202.755 210.484C199.191 207.827 195.55 205.17 191.909 202.514C189.584 204.715 189.662 204.715 191.986 206.309C192.761 206.84 193.536 207.523 194.31 208.055C198.726 211.319 203.143 214.583 207.559 217.771C209.728 215.721 209.728 215.721 207.559 214.203Z" fill="#CCCCCC"/>
<path d="M187.956 221.869C192.14 227.638 196.323 233.407 200.585 239.328C201.514 238.721 202.289 238.265 203.219 237.734C199.268 232.269 195.316 227.031 191.597 221.642C190.125 219.365 189.273 220.275 187.956 221.869Z" fill="#CCCCCC"/>
<path d="M191.987 190.221C198.882 193.03 205.7 195.763 212.673 198.571C213.06 197.66 213.37 196.825 213.757 195.763C206.785 193.03 200.044 190.297 193.304 187.641C192.839 188.551 192.452 189.311 191.987 190.221Z" fill="#CCCCCC"/>
<path d="M168.82 220.05C170.757 227.033 172.771 233.94 174.708 241C175.715 240.62 176.645 240.316 177.652 239.937C175.638 232.878 173.701 226.046 171.686 219.139C170.602 219.442 169.904 219.67 168.82 220.05Z" fill="#CCCCCC"/>
<path d="M152.32 212.316C153.173 219.451 154.102 226.51 154.954 233.797C156.039 233.494 157.046 233.266 157.976 233.038C157.046 225.827 156.194 218.692 155.264 211.633C154.102 211.861 153.327 212.088 152.32 212.316Z" fill="#CCCCCC"/>
<path d="M137.756 212.228C138.686 218.832 139.615 225.36 140.622 231.963C141.785 231.887 142.637 231.812 143.644 231.736C142.714 224.828 141.785 218.224 140.777 211.469C139.693 211.696 138.763 211.924 137.756 212.228Z" fill="#CCCCCC"/>
<path d="M60.122 182.174C54.0789 184.831 48.2682 187.411 42.3801 189.916C39.6684 191.055 39.5909 190.979 41.063 193.712C47.7259 190.827 54.4663 187.943 61.2066 185.058C60.8193 183.92 60.5094 183.161 60.122 182.174Z" fill="#CCCCCC"/>
<path d="M60.6645 198.045C54.3889 201.916 48.1134 205.787 41.8379 209.659C42.4577 210.493 42.9226 211.253 43.5424 212.163C49.8954 208.216 56.0934 204.421 62.3689 200.55C61.6717 199.639 61.2068 198.88 60.6645 198.045Z" fill="#CCCCCC"/>
<path d="M94.4429 230.525C95.5275 230.904 96.3798 231.208 97.3869 231.511C100.176 224.756 102.888 218.076 105.909 210.789C104.437 211.093 102.655 210.941 102.423 211.472C99.6337 217.772 97.077 224.073 94.4429 230.525Z" fill="#CCCCCC"/>
<path d="M53.3843 239.024C55.2437 241.301 55.3212 241.453 57.1031 239.327C61.2093 234.317 65.1606 229.232 69.2668 224.07C68.4146 223.463 67.6398 222.931 66.7876 222.324C62.139 228.017 57.8004 233.558 53.3843 239.024Z" fill="#CCCCCC"/>
<path d="M55.9374 169.805C49.2745 172.537 42.6116 175.346 35.7163 178.154C36.1812 179.141 36.646 179.976 37.0334 180.811C43.3089 178.23 49.5844 175.801 55.7825 173.22C57.6419 172.385 57.6419 171.702 55.9374 169.805Z" fill="#CCCCCC"/>
<path d="M77.7095 235.235C78.7167 235.691 79.4914 236.07 80.4211 236.526C83.9075 230.226 87.3939 224.001 90.8803 217.701C89.9506 217.094 89.1759 216.563 88.3236 216.031C84.6823 222.559 81.2734 228.859 77.7095 235.235Z" fill="#CCCCCC"/>
<path d="M112.339 211.629C111.796 215.121 111.099 218.536 110.557 222.028C110.092 224.912 109.86 227.797 109.472 230.909C110.557 230.909 111.254 230.909 112.416 230.909C113.501 223.926 114.586 216.942 115.593 210.035C112.726 209.124 112.804 209.124 112.339 211.629Z" fill="#CCCCCC"/>
</svg>
