<svg width="24" height="28" viewBox="0 0 24 28" fill="none" xmlns="http://www.w3.org/2000/svg">
<g clip-path="url(#clip0_40006669_21910)">
<path d="M22.9776 2.5H6.6051C6.04008 2.5 5.58203 2.97188 5.58203 3.55398V8.25L15.0704 11.125L24.0006 8.25V3.55398C24.0006 2.97188 23.5426 2.5 22.9776 2.5Z" fill="#41A5EE"/>
<path d="M24.0006 8.25H5.58203V14L15.0704 15.725L24.0006 14V8.25Z" fill="#2B7CD3"/>
<path d="M5.58203 14V19.75L14.5123 20.9L24.0006 19.75V14H5.58203Z" fill="#185ABD"/>
<path d="M6.6051 25.5H22.9776C23.5426 25.5 24.0006 25.0281 24.0006 24.446V19.75H5.58203V24.446C5.58203 25.0281 6.04008 25.5 6.6051 25.5Z" fill="#103F91"/>
<path opacity="0.1" d="M12.3729 7.10059H5.58203V21.4756H12.3729C12.9372 21.4737 13.3941 21.0029 13.396 20.4216V8.15456C13.3941 7.57326 12.9372 7.10248 12.3729 7.10059Z" fill="black"/>
<path opacity="0.2" d="M11.8148 7.6748H5.58203V22.0498H11.8148C12.379 22.0479 12.836 21.5771 12.8378 20.9958V8.72878C12.836 8.14747 12.379 7.6767 11.8148 7.6748Z" fill="black"/>
<path opacity="0.2" d="M11.8148 7.6748H5.58203V20.8998H11.8148C12.379 20.8979 12.836 20.4271 12.8378 19.8458V8.72878C12.836 8.14747 12.379 7.6767 11.8148 7.6748Z" fill="black"/>
<path opacity="0.2" d="M11.2566 7.6748H5.58203V20.8998H11.2566C11.8209 20.8979 12.2779 20.4271 12.2797 19.8458V8.72878C12.2779 8.14747 11.8209 7.6767 11.2566 7.6748Z" fill="black"/>
<path d="M1.02307 7.6748H11.256C11.821 7.6748 12.2791 8.14669 12.2791 8.72878V19.2708C12.2791 19.8529 11.821 20.3248 11.256 20.3248H1.02307C0.458044 20.3248 0 19.8529 0 19.2708V8.72878C0 8.14669 0.458044 7.6748 1.02307 7.6748Z" fill="url(#paint0_linear_40006669_21910)"/>
<path d="M4.19827 15.7588C4.21836 15.9215 4.23175 16.0629 4.23789 16.1843H4.26133C4.27026 16.0693 4.28886 15.9307 4.31714 15.7685C4.34542 15.6064 4.37091 15.4693 4.39361 15.3574L5.4697 10.5746H6.86115L7.97742 15.2855C8.04228 15.5785 8.08871 15.8754 8.11641 16.1745H8.13483C8.15564 15.8847 8.19441 15.5966 8.25092 15.312L9.14115 10.5723H10.4076L8.84366 17.4263H7.36403L6.30357 12.8872C6.27287 12.7567 6.23771 12.5859 6.1992 12.376C6.16068 12.1662 6.13669 12.0126 6.1272 11.916H6.10877C6.0965 12.0276 6.07249 12.1932 6.03677 12.4128C6.00105 12.6325 5.9724 12.795 5.95081 12.9004L4.95397 17.4251H3.44922L1.87695 10.5746H3.16625L4.13574 15.3672C4.15752 15.4655 4.17817 15.5966 4.19827 15.7588Z" fill="white"/>
</g>
<defs>
<linearGradient id="paint0_linear_40006669_21910" x1="2.13312" y1="6.85125" x2="10.5089" y2="20.9324" gradientUnits="userSpaceOnUse">
<stop stop-color="#2368C4"/>
<stop offset="0.5" stop-color="#1A5DBE"/>
<stop offset="1" stop-color="#1146AC"/>
</linearGradient>
<clipPath id="clip0_40006669_21910">
<rect width="24" height="23" fill="white" transform="translate(0 2.5)"/>
</clipPath>
</defs>
</svg>
