<svg width="28" height="28" viewBox="0 0 28 28" fill="none" xmlns="http://www.w3.org/2000/svg">
<path d="M0 6.22222C0 2.78578 2.78578 0 6.22222 0H21.7778C25.2142 0 28 2.78578 28 6.22222V21.7778C28 25.2142 25.2142 28 21.7778 28H6.22222C2.78578 28 0 25.2142 0 21.7778V6.22222Z" fill="#454C53"/>
<path d="M18.2785 2.74609L19.8826 4.88464H16.6743L18.2785 2.74609Z" fill="#9EA4AA"/>
<path d="M9.72201 4.88867L8.11784 2.75013L11.3262 2.75013L9.72201 4.88867Z" fill="#9EA4AA"/>
<rect x="5.44434" y="6.49219" width="17.1111" height="17.1084" rx="3.11111" fill="#9EA4AA"/>
<line x1="14.2431" y1="6.49219" x2="14.2431" y2="23.6005" stroke="#454C53" stroke-width="1.55556"/>
<path d="M9.74182 12.3535C10.1803 12.3535 10.5339 11.9999 10.5339 11.5615C10.5339 11.1231 10.1803 10.7695 9.74182 10.7695C9.30333 10.7695 8.94971 11.1231 8.94971 11.5615C8.94971 11.9999 9.30333 12.3535 9.74182 12.3535Z" fill="#E8EBED"/>
<path d="M10.7239 19.3164V16.3437H10.9643C11.2133 16.3437 11.417 16.14 11.417 15.8911V13.8178C11.417 13.5689 11.2133 13.3652 10.9643 13.3652H8.52295C8.274 13.3652 8.07031 13.5689 8.07031 13.8178V15.8911C8.07031 16.14 8.274 16.3437 8.52295 16.3437H8.76341V19.3164" fill="#E8EBED"/>
<path d="M18.4673 12.3552C18.9063 12.3552 19.2603 12.0013 19.2603 11.5624C19.2603 11.1235 18.9063 10.7695 18.4673 10.7695C18.0283 10.7695 17.6743 11.1235 17.6743 11.5624C17.6743 12.0013 18.0283 12.3552 18.4673 12.3552Z" fill="#E8EBED"/>
<path d="M19.1936 19.323V17.6438H19.7997C20.0857 17.6438 20.3321 17.372 20.2415 17.0973C20.1254 16.7434 19.7346 15.9307 19.5108 15.4776C19.4089 15.2709 19.3749 15.0416 19.4089 14.8122C19.4627 14.4667 19.5363 13.9542 19.525 13.7249C19.5165 13.5125 19.2956 13.3652 19.0832 13.3652H17.8512C17.6388 13.3652 17.4179 13.5096 17.4094 13.7249C17.3981 13.9514 17.4717 14.4639 17.5255 14.8122C17.5624 15.0387 17.5255 15.2709 17.4236 15.4776C17.2027 15.9307 16.8118 16.7405 16.6929 17.0973C16.6023 17.3692 16.8487 17.6438 17.1347 17.6438H17.7408V19.323" fill="#E8EBED"/>
</svg>
