<svg width="16" height="16" viewBox="0 0 16 16" fill="none" xmlns="http://www.w3.org/2000/svg">
<g clip-path="url(#clip0_40006620_44265)">
<path d="M15.3 6.39996C15.175 6.27498 15.0055 6.20477 14.8287 6.20477C14.6519 6.20477 14.4824 6.27498 14.3573 6.39996L7.09602 13.6926C6.78649 14.0022 6.41902 14.2478 6.01459 14.4153C5.61016 14.5829 5.17668 14.6691 4.73892 14.6692C3.85481 14.6692 3.00689 14.3181 2.38168 13.693C1.75648 13.0678 1.40521 12.22 1.40515 11.3359C1.40508 10.4518 1.75623 9.60383 2.38135 8.97863L9.41402 1.91729C9.79008 1.54722 10.2971 1.34074 10.8247 1.34283C11.3523 1.34491 11.8578 1.5554 12.2309 1.92843C12.604 2.30147 12.8146 2.80683 12.8168 3.33443C12.819 3.86204 12.6127 4.36915 12.2427 4.74529L5.21002 11.8066C5.08318 11.9281 4.91432 11.996 4.73868 11.996C4.56304 11.996 4.39418 11.9281 4.26735 11.8066C4.14237 11.6816 4.07216 11.5121 4.07216 11.3353C4.07216 11.1585 4.14237 10.989 4.26735 10.864L10.5287 4.57396C10.6501 4.44823 10.7173 4.27982 10.7158 4.10503C10.7143 3.93023 10.6442 3.76302 10.5206 3.63942C10.397 3.51581 10.2297 3.4457 10.0549 3.44418C9.88015 3.44266 9.71175 3.50986 9.58602 3.63129L3.32468 9.92129C3.13893 10.107 2.99158 10.3275 2.89105 10.5702C2.79052 10.8129 2.73878 11.073 2.73878 11.3356C2.73878 11.5983 2.79052 11.8584 2.89105 12.1011C2.99158 12.3437 3.13893 12.5642 3.32468 12.75C3.70576 13.1136 4.21227 13.3165 4.73902 13.3165C5.26576 13.3165 5.77227 13.1136 6.15335 12.75L13.1853 5.68796C13.7973 5.06016 14.1374 4.21653 14.1317 3.33981C14.1261 2.46309 13.7753 1.62388 13.1553 1.00398C12.5353 0.384072 11.6961 0.0333909 10.8194 0.0278975C9.94265 0.0224042 9.09906 0.362542 8.47135 0.974627L1.43868 8.03596C0.563468 8.91117 0.0717773 10.0982 0.0717773 11.336C0.0717774 12.5737 0.563468 13.7607 1.43868 14.636C2.3139 15.5112 3.50094 16.0029 4.73868 16.0029C5.97642 16.0029 7.16347 15.5112 8.03868 14.636L15.3 7.34529C15.3623 7.28334 15.4117 7.20969 15.4455 7.12858C15.4792 7.04746 15.4965 6.96048 15.4965 6.87263C15.4965 6.78478 15.4792 6.6978 15.4455 6.61668C15.4117 6.53556 15.3623 6.46191 15.3 6.39996Z" fill="#454C53"/>
</g>
<defs>
<clipPath id="clip0_40006620_44265">
<rect width="16" height="16" fill="white"/>
</clipPath>
</defs>
</svg>
