<svg width="24" height="28" viewBox="0 0 24 28" fill="none" xmlns="http://www.w3.org/2000/svg">
<path d="M0 6C0 3.79086 1.79086 2 4 2H20C22.2091 2 24 3.79086 24 6V22C24 24.2091 22.2091 26 20 26H4C1.79086 26 0 24.2091 0 22V6Z" fill="#34AEE7"/>
<g clip-path="url(#clip0_40006669_21822)">
<path d="M11.8023 10.709C13.3749 10.7095 14.637 11.943 14.6334 13.4753C14.6293 14.993 13.3682 16.2175 11.8065 16.219C10.2391 16.221 8.96145 14.9753 8.97075 13.4536C8.97902 11.936 10.2452 10.709 11.8023 10.709ZM10.3961 13.4667C10.3961 14.2213 11.03 14.8464 11.7982 14.8504C12.5731 14.8544 13.2292 14.2107 13.2205 13.4557C13.2112 12.7041 12.569 12.0846 11.8003 12.0861C11.0305 12.0881 10.3956 12.7122 10.3961 13.4667Z" fill="#FCFDFE"/>
<path d="M11.9952 20.4945C10.5838 20.4945 9.17185 20.491 7.76045 20.4986C7.56362 20.4996 7.49749 20.4567 7.50007 20.2522C7.51195 19.2957 7.50885 18.3392 7.50214 17.3822C7.50111 17.2225 7.54089 17.161 7.7155 17.1676C8.05079 17.1802 8.38711 17.1802 8.72239 17.1676C8.89907 17.161 8.96107 17.2069 8.9559 17.3887C8.94299 17.8582 8.96365 18.3291 8.9466 18.7981C8.93834 19.0227 8.99671 19.0912 9.23901 19.0902C11.554 19.0806 13.8695 19.0882 16.1849 19.0786C16.4283 19.0776 16.5197 19.1265 16.4975 19.3773C16.4727 19.6604 16.4779 19.9485 16.4965 20.2326C16.5099 20.4386 16.4505 20.5011 16.2304 20.4996C14.9311 20.489 13.6313 20.4945 12.3315 20.4945C12.2189 20.4945 12.1068 20.4945 11.9952 20.4945Z" fill="#FEFEFE"/>
<path d="M11.9956 10.4243C10.6886 10.4243 9.38206 10.4188 8.07502 10.4299C7.8539 10.4319 7.79863 10.3669 7.80999 10.1624C7.82756 9.85313 7.82549 9.54185 7.81051 9.23257C7.80173 9.05175 7.8663 9.00994 8.04299 9.01145C9.01423 9.01951 9.98599 9.00893 10.9577 9.02001C11.1716 9.02253 11.2388 8.96914 11.2279 8.75759C11.2093 8.39794 11.2274 8.03679 11.2207 7.67664C11.2181 7.5482 11.2569 7.49934 11.3948 7.50186C11.7559 7.50992 12.117 7.51345 12.4781 7.50035C12.6507 7.4943 12.675 7.56684 12.6714 7.70787C12.6636 8.0514 12.6817 8.39593 12.6641 8.73844C12.6533 8.9505 12.7018 9.02404 12.941 9.02052C13.9381 9.00541 14.9357 9.02052 15.9328 9.00893C16.1436 9.00641 16.1937 9.07189 16.1849 9.2633C16.1704 9.57257 16.1704 9.88436 16.188 10.1931C16.1993 10.3871 16.1296 10.4289 15.9416 10.4279C14.6262 10.4208 13.3109 10.4243 11.9956 10.4243Z" fill="#FEFEFE"/>
<path d="M12.891 17.5336C12.8962 18.0847 12.4545 18.5274 11.8914 18.536C11.3117 18.5451 10.8504 18.1109 10.8457 17.5523C10.8411 16.9927 11.2983 16.5449 11.8723 16.5469C12.4359 16.5489 12.8859 16.9846 12.891 17.5336Z" fill="#FCFDFE"/>
</g>
<defs>
<clipPath id="clip0_40006669_21822">
<rect width="9" height="13" fill="white" transform="translate(7.5 7.5)"/>
</clipPath>
</defs>
</svg>
