<svg width="48" height="48" viewBox="0 0 48 48" fill="none" xmlns="http://www.w3.org/2000/svg">
<path d="M8.35083 27.6764C7.91566 25.7961 9.34355 24 11.2736 24H13.755C15.1513 24 16.3629 24.9633 16.6777 26.3236L20.1492 41.3236C20.5843 43.2039 19.1565 45 17.2264 45H14.745C13.3487 45 12.1371 44.0367 11.8223 42.6764L8.35083 27.6764Z" fill="#573E34"/>
<path d="M6 16.5C6 13.1863 8.68629 10.5 12 10.5H18V31.5H12C8.68629 31.5 6 28.8137 6 25.5V16.5Z" fill="#81442E"/>
<path d="M18 10.5L42 4.5V37.5L18 31.5V10.5Z" fill="#E86E42"/>
<rect x="37.5" y="3" width="6" height="36" rx="3" fill="#FFC2AC"/>
</svg>
