<svg width="32" height="32" viewBox="0 0 32 32" fill="none" xmlns="http://www.w3.org/2000/svg">
<path d="M10 27C10 26.4477 10.4477 26 11 26H21C21.5523 26 22 26.4477 22 27V28C22 28.5523 21.5523 29 21 29H11C10.4477 29 10 28.5523 10 28V27Z" fill="#404A56"/>
<path d="M14 6C14 4.89543 14.8954 4 16 4C17.1046 4 18 4.89543 18 6V24H14V6Z" fill="#404A56"/>
<path d="M3.7998 17L6.9998 11L10.1998 17" stroke="#404A56" stroke-width="2" stroke-linejoin="round"/>
<path d="M12 16.8333C12 19.1345 10.1345 21 7.83333 21L6.16667 21C3.86548 21 2 19.1345 2 16.8333C2 16.3731 2.3731 16 2.83333 16L11.1667 16C11.6269 16 12 16.3731 12 16.8333Z" fill="#EAB53F"/>
<path d="M21.7998 17L24.9998 11L28.1998 17" stroke="#404A56" stroke-width="2" stroke-linejoin="round"/>
<path d="M30 16.8333C30 19.1345 28.1345 21 25.8333 21L24.1667 21C21.8655 21 20 19.1345 20 16.8333C20 16.3731 20.3731 16 20.8333 16L29.1667 16C29.6269 16 30 16.3731 30 16.8333Z" fill="#EAB53F"/>
<path d="M26.2662 9.01753C25.9041 9.18169 24.8522 9.25945 21.2341 8.04264C17.6175 6.82438 16.5491 7.01015 16 7.01015C15.4494 7.01015 14.3825 6.82438 10.7644 8.04264C7.14481 9.26089 6.0944 9.18169 5.73229 9.01753C5.37019 8.85337 4.05193 8.44008 4.00106 9.7433C3.94869 11.0465 5.85798 10.9616 5.85798 10.9616C5.85798 10.9616 8.25508 11.1761 10.742 10.5915C13.2288 10.0083 16 10.0428 16 10.0428C16 10.0428 18.7712 10.0068 21.258 10.5915C23.7449 11.1747 26.142 10.9616 26.142 10.9616C26.142 10.9616 28.0513 11.0465 27.9989 9.7433C27.9466 8.44152 26.6298 8.85481 26.2662 9.01753Z" fill="#EAB53F"/>
<path d="M11 26C11 24.3431 12.3431 23 14 23H18C19.6569 23 21 24.3431 21 26H11Z" fill="#EAB53F"/>
</svg>
