<svg width="213" height="61" viewBox="0 0 213 61" fill="none" xmlns="http://www.w3.org/2000/svg">
<path d="M60.16 30.08C60.16 46.69 46.69 60.16 30.08 60.16C13.47 60.16 0 46.69 0 30.08C0 13.47 13.47 0 30.08 0C46.69 0 60.16 13.47 60.16 30.08Z" fill="white"/>
<path d="M44.19 27.9766C39.41 24.7266 33.29 26.0466 30.07 30.9366C27.39 35.0166 23.34 35.5266 21.78 35.5266C16.66 35.5266 13.17 31.9266 12.13 28.2066C12.12 28.1666 12.11 28.1366 12.1 28.0966C12.09 28.0566 12.08 28.0166 12.07 27.9766C11.66 26.4166 11.56 25.6866 11.56 24.0366C11.56 15.1466 20.69 5.23656 33.83 5.23656C47.29 5.23656 55 15.4866 56.99 21.1866C56.95 21.0766 56.92 20.9866 56.89 20.8866C53.06 9.73656 42.5 1.72656 30.05 1.72656C14.4 1.72656 1.70996 14.4166 1.70996 30.0766C1.70996 44.0766 11.8 56.0466 25.81 56.0466C36.97 56.0466 44.48 49.7866 47.92 41.1566C49.81 36.4366 48.47 30.8866 44.19 27.9766Z" fill="#003763"/>
<path d="M57.1596 21.7266C55.4996 16.1666 47.7396 5.22656 33.8296 5.22656C20.6896 5.22656 11.5596 15.1366 11.5596 24.0266C11.5596 25.6766 11.6596 26.4166 12.0696 27.9666C11.8996 27.2866 11.8096 26.6066 11.8096 25.9466C11.8096 16.6766 21.0796 10.2666 30.6196 10.2666C43.5296 10.2666 53.9996 20.7266 53.9996 33.6366C53.9996 43.7566 48.1796 52.5166 39.7196 56.7266V56.7366C50.6296 52.7866 58.4096 42.3366 58.4096 30.0766C58.3996 27.1666 58.0196 24.6066 57.1596 21.7266Z" fill="#E4022D"/>
<path d="M79.5603 18.0725V15.8125H83.1203V18.0725H88.0703V20.8525H74.0703V18.0725H79.5603ZM87.4703 27.1925C87.4703 27.9725 87.3003 28.7025 86.9803 29.3925C86.6503 30.0725 86.2103 30.6725 85.6503 31.1825C85.0903 31.7025 84.4503 32.1025 83.7203 32.4025C82.9903 32.7025 82.2003 32.8525 81.3603 32.8525C80.5103 32.8525 79.7303 32.7025 79.0003 32.4025C78.2703 32.1025 77.6203 31.6925 77.0703 31.1825C76.5103 30.6725 76.0703 30.0725 75.7403 29.3925C75.4103 28.7125 75.2503 27.9825 75.2503 27.1925C75.2503 26.4125 75.4103 25.6725 75.7403 24.9825C76.0703 24.2925 76.5103 23.6925 77.0703 23.1725C77.6303 22.6525 78.2703 22.2525 79.0003 21.9525C79.7303 21.6525 80.5203 21.5025 81.3603 21.5025C82.2003 21.5025 82.9903 21.6525 83.7203 21.9525C84.4503 22.2525 85.1003 22.6625 85.6503 23.1725C86.2103 23.6825 86.6503 24.2925 86.9803 24.9825C87.3103 25.6725 87.4703 26.4025 87.4703 27.1925ZM84.3503 27.1525C84.3503 26.3525 84.0603 25.6525 83.4703 25.0625C82.8803 24.4725 82.1803 24.1825 81.3503 24.1825C80.5203 24.1825 79.8203 24.4725 79.2503 25.0625C78.6703 25.6525 78.3803 26.3425 78.3803 27.1525C78.3803 27.9525 78.6703 28.6425 79.2503 29.2225C79.8303 29.8025 80.5303 30.0925 81.3503 30.0925C82.1703 30.0925 82.8803 29.8025 83.4703 29.2225C84.0603 28.6525 84.3503 27.9625 84.3503 27.1525ZM96.1603 38.0725C96.1603 38.8925 95.9803 39.6725 95.6303 40.4025C95.2803 41.1325 94.8103 41.7825 94.2403 42.3325C93.6403 42.8925 92.9503 43.3325 92.1703 43.6625C91.3903 43.9925 90.5503 44.1625 89.6703 44.1625C88.7803 44.1625 87.9403 43.9925 87.1503 43.6625C86.3603 43.3325 85.6603 42.8925 85.0603 42.3325C84.4803 41.7725 84.0203 41.1325 83.6703 40.4025C83.3203 39.6725 83.1403 38.8925 83.1403 38.0725C83.1403 37.2525 83.3103 36.4625 83.6703 35.7225C84.0203 34.9825 84.4803 34.3325 85.0603 33.7725C85.6603 33.2125 86.3503 32.7725 87.1503 32.4425C87.9403 32.1125 88.7803 31.9425 89.6703 31.9425C90.5603 31.9425 91.3903 32.1025 92.1703 32.4425C92.9503 32.7725 93.6403 33.2125 94.2403 33.7725C94.8203 34.3325 95.2803 34.9825 95.6303 35.7225C95.9803 36.4625 96.1603 37.2425 96.1603 38.0725ZM92.8803 38.0425C92.8803 37.1725 92.5603 36.4225 91.9203 35.7825C91.2803 35.1425 90.5203 34.8225 89.6303 34.8225C88.7403 34.8225 87.9903 35.1425 87.3603 35.7825C86.7303 36.4225 86.4203 37.1725 86.4203 38.0425C86.4203 38.9125 86.7303 39.6525 87.3603 40.2825C87.9903 40.9125 88.7503 41.2225 89.6303 41.2225C90.5203 41.2225 91.2803 40.9125 91.9203 40.2825C92.5603 39.6525 92.8803 38.9025 92.8803 38.0425ZM92.8203 31.1125H89.7303V16.4025H92.8203V22.2425H95.5703V16.3725H98.7803V31.4925H95.5703V25.2825H92.8203V31.1125Z" fill="#575756"/>
<path d="M102.68 20.0094V17.1294H118.14V20.0094H111.56L118.42 28.3894L116.07 30.3094L110.57 23.4494L105.1 30.7794L102.66 28.7994L109.49 20.0194H102.68V20.0094ZM124.07 37.5694C124.07 38.4794 123.88 39.3294 123.51 40.1194C123.14 40.9094 122.64 41.6094 122.03 42.2094C121.39 42.8094 120.64 43.2794 119.79 43.6294C118.94 43.9794 118.03 44.1594 117.09 44.1594C116.14 44.1594 115.24 43.9794 114.37 43.6294C113.5 43.2794 112.75 42.7994 112.11 42.2094C111.49 41.6094 111 40.9194 110.63 40.1194C110.26 39.3294 110.07 38.4794 110.07 37.5694C110.07 36.6594 110.26 35.8094 110.63 34.9994C111 34.1994 111.5 33.4994 112.11 32.8994C112.75 32.2994 113.5 31.8294 114.37 31.4794C115.24 31.1294 116.14 30.9494 117.09 30.9494C118.04 30.9494 118.94 31.1194 119.79 31.4794C120.65 31.8294 121.39 32.2994 122.03 32.8994C122.65 33.4994 123.14 34.1994 123.51 34.9994C123.89 35.8094 124.07 36.6694 124.07 37.5694ZM120.79 37.5394C120.79 36.5294 120.42 35.6594 119.68 34.9294C118.94 34.1994 118.06 33.8294 117.05 33.8294C116.04 33.8294 115.17 34.1994 114.44 34.9294C113.71 35.6594 113.34 36.5294 113.34 37.5394C113.34 38.5494 113.71 39.4194 114.44 40.1394C115.17 40.8594 116.04 41.2194 117.05 41.2194C118.06 41.2194 118.94 40.8594 119.68 40.1394C120.42 39.4194 120.79 38.5494 120.79 37.5394ZM123.02 30.6494V24.7994H118.01V21.9194H123.02V16.3594H126.36V30.6394H123.02V30.6494Z" fill="#575756"/>
<path d="M145.59 23.915C145.59 24.925 145.39 25.875 144.99 26.755C144.59 27.645 144.04 28.425 143.34 29.105C142.64 29.765 141.83 30.295 140.91 30.685C139.99 31.075 139.01 31.275 137.96 31.275C136.91 31.275 135.92 31.075 135.01 30.685C134.09 30.295 133.28 29.765 132.58 29.105C131.88 28.425 131.33 27.645 130.93 26.755C130.53 25.865 130.33 24.925 130.33 23.915C130.33 22.905 130.53 21.955 130.93 21.075C131.33 20.185 131.88 19.405 132.58 18.725C133.28 18.065 134.09 17.535 135.01 17.145C135.93 16.755 136.91 16.555 137.96 16.555C139.01 16.555 139.99 16.755 140.91 17.145C141.83 17.535 142.64 18.065 143.34 18.725C144.04 19.405 144.59 20.185 144.99 21.075C145.38 21.955 145.59 22.905 145.59 23.915ZM135.35 33.775V39.805H153.46V42.775H132.01V33.775H135.35ZM142.37 23.945C142.37 23.345 142.25 22.775 142.01 22.245C141.77 21.705 141.46 21.235 141.07 20.825C140.66 20.435 140.19 20.125 139.66 19.885C139.13 19.645 138.57 19.525 137.98 19.525C137.38 19.525 136.82 19.645 136.28 19.885C135.74 20.125 135.27 20.435 134.86 20.825C134.47 21.235 134.15 21.715 133.92 22.245C133.68 22.785 133.56 23.345 133.56 23.945C133.56 24.545 133.68 25.105 133.92 25.625C134.16 26.155 134.47 26.625 134.86 27.035C135.27 27.425 135.75 27.745 136.28 27.975C136.82 28.215 137.38 28.335 137.98 28.335C138.58 28.335 139.14 28.215 139.66 27.975C140.19 27.735 140.65 27.425 141.07 27.035C141.46 26.625 141.78 26.155 142.01 25.625C142.25 25.105 142.37 24.545 142.37 23.945ZM152.79 33.625H149.45V16.375H152.79V22.245H156.65V25.555H152.79V33.625Z" fill="#575756"/>
<path d="M159.061 20.0094V17.1294H174.521V20.0094H167.971L174.801 30.0894L172.26 31.7894L166.941 23.6894L161.62 32.0094L159.021 30.2794L165.821 20.0194H159.061V20.0094ZM160.921 42.7594V33.7594H164.26V39.7894H182.991V42.7594H160.921ZM179.4 33.6194V25.6694H174.391V22.6994H179.4V16.3594H182.741V33.6094H179.4V33.6194Z" fill="#575756"/>
<path d="M187.351 33.4059H212.081V36.3759H201.381V43.2959H198.011V36.3759H187.351V33.4059ZM192.631 20.2359H206.791V16.8359H210.101V29.7859H189.331V16.8359H192.641V20.2359H192.631ZM206.791 23.1459H192.631V26.8559H206.791V23.1459Z" fill="#575756"/>
</svg>
