<svg width="48" height="48" viewBox="0 0 48 48" fill="none" xmlns="http://www.w3.org/2000/svg">
<path d="M3 7.5C3 5.84315 4.34315 4.5 6 4.5H42C43.6569 4.5 45 5.84315 45 7.5V19.5H3V7.5Z" fill="#4DB268"/>
<path d="M3 19.5H45V43.5C45 45.1569 43.6569 46.5 42 46.5H6C4.34315 46.5 3 45.1569 3 43.5V19.5Z" fill="#EEEEF2"/>
<path d="M32.8711 29.1211L21.75 40.2422L13.6289 32.1211L17.8711 27.8789L21.75 31.7578L28.6289 24.8789L32.8711 29.1211Z" fill="#347C47"/>
<rect x="9" y="1.5" width="6" height="9" rx="1.5" fill="#1B1D1F"/>
<rect x="33" y="1.5" width="6" height="9" rx="1.5" fill="#1B1D1F"/>
</svg>
