<svg width="340" height="73" viewBox="0 0 340 73" fill="none" xmlns="http://www.w3.org/2000/svg">
<g clip-path="url(#clip0_40006128_75183)">
<path d="M41.9949 44.5133C41.9949 42.2905 41.9949 40.0686 41.9949 37.8458C41.9949 37.7562 41.9949 37.6657 41.9949 37.5762C41.9968 37.5724 41.9978 37.5676 41.9949 37.56C41.9949 37.0207 41.9949 36.4805 41.9949 35.9412C41.861 35.8297 41.7174 35.7268 41.5953 35.6049C41.0267 35.037 40.3644 34.6007 39.6454 34.2396C36.0825 32.4493 32.4316 31.0316 28.6939 29.6348C24.0388 27.896 27.5245 22.9245 28.9215 20.1586C29.4237 19.1649 30.3918 18.5055 30.638 17.3746C30.808 16.5905 30.9565 15.7444 30.9154 14.9393C30.8422 13.4959 30.0899 12.2316 30.2394 10.7643C30.4426 8.76729 30.8373 6.75695 29.8535 4.88666C28.9889 3.24409 27.4756 1.99501 25.8403 1.1137C22.2236 -0.834713 17.7766 -0.129664 14.7061 2.4733C13.2231 3.73 12.0899 5.39163 11.5613 7.24286C11.2907 8.18992 11.1823 9.17794 11.2438 10.1593C11.3093 11.1959 11.7743 12.183 11.6708 13.2129C11.5887 14.0237 11.2565 14.7878 11.3454 15.6158C11.4676 16.7477 11.5975 18.9124 12.6711 19.6012C13.0883 19.869 13.6618 19.9185 13.9675 20.3044C14.1307 20.5111 14.1844 20.7789 14.2255 21.0361C14.5517 23.0998 14.4384 25.2064 12.9164 26.8127C11.8847 27.9008 10.5268 28.6382 9.15613 29.2785C6.08854 30.7115 3.104 32.2692 0.00906304 33.6555C0.00906304 33.7822 0.00906304 33.9099 0.00906304 34.0366C0.00906304 34.9256 0.00906304 35.8145 0.00906304 36.7034C0.00906304 36.8302 0.00906304 36.9578 0.00906304 37.0845C0.00906304 37.3389 0.00906304 37.5924 0.00906304 37.8468C0.00906304 38.0688 0.00906304 38.2917 0.00906304 38.5137C0.00906304 38.6404 0.00906304 38.7681 0.00906304 38.8948C0.00906304 39.1806 0.00906304 39.4665 0.00906304 39.7523C0.00906304 39.8476 0.00906304 39.9429 0.00906304 40.0381C0.00906304 40.1648 0.00906304 40.2925 0.00906304 40.4192C0.00906304 40.5145 0.00906304 40.6098 0.00906304 40.7051C0.00906304 40.8642 0.00906304 41.0223 0.00906304 41.1814C0.00906304 41.3406 0.00906304 41.4987 0.00906304 41.6578C0.00906304 41.7846 0.00906304 41.9122 0.00906304 42.0389C0.00906304 42.2295 0.00906304 42.4201 0.00906304 42.6106C0.00906304 43.531 0.00906304 44.4523 0.00906304 45.3727C0.00906304 45.6271 0.00906304 45.8805 0.00906304 46.1349C0.00906304 46.3569 0.00906304 46.5798 0.00906304 46.8018C0.0491175 46.8619 -0.0856999 47 0.106757 46.9943C0.334383 46.9867 0.562009 46.9924 0.790613 46.9924C1.08369 46.9924 1.37677 46.9924 1.66888 46.9924C2.25504 46.9924 2.84023 46.9924 3.42639 46.9924C3.45863 46.9924 3.49184 46.9924 3.52408 46.9924C3.81716 46.9924 4.11024 46.9924 4.40235 46.9924C4.43459 46.9924 4.4678 46.9924 4.50004 46.9924C4.76088 46.9924 5.02075 46.9924 5.28159 46.9924C5.31383 46.9924 5.34705 46.9924 5.37929 46.9924C5.64013 46.9924 5.89999 46.9924 6.16084 46.9924C6.38846 46.9924 6.61609 46.9924 6.84469 46.9924C7.13777 46.9924 7.43085 46.9924 7.72296 46.9924C7.95058 46.9924 8.17821 46.9924 8.40681 46.9924C8.6022 46.9924 8.79759 46.9924 8.99298 46.9924C9.09067 46.9924 9.18836 46.9924 9.28606 46.9924C9.38375 46.9924 9.48145 46.9924 9.57914 46.9924C9.74229 46.9924 9.90446 46.9924 10.0676 46.9924C10.7182 46.9924 11.3699 46.9924 12.0205 46.9924C12.086 46.9924 12.1504 46.9924 12.2159 46.9924C12.2481 46.9924 12.2813 46.9924 12.3136 46.9924C12.4435 46.9924 12.5744 46.9924 12.7044 46.9924C13.0619 46.9924 13.4205 46.9924 13.778 46.9924C14.1356 46.9924 14.4941 46.9924 14.8517 46.9924C15.2424 46.9924 15.6332 46.9924 16.023 46.9924C16.9667 46.9924 17.9105 46.9924 18.8542 46.9924C18.8864 46.9924 18.9196 46.9924 18.9519 46.9924C19.4403 46.9924 19.9278 46.9924 20.4163 46.9924C21.49 46.9924 22.5646 46.9924 23.6382 46.9924C23.8014 46.9924 23.9636 46.9924 24.1267 46.9924C24.452 46.9924 24.7773 46.9924 25.1027 46.9924C25.6556 46.9924 26.2095 46.9924 26.7625 46.9924C27.2832 46.9924 27.8039 46.9924 28.3246 46.9924C28.7154 46.9924 29.1062 46.9924 29.496 46.9924C29.5614 46.9924 29.6259 46.9924 29.6913 46.9924C30.0821 46.9924 30.4729 46.9924 30.8627 46.9924C31.2202 46.9924 31.5788 46.9924 31.9363 46.9924C31.9686 46.9924 32.0018 46.9924 32.034 46.9924C32.7824 46.9924 33.5307 46.9924 34.28 46.9924C34.3777 46.9924 34.4754 46.9924 34.5731 46.9924C35.1593 46.9924 35.7444 46.9924 36.3306 46.9924C36.3961 46.9924 36.4605 46.9924 36.526 46.9924C36.8835 46.9924 37.2421 46.9924 37.5996 46.9924C38.1526 46.9924 38.7065 46.9924 39.2595 46.9924C39.5848 46.9924 39.9101 46.9924 40.2354 46.9924C40.7395 46.9924 41.2446 46.979 41.7487 46.9991C41.9597 47.0076 42.0037 46.96 41.9998 46.7542C41.9851 46.0053 41.9949 45.2593 41.9949 44.5133ZM17.6604 46.7056C17.6623 46.7027 17.6633 46.7008 17.6652 46.698C17.6711 46.6999 17.676 46.7008 17.6819 46.7027C17.674 46.7037 17.6672 46.7047 17.6604 46.7056ZM22.6613 46.1301C22.6603 46.1301 22.6584 46.1301 22.6574 46.1301V46.1292C22.6584 46.1292 22.6603 46.1301 22.6613 46.1301Z" fill="#69C374"/>
</g>
<g clip-path="url(#clip1_40006128_75183)">
<path d="M91.9949 44.5133C91.9949 42.2905 91.9949 40.0686 91.9949 37.8458C91.9949 37.7562 91.9949 37.6657 91.9949 37.5762C91.9968 37.5724 91.9978 37.5676 91.9949 37.56C91.9949 37.0207 91.9949 36.4805 91.9949 35.9412C91.861 35.8297 91.7174 35.7268 91.5953 35.6049C91.0267 35.037 90.3644 34.6007 89.6454 34.2396C86.0825 32.4493 82.4316 31.0316 78.6939 29.6348C74.0388 27.896 77.5245 22.9245 78.9215 20.1586C79.4237 19.1649 80.3918 18.5055 80.638 17.3746C80.808 16.5905 80.9565 15.7444 80.9154 14.9393C80.8422 13.4959 80.0899 12.2316 80.2394 10.7643C80.4426 8.76729 80.8373 6.75695 79.8535 4.88666C78.9889 3.24409 77.4756 1.99501 75.8403 1.1137C72.2236 -0.834713 67.7766 -0.129664 64.7061 2.4733C63.2231 3.73 62.0899 5.39163 61.5613 7.24286C61.2907 8.18992 61.1823 9.17794 61.2438 10.1593C61.3093 11.1959 61.7743 12.183 61.6708 13.2129C61.5887 14.0237 61.2565 14.7878 61.3454 15.6158C61.4676 16.7477 61.5975 18.9124 62.6711 19.6012C63.0883 19.869 63.6618 19.9185 63.9675 20.3044C64.1307 20.5111 64.1844 20.7789 64.2255 21.0361C64.5517 23.0998 64.4384 25.2064 62.9164 26.8127C61.8847 27.9008 60.5268 28.6382 59.1561 29.2785C56.0885 30.7115 53.104 32.2692 50.0091 33.6555C50.0091 33.7822 50.0091 33.9099 50.0091 34.0366C50.0091 34.9256 50.0091 35.8145 50.0091 36.7034C50.0091 36.8302 50.0091 36.9578 50.0091 37.0845C50.0091 37.3389 50.0091 37.5924 50.0091 37.8468C50.0091 38.0688 50.0091 38.2917 50.0091 38.5137C50.0091 38.6404 50.0091 38.7681 50.0091 38.8948C50.0091 39.1806 50.0091 39.4665 50.0091 39.7523C50.0091 39.8476 50.0091 39.9429 50.0091 40.0381C50.0091 40.1648 50.0091 40.2925 50.0091 40.4192C50.0091 40.5145 50.0091 40.6098 50.0091 40.7051C50.0091 40.8642 50.0091 41.0223 50.0091 41.1814C50.0091 41.3406 50.0091 41.4987 50.0091 41.6578C50.0091 41.7846 50.0091 41.9122 50.0091 42.0389C50.0091 42.2295 50.0091 42.4201 50.0091 42.6106C50.0091 43.531 50.0091 44.4523 50.0091 45.3727C50.0091 45.6271 50.0091 45.8805 50.0091 46.1349C50.0091 46.3569 50.0091 46.5798 50.0091 46.8018C50.0491 46.8619 49.9143 47 50.1068 46.9943C50.3344 46.9867 50.562 46.9924 50.7906 46.9924C51.0837 46.9924 51.3768 46.9924 51.6689 46.9924C52.255 46.9924 52.8402 46.9924 53.4264 46.9924C53.4586 46.9924 53.4918 46.9924 53.5241 46.9924C53.8172 46.9924 54.1102 46.9924 54.4023 46.9924C54.4346 46.9924 54.4678 46.9924 54.5 46.9924C54.7609 46.9924 55.0208 46.9924 55.2816 46.9924C55.3138 46.9924 55.347 46.9924 55.3793 46.9924C55.6401 46.9924 55.9 46.9924 56.1608 46.9924C56.3885 46.9924 56.6161 46.9924 56.8447 46.9924C57.1378 46.9924 57.4309 46.9924 57.723 46.9924C57.9506 46.9924 58.1782 46.9924 58.4068 46.9924C58.6022 46.9924 58.7976 46.9924 58.993 46.9924C59.0907 46.9924 59.1884 46.9924 59.2861 46.9924C59.3838 46.9924 59.4814 46.9924 59.5791 46.9924C59.7423 46.9924 59.9045 46.9924 60.0676 46.9924C60.7182 46.9924 61.3699 46.9924 62.0205 46.9924C62.086 46.9924 62.1504 46.9924 62.2159 46.9924C62.2481 46.9924 62.2813 46.9924 62.3136 46.9924C62.4435 46.9924 62.5744 46.9924 62.7044 46.9924C63.0619 46.9924 63.4205 46.9924 63.778 46.9924C64.1356 46.9924 64.4941 46.9924 64.8517 46.9924C65.2424 46.9924 65.6332 46.9924 66.023 46.9924C66.9667 46.9924 67.9105 46.9924 68.8542 46.9924C68.8864 46.9924 68.9196 46.9924 68.9519 46.9924C69.4403 46.9924 69.9278 46.9924 70.4163 46.9924C71.49 46.9924 72.5646 46.9924 73.6382 46.9924C73.8014 46.9924 73.9636 46.9924 74.1267 46.9924C74.452 46.9924 74.7773 46.9924 75.1027 46.9924C75.6556 46.9924 76.2095 46.9924 76.7625 46.9924C77.2832 46.9924 77.8039 46.9924 78.3246 46.9924C78.7154 46.9924 79.1062 46.9924 79.496 46.9924C79.5614 46.9924 79.6259 46.9924 79.6913 46.9924C80.0821 46.9924 80.4729 46.9924 80.8627 46.9924C81.2202 46.9924 81.5788 46.9924 81.9363 46.9924C81.9686 46.9924 82.0018 46.9924 82.034 46.9924C82.7824 46.9924 83.5307 46.9924 84.28 46.9924C84.3777 46.9924 84.4754 46.9924 84.5731 46.9924C85.1593 46.9924 85.7444 46.9924 86.3306 46.9924C86.3961 46.9924 86.4605 46.9924 86.526 46.9924C86.8835 46.9924 87.2421 46.9924 87.5996 46.9924C88.1526 46.9924 88.7065 46.9924 89.2595 46.9924C89.5848 46.9924 89.9101 46.9924 90.2354 46.9924C90.7395 46.9924 91.2446 46.979 91.7487 46.9991C91.9597 47.0076 92.0037 46.96 91.9998 46.7542C91.9851 46.0053 91.9949 45.2593 91.9949 44.5133ZM67.6604 46.7056C67.6623 46.7027 67.6633 46.7008 67.6652 46.698C67.6711 46.6999 67.676 46.7008 67.6819 46.7027C67.674 46.7037 67.6672 46.7047 67.6604 46.7056ZM72.6613 46.1301C72.6603 46.1301 72.6584 46.1301 72.6574 46.1301V46.1292C72.6584 46.1292 72.6603 46.1301 72.6613 46.1301Z" fill="#69C374"/>
</g>
<g clip-path="url(#clip2_40006128_75183)">
<path d="M141.995 44.5133C141.995 42.2905 141.995 40.0686 141.995 37.8458C141.995 37.7562 141.995 37.6657 141.995 37.5762C141.997 37.5724 141.998 37.5676 141.995 37.56C141.995 37.0207 141.995 36.4805 141.995 35.9412C141.861 35.8297 141.717 35.7268 141.595 35.6049C141.027 35.037 140.364 34.6007 139.645 34.2396C136.082 32.4493 132.432 31.0316 128.694 29.6348C124.039 27.896 127.524 22.9245 128.922 20.1586C129.424 19.1649 130.392 18.5055 130.638 17.3746C130.808 16.5905 130.956 15.7444 130.915 14.9393C130.842 13.4959 130.09 12.2316 130.239 10.7643C130.443 8.76729 130.837 6.75695 129.854 4.88666C128.989 3.24409 127.476 1.99501 125.84 1.1137C122.224 -0.834713 117.777 -0.129664 114.706 2.4733C113.223 3.73 112.09 5.39163 111.561 7.24286C111.291 8.18992 111.182 9.17794 111.244 10.1593C111.309 11.1959 111.774 12.183 111.671 13.2129C111.589 14.0237 111.257 14.7878 111.345 15.6158C111.468 16.7477 111.597 18.9124 112.671 19.6012C113.088 19.869 113.662 19.9185 113.968 20.3044C114.131 20.5111 114.184 20.7789 114.225 21.0361C114.552 23.0998 114.438 25.2064 112.916 26.8127C111.885 27.9008 110.527 28.6382 109.156 29.2785C106.089 30.7115 103.104 32.2692 100.009 33.6555C100.009 33.7822 100.009 33.9099 100.009 34.0366C100.009 34.9256 100.009 35.8145 100.009 36.7034C100.009 36.8302 100.009 36.9578 100.009 37.0845C100.009 37.3389 100.009 37.5924 100.009 37.8468C100.009 38.0688 100.009 38.2917 100.009 38.5137C100.009 38.6404 100.009 38.7681 100.009 38.8948C100.009 39.1806 100.009 39.4665 100.009 39.7523C100.009 39.8476 100.009 39.9429 100.009 40.0381C100.009 40.1648 100.009 40.2925 100.009 40.4192C100.009 40.5145 100.009 40.6098 100.009 40.7051C100.009 40.8642 100.009 41.0223 100.009 41.1814C100.009 41.3406 100.009 41.4987 100.009 41.6578C100.009 41.7846 100.009 41.9122 100.009 42.0389C100.009 42.2295 100.009 42.4201 100.009 42.6106C100.009 43.531 100.009 44.4523 100.009 45.3727C100.009 45.6271 100.009 45.8805 100.009 46.1349C100.009 46.3569 100.009 46.5798 100.009 46.8018C100.049 46.8619 99.9143 47 100.107 46.9943C100.334 46.9867 100.562 46.9924 100.791 46.9924C101.084 46.9924 101.377 46.9924 101.669 46.9924C102.255 46.9924 102.84 46.9924 103.426 46.9924C103.459 46.9924 103.492 46.9924 103.524 46.9924C103.817 46.9924 104.11 46.9924 104.402 46.9924C104.435 46.9924 104.468 46.9924 104.5 46.9924C104.761 46.9924 105.021 46.9924 105.282 46.9924C105.314 46.9924 105.347 46.9924 105.379 46.9924C105.64 46.9924 105.9 46.9924 106.161 46.9924C106.388 46.9924 106.616 46.9924 106.845 46.9924C107.138 46.9924 107.431 46.9924 107.723 46.9924C107.951 46.9924 108.178 46.9924 108.407 46.9924C108.602 46.9924 108.798 46.9924 108.993 46.9924C109.091 46.9924 109.188 46.9924 109.286 46.9924C109.384 46.9924 109.481 46.9924 109.579 46.9924C109.742 46.9924 109.904 46.9924 110.068 46.9924C110.718 46.9924 111.37 46.9924 112.021 46.9924C112.086 46.9924 112.15 46.9924 112.216 46.9924C112.248 46.9924 112.281 46.9924 112.314 46.9924C112.444 46.9924 112.574 46.9924 112.704 46.9924C113.062 46.9924 113.42 46.9924 113.778 46.9924C114.136 46.9924 114.494 46.9924 114.852 46.9924C115.242 46.9924 115.633 46.9924 116.023 46.9924C116.967 46.9924 117.91 46.9924 118.854 46.9924C118.886 46.9924 118.92 46.9924 118.952 46.9924C119.44 46.9924 119.928 46.9924 120.416 46.9924C121.49 46.9924 122.565 46.9924 123.638 46.9924C123.801 46.9924 123.964 46.9924 124.127 46.9924C124.452 46.9924 124.777 46.9924 125.103 46.9924C125.656 46.9924 126.21 46.9924 126.762 46.9924C127.283 46.9924 127.804 46.9924 128.325 46.9924C128.715 46.9924 129.106 46.9924 129.496 46.9924C129.561 46.9924 129.626 46.9924 129.691 46.9924C130.082 46.9924 130.473 46.9924 130.863 46.9924C131.22 46.9924 131.579 46.9924 131.936 46.9924C131.969 46.9924 132.002 46.9924 132.034 46.9924C132.782 46.9924 133.531 46.9924 134.28 46.9924C134.378 46.9924 134.475 46.9924 134.573 46.9924C135.159 46.9924 135.744 46.9924 136.331 46.9924C136.396 46.9924 136.461 46.9924 136.526 46.9924C136.884 46.9924 137.242 46.9924 137.6 46.9924C138.153 46.9924 138.707 46.9924 139.259 46.9924C139.585 46.9924 139.91 46.9924 140.235 46.9924C140.74 46.9924 141.245 46.979 141.749 46.9991C141.96 47.0076 142.004 46.96 142 46.7542C141.985 46.0053 141.995 45.2593 141.995 44.5133ZM117.66 46.7056C117.662 46.7027 117.663 46.7008 117.665 46.698C117.671 46.6999 117.676 46.7008 117.682 46.7027C117.674 46.7037 117.667 46.7047 117.66 46.7056ZM122.661 46.1301C122.66 46.1301 122.658 46.1301 122.657 46.1301V46.1292C122.658 46.1292 122.66 46.1301 122.661 46.1301Z" fill="#69C374"/>
</g>
<g clip-path="url(#clip3_40006128_75183)">
<path d="M190.995 44.5133C190.995 42.2905 190.995 40.0686 190.995 37.8458C190.995 37.7562 190.995 37.6657 190.995 37.5762C190.997 37.5724 190.998 37.5676 190.995 37.56C190.995 37.0207 190.995 36.4805 190.995 35.9412C190.864 35.8297 190.724 35.7268 190.605 35.6049C190.05 35.037 189.403 34.6007 188.701 34.2396C185.223 32.4493 181.659 31.0316 178.011 29.6348C173.466 27.896 176.869 22.9245 178.233 20.1586C178.723 19.1649 179.668 18.5055 179.909 17.3746C180.074 16.5905 180.219 15.7444 180.179 14.9393C180.108 13.4959 179.374 12.2316 179.519 10.7643C179.718 8.76729 180.103 6.75695 179.143 4.88666C178.299 3.24409 176.821 1.99501 175.225 1.1137C171.694 -0.834713 167.353 -0.129664 164.356 2.4733C162.908 3.73 161.802 5.39163 161.286 7.24286C161.022 8.18992 160.916 9.17794 160.976 10.1593C161.04 11.1959 161.494 12.183 161.393 13.2129C161.313 14.0237 160.989 14.7878 161.075 15.6158C161.195 16.7477 161.321 18.9124 162.369 19.6012C162.777 19.869 163.336 19.9185 163.635 20.3044C163.794 20.5111 163.847 20.7789 163.887 21.0361C164.205 23.0998 164.095 25.2064 162.609 26.8127C161.602 27.9008 160.276 28.6382 158.938 29.2785C155.944 30.7115 153.03 32.2692 150.009 33.6555C150.009 33.7822 150.009 33.9099 150.009 34.0366C150.009 34.9256 150.009 35.8145 150.009 36.7034C150.009 36.8302 150.009 36.9578 150.009 37.0845C150.009 37.3389 150.009 37.5924 150.009 37.8468C150.009 38.0688 150.009 38.2917 150.009 38.5137C150.009 38.6404 150.009 38.7681 150.009 38.8948C150.009 39.1806 150.009 39.4665 150.009 39.7523C150.009 39.8476 150.009 39.9429 150.009 40.0381C150.009 40.1648 150.009 40.2925 150.009 40.4192C150.009 40.5145 150.009 40.6098 150.009 40.7051C150.009 40.8642 150.009 41.0223 150.009 41.1814C150.009 41.3406 150.009 41.4987 150.009 41.6578C150.009 41.7846 150.009 41.9122 150.009 42.0389C150.009 42.2295 150.009 42.4201 150.009 42.6106C150.009 43.531 150.009 44.4523 150.009 45.3727C150.009 45.6271 150.009 45.8805 150.009 46.1349C150.009 46.3569 150.009 46.5798 150.009 46.8018C150.048 46.8619 149.916 47 150.104 46.9943C150.326 46.9867 150.549 46.9924 150.772 46.9924C151.058 46.9924 151.344 46.9924 151.629 46.9924C152.201 46.9924 152.773 46.9924 153.345 46.9924C153.376 46.9924 153.409 46.9924 153.44 46.9924C153.726 46.9924 154.012 46.9924 154.298 46.9924C154.329 46.9924 154.361 46.9924 154.393 46.9924C154.648 46.9924 154.901 46.9924 155.156 46.9924C155.187 46.9924 155.22 46.9924 155.251 46.9924C155.506 46.9924 155.76 46.9924 156.014 46.9924C156.236 46.9924 156.459 46.9924 156.682 46.9924C156.968 46.9924 157.254 46.9924 157.539 46.9924C157.761 46.9924 157.983 46.9924 158.207 46.9924C158.397 46.9924 158.588 46.9924 158.779 46.9924C158.874 46.9924 158.97 46.9924 159.065 46.9924C159.16 46.9924 159.256 46.9924 159.351 46.9924C159.51 46.9924 159.669 46.9924 159.828 46.9924C160.463 46.9924 161.099 46.9924 161.734 46.9924C161.798 46.9924 161.861 46.9924 161.925 46.9924C161.957 46.9924 161.989 46.9924 162.02 46.9924C162.147 46.9924 162.275 46.9924 162.402 46.9924C162.751 46.9924 163.101 46.9924 163.45 46.9924C163.799 46.9924 164.149 46.9924 164.498 46.9924C164.88 46.9924 165.261 46.9924 165.642 46.9924C166.563 46.9924 167.484 46.9924 168.405 46.9924C168.437 46.9924 168.469 46.9924 168.501 46.9924C168.977 46.9924 169.453 46.9924 169.93 46.9924C170.978 46.9924 172.027 46.9924 173.075 46.9924C173.235 46.9924 173.393 46.9924 173.552 46.9924C173.87 46.9924 174.187 46.9924 174.505 46.9924C175.045 46.9924 175.585 46.9924 176.125 46.9924C176.634 46.9924 177.142 46.9924 177.65 46.9924C178.032 46.9924 178.413 46.9924 178.794 46.9924C178.858 46.9924 178.921 46.9924 178.984 46.9924C179.366 46.9924 179.747 46.9924 180.128 46.9924C180.477 46.9924 180.827 46.9924 181.176 46.9924C181.207 46.9924 181.24 46.9924 181.271 46.9924C182.002 46.9924 182.732 46.9924 183.464 46.9924C183.559 46.9924 183.655 46.9924 183.75 46.9924C184.322 46.9924 184.893 46.9924 185.466 46.9924C185.529 46.9924 185.592 46.9924 185.656 46.9924C186.005 46.9924 186.355 46.9924 186.704 46.9924C187.244 46.9924 187.785 46.9924 188.325 46.9924C188.642 46.9924 188.96 46.9924 189.277 46.9924C189.77 46.9924 190.263 46.979 190.755 46.9991C190.961 47.0076 191.004 46.96 191 46.7542C190.985 46.0053 190.995 45.2593 190.995 44.5133ZM167.24 46.7056C167.242 46.7027 167.243 46.7008 167.245 46.698C167.25 46.6999 167.255 46.7008 167.261 46.7027C167.253 46.7037 167.247 46.7047 167.24 46.7056ZM172.122 46.1301C172.121 46.1301 172.119 46.1301 172.118 46.1301V46.1292C172.119 46.1292 172.121 46.1301 172.122 46.1301Z" fill="#9EA4AA"/>
</g>
<g clip-path="url(#clip4_40006128_75183)">
<path d="M240.995 44.5133C240.995 42.2905 240.995 40.0686 240.995 37.8458C240.995 37.7562 240.995 37.6657 240.995 37.5762C240.997 37.5724 240.998 37.5676 240.995 37.56C240.995 37.0207 240.995 36.4805 240.995 35.9412C240.861 35.8297 240.717 35.7268 240.595 35.6049C240.027 35.037 239.364 34.6007 238.645 34.2396C235.082 32.4493 231.432 31.0316 227.694 29.6348C223.039 27.896 226.524 22.9245 227.922 20.1586C228.424 19.1649 229.392 18.5055 229.638 17.3746C229.808 16.5905 229.956 15.7444 229.915 14.9393C229.842 13.4959 229.09 12.2316 229.239 10.7643C229.443 8.76729 229.837 6.75695 228.854 4.88666C227.989 3.24409 226.476 1.99501 224.84 1.1137C221.224 -0.834713 216.777 -0.129664 213.706 2.4733C212.223 3.73 211.09 5.39163 210.561 7.24286C210.291 8.18992 210.182 9.17794 210.244 10.1593C210.309 11.1959 210.774 12.183 210.671 13.2129C210.589 14.0237 210.257 14.7878 210.345 15.6158C210.468 16.7477 210.597 18.9124 211.671 19.6012C212.088 19.869 212.662 19.9185 212.968 20.3044C213.131 20.5111 213.184 20.7789 213.225 21.0361C213.552 23.0998 213.438 25.2064 211.916 26.8127C210.885 27.9008 209.527 28.6382 208.156 29.2785C205.089 30.7115 202.104 32.2692 199.009 33.6555C199.009 33.7822 199.009 33.9099 199.009 34.0366C199.009 34.9256 199.009 35.8145 199.009 36.7034C199.009 36.8302 199.009 36.9578 199.009 37.0845C199.009 37.3389 199.009 37.5924 199.009 37.8468C199.009 38.0688 199.009 38.2917 199.009 38.5137C199.009 38.6404 199.009 38.7681 199.009 38.8948C199.009 39.1806 199.009 39.4665 199.009 39.7523C199.009 39.8476 199.009 39.9429 199.009 40.0381C199.009 40.1648 199.009 40.2925 199.009 40.4192C199.009 40.5145 199.009 40.6098 199.009 40.7051C199.009 40.8642 199.009 41.0223 199.009 41.1814C199.009 41.3406 199.009 41.4987 199.009 41.6578C199.009 41.7846 199.009 41.9122 199.009 42.0389C199.009 42.2295 199.009 42.4201 199.009 42.6106C199.009 43.531 199.009 44.4523 199.009 45.3727C199.009 45.6271 199.009 45.8805 199.009 46.1349C199.009 46.3569 199.009 46.5798 199.009 46.8018C199.049 46.8619 198.914 47 199.107 46.9943C199.334 46.9867 199.562 46.9924 199.791 46.9924C200.084 46.9924 200.377 46.9924 200.669 46.9924C201.255 46.9924 201.84 46.9924 202.426 46.9924C202.459 46.9924 202.492 46.9924 202.524 46.9924C202.817 46.9924 203.11 46.9924 203.402 46.9924C203.435 46.9924 203.468 46.9924 203.5 46.9924C203.761 46.9924 204.021 46.9924 204.282 46.9924C204.314 46.9924 204.347 46.9924 204.379 46.9924C204.64 46.9924 204.9 46.9924 205.161 46.9924C205.388 46.9924 205.616 46.9924 205.845 46.9924C206.138 46.9924 206.431 46.9924 206.723 46.9924C206.951 46.9924 207.178 46.9924 207.407 46.9924C207.602 46.9924 207.798 46.9924 207.993 46.9924C208.091 46.9924 208.188 46.9924 208.286 46.9924C208.384 46.9924 208.481 46.9924 208.579 46.9924C208.742 46.9924 208.904 46.9924 209.068 46.9924C209.718 46.9924 210.37 46.9924 211.021 46.9924C211.086 46.9924 211.15 46.9924 211.216 46.9924C211.248 46.9924 211.281 46.9924 211.314 46.9924C211.444 46.9924 211.574 46.9924 211.704 46.9924C212.062 46.9924 212.42 46.9924 212.778 46.9924C213.136 46.9924 213.494 46.9924 213.852 46.9924C214.242 46.9924 214.633 46.9924 215.023 46.9924C215.967 46.9924 216.91 46.9924 217.854 46.9924C217.886 46.9924 217.92 46.9924 217.952 46.9924C218.44 46.9924 218.928 46.9924 219.416 46.9924C220.49 46.9924 221.565 46.9924 222.638 46.9924C222.801 46.9924 222.964 46.9924 223.127 46.9924C223.452 46.9924 223.777 46.9924 224.103 46.9924C224.656 46.9924 225.21 46.9924 225.762 46.9924C226.283 46.9924 226.804 46.9924 227.325 46.9924C227.715 46.9924 228.106 46.9924 228.496 46.9924C228.561 46.9924 228.626 46.9924 228.691 46.9924C229.082 46.9924 229.473 46.9924 229.863 46.9924C230.22 46.9924 230.579 46.9924 230.936 46.9924C230.969 46.9924 231.002 46.9924 231.034 46.9924C231.782 46.9924 232.531 46.9924 233.28 46.9924C233.378 46.9924 233.475 46.9924 233.573 46.9924C234.159 46.9924 234.744 46.9924 235.331 46.9924C235.396 46.9924 235.461 46.9924 235.526 46.9924C235.884 46.9924 236.242 46.9924 236.6 46.9924C237.153 46.9924 237.707 46.9924 238.259 46.9924C238.585 46.9924 238.91 46.9924 239.235 46.9924C239.74 46.9924 240.245 46.979 240.749 46.9991C240.96 47.0076 241.004 46.96 241 46.7542C240.985 46.0053 240.995 45.2593 240.995 44.5133ZM216.66 46.7056C216.662 46.7027 216.663 46.7008 216.665 46.698C216.671 46.6999 216.676 46.7008 216.682 46.7027C216.674 46.7037 216.667 46.7047 216.66 46.7056ZM221.661 46.1301C221.66 46.1301 221.658 46.1301 221.657 46.1301V46.1292C221.658 46.1292 221.66 46.1301 221.661 46.1301Z" fill="#9EA4AA"/>
</g>
<g clip-path="url(#clip5_40006128_75183)">
<path d="M289.995 44.5133C289.995 42.2905 289.995 40.0686 289.995 37.8458C289.995 37.7562 289.995 37.6657 289.995 37.5762C289.997 37.5724 289.998 37.5676 289.995 37.56C289.995 37.0207 289.995 36.4805 289.995 35.9412C289.864 35.8297 289.724 35.7268 289.605 35.6049C289.05 35.037 288.403 34.6007 287.701 34.2396C284.223 32.4493 280.659 31.0316 277.011 29.6348C272.466 27.896 275.869 22.9245 277.233 20.1586C277.723 19.1649 278.668 18.5055 278.909 17.3746C279.074 16.5905 279.219 15.7444 279.179 14.9393C279.108 13.4959 278.374 12.2316 278.519 10.7643C278.718 8.76729 279.103 6.75695 278.143 4.88666C277.299 3.24409 275.821 1.99501 274.225 1.1137C270.694 -0.834713 266.353 -0.129664 263.356 2.4733C261.908 3.73 260.802 5.39163 260.286 7.24286C260.022 8.18992 259.916 9.17794 259.976 10.1593C260.04 11.1959 260.494 12.183 260.393 13.2129C260.313 14.0237 259.989 14.7878 260.075 15.6158C260.195 16.7477 260.321 18.9124 261.369 19.6012C261.777 19.869 262.336 19.9185 262.635 20.3044C262.794 20.5111 262.847 20.7789 262.887 21.0361C263.205 23.0998 263.095 25.2064 261.609 26.8127C260.602 27.9008 259.276 28.6382 257.938 29.2785C254.944 30.7115 252.03 32.2692 249.009 33.6555C249.009 33.7822 249.009 33.9099 249.009 34.0366C249.009 34.9256 249.009 35.8145 249.009 36.7034C249.009 36.8302 249.009 36.9578 249.009 37.0845C249.009 37.3389 249.009 37.5924 249.009 37.8468C249.009 38.0688 249.009 38.2917 249.009 38.5137C249.009 38.6404 249.009 38.7681 249.009 38.8948C249.009 39.1806 249.009 39.4665 249.009 39.7523C249.009 39.8476 249.009 39.9429 249.009 40.0381C249.009 40.1648 249.009 40.2925 249.009 40.4192C249.009 40.5145 249.009 40.6098 249.009 40.7051C249.009 40.8642 249.009 41.0223 249.009 41.1814C249.009 41.3406 249.009 41.4987 249.009 41.6578C249.009 41.7846 249.009 41.9122 249.009 42.0389C249.009 42.2295 249.009 42.4201 249.009 42.6106C249.009 43.531 249.009 44.4523 249.009 45.3727C249.009 45.6271 249.009 45.8805 249.009 46.1349C249.009 46.3569 249.009 46.5798 249.009 46.8018C249.048 46.8619 248.916 47 249.104 46.9943C249.326 46.9867 249.549 46.9924 249.772 46.9924C250.058 46.9924 250.344 46.9924 250.629 46.9924C251.201 46.9924 251.773 46.9924 252.345 46.9924C252.376 46.9924 252.409 46.9924 252.44 46.9924C252.726 46.9924 253.012 46.9924 253.298 46.9924C253.329 46.9924 253.361 46.9924 253.393 46.9924C253.648 46.9924 253.901 46.9924 254.156 46.9924C254.187 46.9924 254.22 46.9924 254.251 46.9924C254.506 46.9924 254.76 46.9924 255.014 46.9924C255.236 46.9924 255.459 46.9924 255.682 46.9924C255.968 46.9924 256.254 46.9924 256.539 46.9924C256.761 46.9924 256.983 46.9924 257.207 46.9924C257.397 46.9924 257.588 46.9924 257.779 46.9924C257.874 46.9924 257.97 46.9924 258.065 46.9924C258.16 46.9924 258.256 46.9924 258.351 46.9924C258.51 46.9924 258.669 46.9924 258.828 46.9924C259.463 46.9924 260.099 46.9924 260.734 46.9924C260.798 46.9924 260.861 46.9924 260.925 46.9924C260.957 46.9924 260.989 46.9924 261.02 46.9924C261.147 46.9924 261.275 46.9924 261.402 46.9924C261.751 46.9924 262.101 46.9924 262.45 46.9924C262.799 46.9924 263.149 46.9924 263.498 46.9924C263.88 46.9924 264.261 46.9924 264.642 46.9924C265.563 46.9924 266.484 46.9924 267.405 46.9924C267.437 46.9924 267.469 46.9924 267.501 46.9924C267.977 46.9924 268.453 46.9924 268.93 46.9924C269.978 46.9924 271.027 46.9924 272.075 46.9924C272.235 46.9924 272.393 46.9924 272.552 46.9924C272.87 46.9924 273.187 46.9924 273.505 46.9924C274.045 46.9924 274.585 46.9924 275.125 46.9924C275.634 46.9924 276.142 46.9924 276.65 46.9924C277.032 46.9924 277.413 46.9924 277.794 46.9924C277.858 46.9924 277.921 46.9924 277.984 46.9924C278.366 46.9924 278.747 46.9924 279.128 46.9924C279.477 46.9924 279.827 46.9924 280.176 46.9924C280.207 46.9924 280.24 46.9924 280.271 46.9924C281.002 46.9924 281.732 46.9924 282.464 46.9924C282.559 46.9924 282.655 46.9924 282.75 46.9924C283.322 46.9924 283.893 46.9924 284.466 46.9924C284.529 46.9924 284.592 46.9924 284.656 46.9924C285.005 46.9924 285.355 46.9924 285.704 46.9924C286.244 46.9924 286.785 46.9924 287.325 46.9924C287.642 46.9924 287.96 46.9924 288.277 46.9924C288.77 46.9924 289.263 46.979 289.755 46.9991C289.961 47.0076 290.004 46.96 290 46.7542C289.985 46.0053 289.995 45.2593 289.995 44.5133ZM266.24 46.7056C266.242 46.7027 266.243 46.7008 266.245 46.698C266.25 46.6999 266.255 46.7008 266.261 46.7027C266.253 46.7037 266.247 46.7047 266.24 46.7056ZM271.122 46.1301C271.121 46.1301 271.119 46.1301 271.118 46.1301V46.1292C271.119 46.1292 271.121 46.1301 271.122 46.1301Z" fill="#9EA4AA"/>
</g>
<g clip-path="url(#clip6_40006128_75183)">
<path d="M339.995 44.5133C339.995 42.2905 339.995 40.0686 339.995 37.8458C339.995 37.7562 339.995 37.6657 339.995 37.5762C339.997 37.5724 339.998 37.5676 339.995 37.56C339.995 37.0207 339.995 36.4805 339.995 35.9412C339.861 35.8297 339.717 35.7268 339.595 35.6049C339.027 35.037 338.364 34.6007 337.645 34.2396C334.082 32.4493 330.432 31.0316 326.694 29.6348C322.039 27.896 325.524 22.9245 326.922 20.1586C327.424 19.1649 328.392 18.5055 328.638 17.3746C328.808 16.5905 328.956 15.7444 328.915 14.9393C328.842 13.4959 328.09 12.2316 328.239 10.7643C328.443 8.76729 328.837 6.75695 327.854 4.88666C326.989 3.24409 325.476 1.99501 323.84 1.1137C320.224 -0.834713 315.777 -0.129664 312.706 2.4733C311.223 3.73 310.09 5.39163 309.561 7.24286C309.291 8.18992 309.182 9.17794 309.244 10.1593C309.309 11.1959 309.774 12.183 309.671 13.2129C309.589 14.0237 309.257 14.7878 309.345 15.6158C309.468 16.7477 309.597 18.9124 310.671 19.6012C311.088 19.869 311.662 19.9185 311.968 20.3044C312.131 20.5111 312.184 20.7789 312.225 21.0361C312.552 23.0998 312.438 25.2064 310.916 26.8127C309.885 27.9008 308.527 28.6382 307.156 29.2785C304.089 30.7115 301.104 32.2692 298.009 33.6555C298.009 33.7822 298.009 33.9099 298.009 34.0366C298.009 34.9256 298.009 35.8145 298.009 36.7034C298.009 36.8302 298.009 36.9578 298.009 37.0845C298.009 37.3389 298.009 37.5924 298.009 37.8468C298.009 38.0688 298.009 38.2917 298.009 38.5137C298.009 38.6404 298.009 38.7681 298.009 38.8948C298.009 39.1806 298.009 39.4665 298.009 39.7523C298.009 39.8476 298.009 39.9429 298.009 40.0381C298.009 40.1648 298.009 40.2925 298.009 40.4192C298.009 40.5145 298.009 40.6098 298.009 40.7051C298.009 40.8642 298.009 41.0223 298.009 41.1814C298.009 41.3406 298.009 41.4987 298.009 41.6578C298.009 41.7846 298.009 41.9122 298.009 42.0389C298.009 42.2295 298.009 42.4201 298.009 42.6106C298.009 43.531 298.009 44.4523 298.009 45.3727C298.009 45.6271 298.009 45.8805 298.009 46.1349C298.009 46.3569 298.009 46.5798 298.009 46.8018C298.049 46.8619 297.914 47 298.107 46.9943C298.334 46.9867 298.562 46.9924 298.791 46.9924C299.084 46.9924 299.377 46.9924 299.669 46.9924C300.255 46.9924 300.84 46.9924 301.426 46.9924C301.459 46.9924 301.492 46.9924 301.524 46.9924C301.817 46.9924 302.11 46.9924 302.402 46.9924C302.435 46.9924 302.468 46.9924 302.5 46.9924C302.761 46.9924 303.021 46.9924 303.282 46.9924C303.314 46.9924 303.347 46.9924 303.379 46.9924C303.64 46.9924 303.9 46.9924 304.161 46.9924C304.388 46.9924 304.616 46.9924 304.845 46.9924C305.138 46.9924 305.431 46.9924 305.723 46.9924C305.951 46.9924 306.178 46.9924 306.407 46.9924C306.602 46.9924 306.798 46.9924 306.993 46.9924C307.091 46.9924 307.188 46.9924 307.286 46.9924C307.384 46.9924 307.481 46.9924 307.579 46.9924C307.742 46.9924 307.904 46.9924 308.068 46.9924C308.718 46.9924 309.37 46.9924 310.021 46.9924C310.086 46.9924 310.15 46.9924 310.216 46.9924C310.248 46.9924 310.281 46.9924 310.314 46.9924C310.444 46.9924 310.574 46.9924 310.704 46.9924C311.062 46.9924 311.42 46.9924 311.778 46.9924C312.136 46.9924 312.494 46.9924 312.852 46.9924C313.242 46.9924 313.633 46.9924 314.023 46.9924C314.967 46.9924 315.91 46.9924 316.854 46.9924C316.886 46.9924 316.92 46.9924 316.952 46.9924C317.44 46.9924 317.928 46.9924 318.416 46.9924C319.49 46.9924 320.565 46.9924 321.638 46.9924C321.801 46.9924 321.964 46.9924 322.127 46.9924C322.452 46.9924 322.777 46.9924 323.103 46.9924C323.656 46.9924 324.21 46.9924 324.762 46.9924C325.283 46.9924 325.804 46.9924 326.325 46.9924C326.715 46.9924 327.106 46.9924 327.496 46.9924C327.561 46.9924 327.626 46.9924 327.691 46.9924C328.082 46.9924 328.473 46.9924 328.863 46.9924C329.22 46.9924 329.579 46.9924 329.936 46.9924C329.969 46.9924 330.002 46.9924 330.034 46.9924C330.782 46.9924 331.531 46.9924 332.28 46.9924C332.378 46.9924 332.475 46.9924 332.573 46.9924C333.159 46.9924 333.744 46.9924 334.331 46.9924C334.396 46.9924 334.461 46.9924 334.526 46.9924C334.884 46.9924 335.242 46.9924 335.6 46.9924C336.153 46.9924 336.707 46.9924 337.259 46.9924C337.585 46.9924 337.91 46.9924 338.235 46.9924C338.74 46.9924 339.245 46.979 339.749 46.9991C339.96 47.0076 340.004 46.96 340 46.7542C339.985 46.0053 339.995 45.2593 339.995 44.5133ZM315.66 46.7056C315.662 46.7027 315.663 46.7008 315.665 46.698C315.671 46.6999 315.676 46.7008 315.682 46.7027C315.674 46.7037 315.667 46.7047 315.66 46.7056ZM320.661 46.1301C320.66 46.1301 320.658 46.1301 320.657 46.1301V46.1292C320.658 46.1292 320.66 46.1301 320.661 46.1301Z" fill="#9EA4AA"/>
</g>
<circle cx="21" cy="69" r="4" fill="#69C374"/>
<circle cx="71" cy="69" r="4" fill="#69C374"/>
<circle cx="121" cy="69" r="4" fill="#69C374"/>
<defs>
<clipPath id="clip0_40006128_75183">
<path d="M0 8C0 3.58172 3.58172 0 8 0H34C38.4183 0 42 3.58172 42 8V39C42 43.4183 38.4183 47 34 47H8C3.58172 47 0 43.4183 0 39V8Z" fill="white"/>
</clipPath>
<clipPath id="clip1_40006128_75183">
<path d="M50 8C50 3.58172 53.5817 0 58 0H84C88.4183 0 92 3.58172 92 8V39C92 43.4183 88.4183 47 84 47H58C53.5817 47 50 43.4183 50 39V8Z" fill="white"/>
</clipPath>
<clipPath id="clip2_40006128_75183">
<path d="M100 8C100 3.58172 103.582 0 108 0H134C138.418 0 142 3.58172 142 8V39C142 43.4183 138.418 47 134 47H108C103.582 47 100 43.4183 100 39V8Z" fill="white"/>
</clipPath>
<clipPath id="clip3_40006128_75183">
<path d="M150 8C150 3.58172 153.582 0 158 0H183C187.418 0 191 3.58172 191 8V39C191 43.4183 187.418 47 183 47H158C153.582 47 150 43.4183 150 39V8Z" fill="white"/>
</clipPath>
<clipPath id="clip4_40006128_75183">
<path d="M199 8C199 3.58172 202.582 0 207 0H233C237.418 0 241 3.58172 241 8V39C241 43.4183 237.418 47 233 47H207C202.582 47 199 43.4183 199 39V8Z" fill="white"/>
</clipPath>
<clipPath id="clip5_40006128_75183">
<path d="M249 8C249 3.58172 252.582 0 257 0H282C286.418 0 290 3.58172 290 8V39C290 43.4183 286.418 47 282 47H257C252.582 47 249 43.4183 249 39V8Z" fill="white"/>
</clipPath>
<clipPath id="clip6_40006128_75183">
<path d="M298 8C298 3.58172 301.582 0 306 0H332C336.418 0 340 3.58172 340 8V39C340 43.4183 336.418 47 332 47H306C301.582 47 298 43.4183 298 39V8Z" fill="white"/>
</clipPath>
</defs>
</svg>
