<svg width="48" height="48" viewBox="0 0 48 48" fill="none" xmlns="http://www.w3.org/2000/svg">
<path d="M19.995 25.5349C20.4379 25.6232 20.917 25.1465 20.917 24.7051C20.9079 24.2284 20.5283 23.8752 20.0131 23.8576C19.507 23.8488 19.0912 24.2019 19.0822 24.7051C19.0731 25.1377 19.5522 25.6232 19.995 25.5349Z" fill="white"/>
<path d="M36.7168 30.1106C36.6626 29.9517 36.5451 29.8458 36.3914 29.7663C36.3191 29.731 36.2468 29.7045 36.1655 29.6781C35.8581 29.5898 35.5508 29.5015 35.2435 29.4132C34.2041 29.1219 33.1737 28.8217 32.1433 28.5127C32.0801 28.4951 32.0258 28.4863 31.9806 28.4863C31.9355 28.4863 31.8993 28.4951 31.8632 28.5127C31.7999 28.548 31.7547 28.6187 31.7005 28.7158C31.601 28.9277 31.4926 29.1395 31.3841 29.3514C31.2756 29.5633 31.1582 29.7663 31.0407 29.9694C30.8418 30.3048 30.5978 30.605 30.3447 30.8963C30.0826 31.1877 29.8114 31.4613 29.5222 31.7262C29.4589 31.7792 29.3956 31.8939 29.4137 31.9645C29.5764 32.5913 29.7572 33.2181 29.938 33.8449C29.9651 33.942 29.9922 34.0392 30.0193 34.1451C30.0374 34.2069 30.0555 34.2687 30.0735 34.3305C30.1097 34.4541 30.1368 34.5688 30.173 34.7101C29.7753 34.4806 29.3866 34.251 29.007 34.0392C28.6274 33.8185 28.2658 33.6066 27.8953 33.3947C27.588 33.2181 27.3258 33.0504 26.9191 33.2446C26.7655 33.3152 26.6028 33.3859 26.4401 33.4388C25.952 33.6066 25.4368 33.686 24.9126 33.7302C24.6505 33.7478 24.3883 33.7831 24.1172 33.8096C24.1172 33.8802 24.1172 33.942 24.1172 34.0038C24.1172 34.6836 24.1262 35.3634 24.1262 36.0431C24.1262 36.7229 24.1172 37.4115 24.1353 38.0913C24.1353 38.1707 24.1714 38.2678 24.2166 38.3561C24.2618 38.4444 24.3341 38.5239 24.3974 38.568C24.5149 38.6563 24.6324 38.7269 24.7589 38.7887C25.1295 38.9741 25.5453 39.0712 25.9701 39.0712C26.3497 39.0712 26.7022 38.9653 27.0366 38.7887C27.1451 38.7357 27.2535 38.6651 27.362 38.5945C27.4343 38.7799 27.5247 38.9476 27.6151 39.1065C27.832 39.4596 28.1212 39.7245 28.5099 39.8834C28.6455 39.9364 28.772 39.9893 28.9347 40.007C29.4228 40.0688 29.8656 40.0158 30.2272 39.8304C30.5978 39.645 30.896 39.3272 31.1039 38.8505C31.1582 38.9035 31.2033 38.9299 31.2395 38.9653C31.4383 39.1418 31.6553 39.2742 31.8722 39.3802C32.3331 39.6009 32.8303 39.6715 33.3816 39.5391C33.6708 39.4685 33.9601 39.3449 34.2041 39.1683C34.5747 38.9123 34.882 38.5503 35.0447 38.1266C35.0989 37.9853 35.1441 37.8441 35.1622 37.694C35.1803 37.5439 35.1893 37.3939 35.1712 37.2349C35.1532 37.076 35.117 36.9171 35.0628 36.7582C35.0537 36.7317 35.0447 36.7053 35.0356 36.6788C35.0266 36.6523 35.0266 36.6346 35.0356 36.617C35.0447 36.5817 35.0808 36.5552 35.1531 36.5287C35.361 36.4492 35.5689 36.3433 35.7497 36.2197C36.2197 35.9195 36.527 35.3457 36.5632 34.7719C36.5903 34.4276 36.5089 34.0833 36.3191 33.8008C36.0751 33.4388 35.813 33.0857 35.587 32.7591C35.831 32.5472 36.1203 32.3442 36.3372 32.097C36.5632 31.8321 36.6626 31.5408 36.7078 31.2318C36.753 30.9228 36.7349 30.605 36.7168 30.2872C36.753 30.2342 36.7349 30.1724 36.7168 30.1106ZM25.5362 37.1467C25.4278 36.3786 25.3193 35.6194 25.2018 34.8513C25.3193 34.8249 25.4278 34.7984 25.5543 34.7631C25.6628 35.5488 25.7712 36.3168 25.8887 37.1202C25.7803 37.129 25.6718 37.1378 25.5362 37.1467ZM27.2174 37.3585C27.1089 36.5199 27.0095 35.69 26.9101 34.8602C27.0276 34.8337 27.118 34.8072 27.2535 34.7719C27.362 35.6017 27.4614 36.4228 27.5699 37.2614C27.4614 37.2967 27.3439 37.3232 27.2174 37.3585ZM29.5312 38.1972C29.2962 37.3762 29.0703 36.5728 28.8443 35.7606C28.9618 35.7165 29.0431 35.69 29.1787 35.6547C29.4137 36.4581 29.6397 37.2614 29.8747 38.0736C29.7481 38.1089 29.6487 38.1531 29.5312 38.1972ZM32.541 38.003C32.0439 37.3144 31.5558 36.6346 31.0678 35.9725C31.2214 35.7871 31.3118 35.69 31.4926 35.946C31.9174 36.5728 32.3783 37.182 32.8483 37.8176C32.7399 37.8794 32.6495 37.9324 32.541 38.003ZM33.3545 35.5046C32.8393 35.1338 32.3241 34.7542 31.8089 34.3746C31.7185 34.304 31.6281 34.2334 31.5378 34.1716C31.2666 33.9862 31.2576 33.9862 31.5287 33.7302C31.9535 34.0392 32.3693 34.3481 32.7941 34.6571C32.9839 34.7984 33.1647 34.9485 33.3545 35.0897C33.6076 35.2574 33.6076 35.2574 33.3545 35.5046ZM33.951 33.2623C33.1466 32.9356 32.3512 32.6178 31.5378 32.2912C31.592 32.1852 31.6372 32.097 31.6914 31.9822C32.4778 32.2912 33.2641 32.609 34.0776 32.9268C34.0233 33.0592 33.9872 33.1475 33.951 33.2623ZM34.2403 31.1612C33.4178 30.967 32.6043 30.7639 31.7728 30.5697C31.7999 30.4549 31.827 30.3578 31.8541 30.2254C32.306 30.3313 32.758 30.4284 33.2008 30.5432C33.5081 30.6138 33.8064 30.7021 34.1137 30.7816C34.3939 30.8522 34.412 30.8963 34.2403 31.1612Z" fill="white"/>
<path d="M23.485 33.7724C23.024 33.7636 22.5721 33.7106 22.1292 33.6135C21.6863 33.5164 21.2525 33.384 20.8277 33.2074C20.7553 33.1809 20.6469 33.1545 20.5836 33.1809C20.0955 33.4281 19.6165 33.7018 19.1284 33.9578C19.0019 34.0284 18.8573 34.0991 18.7217 34.1609C18.4686 34.2933 18.2155 34.4169 17.9444 34.5581C18.0438 34.1432 18.1432 33.7371 18.2427 33.331C18.3421 32.9249 18.4415 32.5277 18.55 32.1392C18.568 32.0598 18.568 32.0068 18.559 31.9627C18.55 31.9362 18.5228 31.9185 18.5138 31.9009C18.4957 31.8832 18.4867 31.8567 18.4686 31.8391C18.2155 31.5919 17.9534 31.3447 17.7003 31.0887C17.0044 30.3736 16.4711 29.5526 16.1186 28.6168C16.1005 28.5638 16.0825 28.5285 16.0463 28.5109C16.0102 28.4932 15.965 28.4844 15.8836 28.5109C15.1063 28.7404 14.32 28.9346 13.5336 29.1465C13.2805 29.2083 13.0365 29.2789 12.7834 29.3495C12.5303 29.4202 12.2863 29.482 12.0332 29.5349C11.9428 29.5526 11.8525 29.5791 11.7711 29.6055C11.6084 29.6585 11.4728 29.738 11.3734 29.8792C11.3282 29.9498 11.2921 30.0293 11.274 30.1352C11.2559 30.2412 11.2107 30.3471 11.1836 30.453C11.1655 30.4972 11.1475 30.5502 11.1475 30.6031C11.1113 30.9209 11.1023 31.2299 11.1655 31.5213C11.2288 31.8126 11.3734 32.0863 11.6355 32.3246C11.8434 32.5188 12.0694 32.6954 12.2863 32.8808C12.0784 33.128 11.8705 33.3663 11.7169 33.6312C11.5632 33.896 11.4457 34.1697 11.4186 34.4787C11.4005 34.6817 11.4186 34.9024 11.4819 35.1408C11.5361 35.3262 11.6084 35.4851 11.6898 35.6263C11.7259 35.6793 11.753 35.7411 11.7892 35.7852C12.1507 36.262 12.7021 36.4738 13.3438 36.5886C13.3077 36.7034 13.2715 36.8093 13.2444 36.9241C13.2173 37.0388 13.1902 37.1448 13.1721 37.2595C13.154 37.3743 13.1359 37.4803 13.1359 37.6038C13.1359 37.7274 13.1359 37.8334 13.154 37.957C13.2263 38.469 13.5065 38.9281 13.8952 39.2547C14.094 39.4224 14.3109 39.5549 14.555 39.6608C14.79 39.7579 15.043 39.8197 15.3052 39.8374C15.4769 39.8462 15.6486 39.8462 15.8113 39.8197C16.1728 39.7667 16.5073 39.6431 16.8146 39.4224C16.914 39.3518 17.0134 39.2635 17.1038 39.1753C17.1761 39.1046 17.2213 39.087 17.2846 39.1311C17.3027 39.1488 17.3298 39.1664 17.3478 39.2017C17.4834 39.3783 17.6461 39.5372 17.8269 39.6785C17.9625 39.7844 18.1252 39.8639 18.2969 39.9168C18.4777 39.9698 18.6675 40.0051 18.8482 40.0051C19.2278 40.0228 19.5894 39.9521 19.8244 39.8197C20.1046 39.6608 20.3577 39.4666 20.5475 39.2282C20.7373 38.9899 20.8819 38.7074 20.9452 38.3542C21.0175 38.3984 21.0898 38.4425 21.144 38.4867C21.2073 38.5308 21.2615 38.5661 21.3248 38.6014C21.4423 38.6632 21.5507 38.7162 21.6682 38.7515C21.8038 38.7956 21.9303 38.8221 22.0659 38.8398C22.084 38.8398 22.093 38.8486 22.1021 38.8486C22.2738 38.8574 22.4455 38.8486 22.6173 38.8221C22.7348 38.8045 22.8432 38.7692 22.9607 38.7427C23.1053 38.6985 23.25 38.6456 23.3946 38.5926C23.494 38.5485 23.5663 38.4955 23.6115 38.416C23.6296 38.3896 23.6477 38.3542 23.6567 38.3189C23.6748 38.2571 23.6928 38.1953 23.6928 38.1159C23.6928 36.7475 23.6928 35.388 23.6928 34.0196C23.7109 33.8342 23.6477 33.7813 23.485 33.7724ZM13.3077 30.8856C14.1121 30.559 14.8894 30.2412 15.6667 29.9145C15.8655 30.1352 15.8655 30.2147 15.6486 30.3118C14.9255 30.612 14.1934 30.9033 13.4613 31.1946C13.4161 31.0887 13.3619 30.9916 13.3077 30.8856ZM14.085 32.2452C14.7719 31.9538 15.4407 31.6537 16.1548 31.3447C16.2 31.4595 16.2361 31.5566 16.2813 31.6802C15.495 32.0156 14.7177 32.3511 13.9313 32.6866C13.7596 32.3688 13.7686 32.3776 14.085 32.2452ZM14.2205 34.8406C14.1482 34.7347 14.085 34.6464 14.0217 34.5493C14.7538 34.0991 15.4859 33.6488 16.218 33.1986C16.2813 33.2957 16.3446 33.3752 16.4169 33.4899C15.6848 33.9402 14.9617 34.3816 14.2205 34.8406ZM15.8023 38.0011C15.6034 38.2483 15.5853 38.2395 15.3684 37.9658C15.8746 37.3302 16.3898 36.6857 16.9321 36.0148C17.0315 36.0854 17.1219 36.1472 17.2213 36.2178C16.7423 36.827 16.2723 37.4185 15.8023 38.0011ZM18.5228 37.6745C18.4144 37.6215 18.315 37.5774 18.2065 37.5244C18.6132 36.7828 19.02 36.0501 19.4357 35.2909C19.5352 35.3615 19.6255 35.4145 19.734 35.4851C19.3363 36.2178 18.9386 36.9417 18.5228 37.6745ZM20.4932 37.1006C20.3848 37.0653 20.2763 37.0212 20.1498 36.9859C20.4571 36.2355 20.7553 35.4939 21.0717 34.77C21.0988 34.7082 21.2977 34.717 21.4784 34.6906C21.135 35.5381 20.8186 36.3061 20.4932 37.1006ZM22.2557 37.0212C22.1202 37.0212 22.0388 37.0212 21.9123 37.0212C21.9575 36.6681 21.9936 36.3326 22.0388 35.9883C22.1021 35.5822 22.1834 35.1849 22.2467 34.7788C22.2919 34.4875 22.2828 34.4875 22.6263 34.5934C22.5088 35.3968 22.3823 36.2002 22.2557 37.0212Z" fill="white"/>
<path d="M26.8213 33.0848C27.6257 32.7935 28.3759 32.3697 29.0719 31.8135C29.3069 31.6282 29.5329 31.4251 29.7498 31.2132C29.9305 31.0367 30.1113 30.8513 30.274 30.6571C30.7621 30.0921 31.1598 29.4829 31.458 28.8296C31.5846 28.5648 31.684 28.2911 31.7654 28.0086C31.8919 27.6025 32.0004 27.1876 32.0546 26.7462C32.0907 26.499 32.1088 26.2518 32.1269 26.0046C32.1721 25.0777 32.0636 24.2037 31.8377 23.4003C31.684 22.8618 31.4852 22.3586 31.2321 21.8819C30.979 21.4052 30.6807 20.9638 30.3463 20.5577C30.0119 20.1516 29.6413 19.7808 29.2346 19.4541C28.9544 19.2246 28.6561 19.0216 28.3579 18.8362C28.0777 18.6596 27.7884 18.5007 27.4811 18.3595C27.1015 18.1829 26.7129 18.0328 26.3152 17.9092C25.9355 17.7945 25.5559 17.7062 25.1673 17.6532C24.869 17.6091 24.5617 17.5737 24.2634 17.5649C23.6579 17.5473 23.0613 17.5826 22.4919 17.6797C21.6423 17.8298 20.8379 18.1034 20.1057 18.483C19.6177 18.7302 19.1567 19.0304 18.7409 19.3659C18.3161 19.7013 17.9365 20.0721 17.593 20.4782C17.4213 20.6813 17.2586 20.8931 17.114 21.1138C16.7163 21.6877 16.409 22.3145 16.174 22.9677C16.0565 23.3032 15.948 23.6475 15.8848 24.0006C15.7854 24.5215 15.7402 25.0512 15.7492 25.5897C15.7402 26.4284 15.8667 27.2229 16.1017 27.9645C16.3367 28.706 16.6711 29.3946 17.0959 30.0126C17.2405 30.2157 17.3852 30.4187 17.5479 30.6129C17.8642 30.9925 18.2257 31.3457 18.6054 31.6635C18.985 31.9813 19.4007 32.2638 19.8255 32.511C20.4763 32.8818 21.1632 33.1554 21.8863 33.3408C22.3654 33.4644 22.8534 33.535 23.3505 33.5703C24.2815 33.6233 25.1673 33.5527 25.9988 33.3408C26.279 33.2702 26.5502 33.1907 26.8213 33.0848ZM16.5084 25.3072C16.6079 21.5817 19.7894 18.28 23.4952 18.333C26.044 18.3153 27.8336 19.0745 29.2979 20.5312C30.6898 21.926 31.3857 23.6475 31.3767 25.5897C31.3586 27.6643 30.5632 29.4653 28.9905 30.8866C27.5173 32.2196 25.7548 32.8729 23.7482 32.82C19.8707 32.7317 16.3909 29.6507 16.5084 25.3072Z" fill="white"/>
<path d="M17.4111 16.0005C18.1432 16.8304 18.8663 17.6691 19.5984 18.4989C19.6526 18.4724 19.6888 18.4636 19.734 18.4371C20.5474 17.9692 21.4151 17.6426 22.3551 17.4837C22.4455 17.466 22.5449 17.4748 22.6443 17.4572C22.6986 17.4484 22.7528 17.4307 22.798 17.3954C22.8432 17.3601 22.8793 17.3159 22.9065 17.2541C23.0782 16.8392 23.268 16.4331 23.4488 16.027C23.494 15.9299 23.5391 15.8328 23.5843 15.7357C23.7199 15.4444 23.8555 15.153 24.0001 14.8352C24.0091 14.8617 24.0182 14.8794 24.0272 14.897C24.0543 14.9588 24.0724 15.003 24.0905 15.0471C24.2803 15.5856 24.4611 16.1241 24.6509 16.6538C24.7141 16.8392 24.7774 17.0246 24.8407 17.2012C24.8497 17.2365 24.8859 17.2806 24.922 17.3071C24.9582 17.3336 25.0034 17.3601 25.0395 17.3689C25.0847 17.3777 25.1299 17.3866 25.1661 17.3954C25.9072 17.5278 26.6303 17.7132 27.3263 18.0134C27.5703 18.1193 27.8143 18.2429 28.0493 18.3753C28.2211 18.1811 28.3838 17.9957 28.5465 17.8103C29.3509 16.9363 30.1553 16.0535 30.9688 15.1884C31.1134 15.0383 31.2038 14.8882 31.249 14.7205C31.2761 14.641 31.2851 14.5527 31.2851 14.4644C31.2851 14.3762 31.2761 14.2879 31.249 14.1996C31.2309 14.1201 31.1947 14.0495 31.1586 13.9701C31.014 13.5905 30.797 13.255 30.4716 13.0166C30.3451 12.9195 30.2005 12.8401 30.0378 12.7694C29.622 12.5929 29.1611 12.5223 28.673 12.3898C28.682 12.3545 28.7001 12.2574 28.7091 12.1603C28.7091 12.0102 28.7272 11.8513 28.7363 11.7012C28.7453 11.5512 28.7363 11.3922 28.7091 11.251C28.6459 10.9773 28.5465 10.739 28.4018 10.5447C28.2572 10.3417 28.0855 10.1828 27.8776 10.0592C27.4709 9.81201 26.9557 9.7149 26.4315 9.7767C26.2507 9.80318 26.2597 9.75021 26.1965 9.61779C26.1241 9.45888 26.0428 9.29115 25.9524 9.13224C25.862 8.97334 25.7716 8.82326 25.6541 8.68201C25.4643 8.45248 25.2384 8.29357 24.9853 8.18763C24.7322 8.07287 24.452 8.00224 24.1538 7.9581C23.4397 7.84333 22.8522 8.03755 22.328 8.48779C22.1111 8.66435 21.9574 8.88505 21.8309 9.11459C21.7405 9.3706 21.6501 9.62662 21.5868 9.90029C21.5416 9.89146 21.5055 9.89146 21.4603 9.88264C21.4151 9.87381 21.3789 9.86498 21.3338 9.86498C21.153 9.87381 20.9722 9.87381 20.7915 9.87381C20.6107 9.87381 20.4299 9.89146 20.2582 9.92678C19.4357 10.1122 19.0199 11.0656 19.029 11.6659C19.038 12.0455 19.1013 12.4251 19.1465 12.7959C18.9566 12.7959 18.7578 12.7783 18.568 12.7783C18.3782 12.7783 18.1884 12.7783 18.0076 12.8136C17.628 12.8842 17.3297 13.0608 17.1038 13.2991C16.8688 13.5375 16.697 13.8465 16.5524 14.1731C16.4711 14.3673 16.4349 14.5527 16.462 14.7293C16.4891 14.9058 16.5705 15.0736 16.7332 15.2325C16.9772 15.4885 17.1941 15.7445 17.4111 16.0005ZM28.9803 14.9412C29.2786 15.1707 29.2695 15.1707 29.0436 15.462C28.6549 15.9652 28.2753 16.4861 27.8866 16.9893C27.8324 17.0599 27.7691 17.1217 27.7149 17.1835C27.6336 17.1217 27.5522 17.0599 27.4528 16.9805C27.959 16.3007 28.4741 15.6209 28.9803 14.9412ZM27.2811 14.129C27.4166 13.8641 27.5341 14.0319 27.7059 14.1201C27.2991 14.8617 26.8924 15.6033 26.4857 16.3448C26.3591 16.2742 26.2688 16.2301 26.1693 16.1771C26.549 15.4797 26.9286 14.8087 27.2811 14.129ZM25.5909 12.4075C25.7265 12.4428 25.8078 12.4605 25.9343 12.4869C25.7445 13.2991 25.5457 14.1025 25.3468 14.9323C25.2203 14.9058 25.1118 14.8794 24.9943 14.8529C25.2022 14.0319 25.392 13.2197 25.5909 12.4075ZM23.8284 10.1651C23.9368 10.1651 24.0182 10.1651 24.1176 10.1651C24.1176 11.0038 24.1176 11.8248 24.1176 12.6635C24.0182 12.6635 23.9278 12.6635 23.8284 12.6635C23.8284 11.8337 23.8284 11.0126 23.8284 10.1651ZM22.319 12.3015C22.5811 13.0961 22.8432 13.8818 23.1143 14.694C23.0149 14.7293 22.9155 14.7734 22.7799 14.8264C22.5178 14.0319 22.2647 13.2462 21.9936 12.434C22.093 12.3898 22.1834 12.3545 22.319 12.3015ZM20.6468 13.9612C21.1168 14.6763 21.5688 15.3826 22.0388 16.0976C21.9303 16.1594 21.8399 16.2212 21.7405 16.283C21.2795 15.5856 20.8276 14.897 20.3576 14.1731C20.448 14.1113 20.5384 14.0407 20.6468 13.9612ZM19.1374 15.0824C19.6978 15.7092 20.2582 16.336 20.8095 16.954C20.6016 17.2277 20.5926 17.2365 20.3847 16.9981C19.8786 16.4419 19.3815 15.8858 18.8753 15.3031C18.9476 15.2413 19.029 15.1795 19.1374 15.0824Z" fill="white"/>
<path d="M11.8712 29.1914C12.0339 29.1473 12.1966 29.1031 12.3593 29.059C12.9377 28.9001 13.5162 28.7412 14.0856 28.5823C14.3839 28.494 14.6912 28.4057 14.9804 28.3263C15.2787 28.238 15.5679 28.1585 15.8481 28.0702C15.8029 27.8142 15.7487 27.5759 15.7035 27.3287C15.6583 27.0903 15.6131 26.8431 15.586 26.6048C15.5589 26.4106 15.5408 26.2163 15.5318 26.0133C15.5047 25.6337 15.5137 25.2452 15.5408 24.8656C15.5589 24.6626 15.586 24.4507 15.6222 24.2477C15.6402 24.1682 15.6493 24.0888 15.6583 24.0181C15.6674 23.9387 15.6764 23.8681 15.6674 23.7974C15.6493 23.6562 15.586 23.5149 15.4052 23.3913C15.0618 23.1441 14.7364 22.8705 14.411 22.588C14.3026 22.4997 14.1941 22.4026 14.0856 22.3143C14.0224 22.2613 13.9681 22.2084 13.9049 22.1554C13.7874 22.0495 13.6699 21.9523 13.5614 21.8464C13.5614 21.8376 13.5704 21.8287 13.5704 21.8199C13.5795 21.8023 13.5795 21.7846 13.5885 21.767C14.4381 21.767 15.2787 21.767 16.1283 21.767C16.1645 21.767 16.2006 21.767 16.2368 21.767C16.3995 21.7846 16.4899 21.714 16.5712 21.5727C16.7429 21.2637 16.9327 20.9724 17.1406 20.6899C17.3485 20.4074 17.5835 20.1426 17.8456 19.9042C17.8818 19.8689 17.9179 19.8336 17.9631 19.8071C18.3608 19.4451 18.7676 19.1009 19.1743 18.7389C18.9393 18.4741 18.6862 18.2004 18.4512 17.9267C18.0806 17.503 17.7191 17.0704 17.3395 16.6378C16.9779 16.2317 16.6435 15.7991 16.2458 15.4372C16.1193 15.3224 15.9747 15.2341 15.821 15.1723C15.5137 15.0576 15.1793 15.0576 14.8358 15.1547C14.6641 15.19 14.4924 15.2694 14.3206 15.3754C14.1851 15.4548 14.0585 15.5431 13.941 15.649C13.5976 15.958 13.3535 16.3465 13.2451 16.8232C12.7299 16.6819 12.2147 16.5319 11.6995 16.6113C11.5277 16.6378 11.356 16.6908 11.1843 16.7702C11.0126 16.8585 10.8589 16.9556 10.7233 17.0704C10.3256 17.4058 10.1177 17.8737 10.0906 18.4387C9.8014 18.3593 9.53024 18.3328 9.26813 18.3416C9.13255 18.3505 9.00601 18.3681 8.88851 18.3946C8.64447 18.4476 8.40947 18.5447 8.21063 18.6859C8.00274 18.8184 7.83101 18.9949 7.67736 19.2068C7.60505 19.3127 7.53274 19.4275 7.47851 19.5511C7.29774 19.9484 7.2164 20.3544 7.25255 20.7782C7.26159 20.9194 7.2887 21.0519 7.3339 21.1931C7.38813 21.3785 7.46044 21.5462 7.55082 21.7052C7.6412 21.8641 7.74967 22.0053 7.8762 22.1377C8.12928 22.4026 8.43659 22.6145 8.78909 22.7998C8.48178 23.1265 8.29197 23.4796 8.21063 23.8504C8.12928 24.2212 8.16544 24.6096 8.31909 25.0245C8.43659 25.3512 8.6264 25.5807 8.85236 25.7573C9.07832 25.9338 9.34947 26.0486 9.62967 26.1457C9.81947 26.2075 10.0093 26.2693 10.2081 26.3311C10.1087 26.5341 10.0364 26.7372 9.9912 26.9402C9.97313 27.0462 9.95505 27.1433 9.94601 27.2492C9.93697 27.3552 9.93697 27.4523 9.94601 27.5582C9.98217 27.9643 10.1449 28.3616 10.4431 28.7235C10.6149 28.9354 10.8408 29.0943 11.0939 29.1738C11.2204 29.2179 11.347 29.2356 11.4826 29.2444C11.6181 29.2532 11.7356 29.2267 11.8712 29.1914ZM14.4381 26.3841C14.7183 26.3576 14.6731 26.5518 14.6641 26.7284C13.8145 26.8078 12.9649 26.8873 12.1152 26.9667C12.0701 26.5871 12.0701 26.6136 12.4045 26.5871C13.0914 26.5253 13.7602 26.4459 14.4381 26.3841ZM15.6764 17.141C16.2549 17.7501 16.8424 18.3505 17.4208 18.9596C17.2039 19.2333 17.2039 19.2244 16.9689 18.9773C16.5351 18.527 16.0922 18.0856 15.6583 17.6442C15.3872 17.3794 15.3872 17.3882 15.6764 17.141ZM14.1037 18.1916C14.2302 18.0856 14.3026 18.1474 14.402 18.2533C14.6731 18.5447 14.9714 18.8095 15.2516 19.092C15.5137 19.3569 15.7668 19.6394 16.0199 19.913C15.812 20.1691 15.812 20.1691 15.586 19.9395C15.107 19.454 14.6279 18.9684 14.1489 18.4829C14.0585 18.3946 13.9591 18.3151 14.1037 18.1916ZM12.7751 19.2421C13.2722 19.6482 13.7874 20.0455 14.2935 20.4427C14.3749 20.5045 14.4472 20.5752 14.5556 20.6546C14.4652 20.7341 14.3929 20.7959 14.2935 20.8841C13.6337 20.3633 12.9739 19.8424 12.3141 19.3216C12.4949 19.0214 12.5129 19.0214 12.7751 19.2421ZM9.13255 20.6281C9.17774 20.5134 9.2139 20.4162 9.25909 20.3015C10.0183 20.5487 10.7595 20.787 11.5006 21.0254C11.7718 21.1137 11.6272 21.2726 11.582 21.4315C10.7776 21.1578 9.95505 20.893 9.13255 20.6281ZM10.6058 23.5414C10.6058 23.4178 10.6058 23.3119 10.6058 23.2059C11.4464 23.2059 12.296 23.2059 13.1727 23.2059C13.1637 23.356 13.1637 23.4443 13.1547 23.5414C12.296 23.5414 11.4554 23.5414 10.6058 23.5414ZM11.7627 24.848C12.5039 24.8568 13.2451 24.848 13.9862 24.848C14.0676 25.1834 14.0404 25.2188 13.7331 25.2188C12.9829 25.2188 12.2327 25.2188 11.4735 25.2188C11.4012 24.9274 11.5097 24.848 11.7627 24.848Z" fill="white"/>
<path d="M39.9537 18.913C39.7187 18.7188 39.4295 18.5775 39.1041 18.4804C38.9414 18.4363 38.7606 18.401 38.5708 18.3833C38.4985 18.3745 38.4262 18.3745 38.3539 18.3568C38.2996 18.348 38.2545 18.3392 38.2093 18.3215C38.1189 18.2862 38.0375 18.2244 37.9743 18.1273C37.9381 18.0743 37.911 18.0214 37.8929 17.9507C37.8116 17.7036 37.676 17.4828 37.5133 17.2975C37.3777 17.1474 37.2241 17.0238 37.0523 16.9267C36.9077 16.8472 36.7541 16.7678 36.5914 16.7236C36.4739 16.6883 36.3473 16.6707 36.2208 16.6618C36.0671 16.653 35.9045 16.6618 35.7418 16.6883C35.6333 16.706 35.5339 16.7236 35.4254 16.7501C35.091 16.8472 34.7656 16.9532 34.4402 17.0503C34.4131 16.8649 34.386 16.6795 34.3498 16.5029C34.3408 16.4411 34.3318 16.3793 34.3137 16.3264C34.1148 15.6554 33.6087 15.2493 32.9941 15.0286C32.7862 14.958 32.5783 14.905 32.3523 14.8697C32.3071 14.8609 32.262 14.8521 32.2168 14.8432C32.1264 14.8167 32.027 14.7991 31.9366 14.8256C31.8914 14.8432 31.8462 14.8697 31.801 14.9139C31.7016 15.0198 31.575 15.1169 31.4756 15.2317C30.9604 15.8232 30.4452 16.4146 29.93 17.0061C29.451 17.5446 28.972 18.0832 28.502 18.604C28.7189 18.7718 28.9268 18.9307 29.1346 19.0984C29.3425 19.2573 29.5504 19.425 29.7402 19.6016C29.8939 19.7429 30.0295 19.9018 30.165 20.0607C30.4543 20.3608 30.7073 20.6875 30.9423 21.0406C31.0598 21.2172 31.1864 21.3761 31.2858 21.5615C31.3129 21.6056 31.3491 21.6497 31.3943 21.685C31.4395 21.7204 31.4846 21.7468 31.5298 21.7468C32.036 21.7822 32.5421 21.7822 33.0483 21.8086C33.0573 21.8086 33.0754 21.8086 33.0845 21.8086C33.5183 21.8263 33.9431 21.8528 34.4583 21.8881C34.3679 21.9587 34.2956 22.0205 34.2323 22.0735C34.1691 22.1265 34.1058 22.1794 34.0516 22.2236C33.5183 22.6561 32.9941 23.0799 32.4698 23.5125C32.3975 23.5743 32.3162 23.6272 32.262 23.6979C32.2077 23.7685 32.1716 23.8568 32.1987 23.9804C32.262 24.2893 32.3343 24.6072 32.3523 24.9161C32.3614 25.1545 32.3704 25.4017 32.3704 25.6401C32.3704 25.9049 32.3523 26.1786 32.3252 26.4434C32.28 26.8937 32.1987 27.3351 32.0631 27.7676C32.045 27.8383 32.027 27.8912 32.027 27.9354C32.0179 28.0325 32.0721 28.0855 32.1716 28.1296C32.2077 28.1384 32.2348 28.1561 32.28 28.1649C33.5364 28.518 34.7927 28.8888 36.0491 29.2596C36.257 29.3214 36.4558 29.3744 36.6546 29.3655C36.8535 29.3655 37.0433 29.3037 37.2241 29.1448C37.3596 29.0212 37.5043 28.8976 37.6218 28.7564C37.7121 28.6505 37.7935 28.5445 37.8658 28.4297C37.9381 28.315 37.9923 28.2002 38.0375 28.0766C38.1279 27.8383 38.1641 27.5734 38.155 27.3086C38.146 27.1408 38.1098 26.9731 38.0646 26.8142C38.0195 26.6553 37.9652 26.4787 37.9291 26.3022C38.3539 26.2404 38.7516 26.1256 39.086 25.9226C39.4204 25.7195 39.6916 25.4282 39.8633 25.0221C39.9537 24.819 39.9989 24.616 40.0079 24.4218C40.0441 23.8391 39.7729 23.3006 39.33 22.8062C39.4204 22.7533 39.5018 22.7091 39.5741 22.6561C39.9718 22.3825 40.2971 22.0558 40.505 21.6586C40.6135 21.4555 40.6948 21.2348 40.722 20.9965C40.74 20.8287 40.74 20.6698 40.731 20.5109C40.6948 20.0342 40.5412 19.6016 40.261 19.2573C40.1796 19.1161 40.0712 19.0101 39.9537 18.913ZM30.8971 19.4339C30.8068 19.3809 30.7254 19.3279 30.5989 19.2485C31.1412 18.5775 31.6745 17.9243 32.2168 17.2533C32.3071 17.3151 32.4066 17.3857 32.515 17.4564C31.9727 18.1185 31.4395 18.7806 30.8971 19.4339ZM32.262 20.3785C32.1083 20.2196 32.036 20.1489 32.027 20.1401C32.5964 19.5133 33.1658 18.8954 33.7623 18.2421C33.8979 18.3921 33.9612 18.4716 34.0245 18.5422C34.0064 18.5246 33.9793 18.5069 33.9612 18.4893C33.4008 19.1161 32.8495 19.734 32.262 20.3785ZM33.7171 20.9258C33.5183 20.7404 33.5093 20.6257 33.7352 20.4756C34.3679 20.0607 34.9825 19.6193 35.6062 19.1955C35.6695 19.275 35.7418 19.3544 35.8231 19.4692C35.1091 19.9547 34.4131 20.4403 33.7171 20.9258ZM35.7689 27.6882C34.9283 27.4675 34.1058 27.2468 33.2562 27.0261C33.3014 26.8937 33.3375 26.8054 33.3737 26.6994C34.2052 26.9201 35.0187 27.132 35.8502 27.3439C35.8231 27.4587 35.796 27.5734 35.7689 27.6882ZM36.4196 26.055C35.5791 25.8872 34.7385 25.7195 33.8889 25.5518C33.925 25.3576 33.8798 25.1722 34.2323 25.2604C34.9735 25.4458 35.7418 25.5694 36.501 25.7195C36.4739 25.8254 36.4468 25.9314 36.4196 26.055ZM37.1698 24.1128C36.3835 24.0598 35.5971 24.0068 34.7656 23.9539C34.8018 23.8215 34.8289 23.7155 34.847 23.6096C35.1904 23.6361 35.5248 23.6802 35.8593 23.6979C36.2931 23.7243 36.727 23.7332 37.1608 23.7508C37.2964 23.7508 37.4139 23.7508 37.4139 23.9362C37.4139 24.1128 37.3054 24.1216 37.1698 24.1128ZM36.3202 21.4732C36.1846 21.1377 36.1846 21.1289 36.5371 21.0229C37.1427 20.8375 37.7573 20.6786 38.3629 20.4668C38.6341 20.3697 38.7245 20.4226 38.7516 20.7228C37.9381 20.97 37.1337 21.2172 36.3202 21.4732Z" fill="white"/>
<path d="M31.1581 25.5705C31.1672 23.7342 30.5164 22.0922 29.2058 20.7591C27.7777 19.2937 26.0152 18.5256 23.3399 18.5433C19.8962 18.508 16.8231 21.7037 16.7237 25.3145C16.6062 29.5078 19.9595 32.5094 23.7556 32.6065C25.6537 32.6595 27.3349 32.0415 28.7539 30.7967C30.3447 29.4107 31.14 27.6363 31.1581 25.5705ZM19.2364 23.4694C19.8329 23.1957 20.7458 23.2752 21.2158 23.8048C21.4508 24.0697 21.5231 24.3698 21.5593 24.6523C21.5502 25.4292 20.9899 25.9501 20.3572 26.0648C19.7787 26.1708 19.2725 26.056 18.8387 25.6411C18.1699 24.9966 18.3777 23.8578 19.2364 23.4694ZM22.445 27.1331C21.026 27.4332 19.5799 27.3714 18.1247 27.3626C18.1247 27.1595 18.1247 26.983 18.1247 26.7976C19.5708 26.7623 21.0079 26.8859 22.445 26.5769C22.445 26.7711 22.445 26.9477 22.445 27.1331ZM23.2585 28.8369C23.1049 28.8369 22.9783 28.8369 22.8427 28.8369C22.7975 28.8369 22.7614 28.8281 22.6981 28.8281C22.6981 26.7976 22.6981 24.7848 22.6981 22.7631C22.8879 22.7631 23.0597 22.7631 23.2585 22.7631C23.2585 24.7759 23.2585 26.7888 23.2585 28.8369ZM25.1656 23.0898C25.8435 23.3105 26.5395 23.2752 27.2445 23.2663C27.2445 23.4341 27.2445 23.593 27.2445 23.7607C26.4491 23.9461 25.4549 23.8402 24.9939 23.5047C25.0481 23.3723 25.1114 23.231 25.1656 23.0898ZM28.5822 27.3979C27.1541 27.7334 25.6899 27.6009 24.1895 27.6363C24.1895 27.5303 24.1895 27.442 24.1895 27.3449C24.1895 27.2566 24.1895 27.1772 24.1895 27.0624C24.7679 27.0624 25.3283 27.0624 25.8797 27.0624C25.952 26.8241 25.8977 26.7446 25.6537 26.6563C24.8674 26.3915 24.551 25.5352 25.1295 24.7495C24.8493 24.7495 24.5872 24.7495 24.3341 24.7495C24.316 24.7141 24.2979 24.6965 24.2979 24.6877C24.2799 24.052 24.2708 24.1756 24.786 24.1756C25.7531 24.1668 26.7202 24.1756 27.6874 24.1756C27.8862 24.1756 28.1393 24.0873 28.1122 24.4581C28.085 24.7495 28.1031 24.7495 27.7054 24.7495C27.2354 24.7495 26.7745 24.7406 26.3045 24.7495C25.8525 24.7671 25.4458 25.0584 25.4639 25.5263C25.4729 25.8177 25.5904 26.0031 25.8345 26.1266C26.1327 26.2679 26.422 26.2502 26.675 26.056C27.0004 25.8088 27.0095 25.544 26.7112 25.1644C26.7112 25.1555 26.7112 25.1467 26.7202 25.1379C26.8649 25.032 27.0004 24.9348 27.145 24.8289C27.2716 24.9966 27.4433 25.1467 27.5066 25.3409C27.6874 25.8795 27.3349 26.4268 26.8287 26.6298C26.7474 26.6652 26.657 26.674 26.5666 26.7005C26.5666 26.8064 26.5666 26.9123 26.5666 27.0889C27.2445 27.0183 27.9043 26.9565 28.5822 26.8859C28.5822 27.0271 28.5822 27.2037 28.5822 27.3979ZM28.772 22.7631C28.9799 22.7631 29.1697 22.7631 29.3775 22.7631C29.3775 24.7936 29.3775 26.8241 29.3775 28.8457C29.1606 28.8457 28.9708 28.8457 28.772 28.8457C28.772 26.8064 28.772 24.7936 28.772 22.7631Z" fill="white"/>
<path d="M40.7483 18.5447C40.2421 18.0238 39.5823 17.7148 38.7237 17.6089C38.4073 16.885 37.8921 16.3641 37.1781 16.064C36.5454 15.7903 35.8675 15.7726 35.1083 15.9933C34.575 14.8015 33.5808 14.1659 32.1256 14.0864C31.9358 13.4596 31.6465 12.9829 31.2488 12.6475C30.7156 12.1884 30.1913 11.9147 29.631 11.8088C29.6129 11.5793 29.5948 11.3497 29.5587 11.129C29.3779 9.99016 28.1758 8.99258 27.0098 8.99258C26.9917 8.99258 26.9737 8.99258 26.9556 8.99258C26.9013 8.99258 26.8833 8.99258 26.811 8.87781C26.3681 8.09211 25.7173 7.56242 24.8496 7.31523C24.7231 7.25343 24.5875 7.21812 24.4519 7.19163L23.4396 7.13867L23.0329 7.25343C22.816 7.32406 22.6081 7.39468 22.4092 7.50062C21.8127 7.8096 21.3427 8.30398 20.9721 9.0014C20.7823 9.03672 20.5925 9.0632 20.4027 9.08086C18.9746 9.23094 18.1883 10.4846 18.1521 11.6499C18.1521 11.7558 18.1521 11.8618 18.1612 11.9677C17.6008 12.0736 16.9862 12.2502 16.5071 12.7534C16.1727 13.0977 15.7569 13.6186 15.6485 14.316C14.2927 14.2718 13.3256 14.775 12.7471 15.8344C12.5483 15.7903 12.3675 15.755 12.1867 15.755C11.0298 15.7197 10.0898 16.2405 9.52942 17.2204C9.35769 17.5118 9.28538 17.5294 9.12269 17.5294L8.96904 17.5471C7.83923 17.7854 7.09808 18.3151 6.70942 19.1715C6.61904 19.3657 6.55577 19.5776 6.48346 19.7894L6.40212 20.0454L6.375 20.9106L6.47442 21.2726C6.52865 21.4403 6.59192 21.608 6.66423 21.7758C6.87212 22.2437 7.17038 22.6497 7.57712 23.0029C7.315 23.6208 7.14327 24.3801 7.47769 25.2364C7.80308 26.0662 8.44481 26.4988 9.09558 26.7813C8.90577 28.0702 9.37577 29.1031 10.4694 29.7829L10.4604 29.8359C10.3971 30.1095 10.3338 30.3744 10.2615 30.6392C10.1531 31.0806 10.2796 31.4602 10.3881 31.7692L10.4242 31.8663C10.5598 32.2813 10.7948 32.6344 11.1202 32.9345C10.831 33.3318 10.5056 33.888 10.5327 34.5677C10.5869 35.8037 11.1654 36.6335 12.2952 37.1103V37.1985C12.2952 37.6664 12.2952 38.1431 12.476 38.6463C12.8646 39.741 14.0938 40.6062 15.2598 40.615H15.2688C15.9015 40.615 16.5071 40.4738 17.0585 40.2001L16.8867 39.8646L16.8958 39.8558L17.185 40.2001C18.2425 40.9417 19.6254 40.977 20.5383 40.2884C20.8094 40.0853 21.0444 39.847 21.2704 39.6086C21.3156 39.5645 21.3608 39.5203 21.3969 39.4762C21.4512 39.485 21.5144 39.4938 21.5687 39.5027C21.9031 39.5468 22.2737 39.5998 22.6623 39.5645C23.0329 39.5292 23.3854 39.4144 23.7288 39.2996C23.8012 39.2731 23.8735 39.2555 23.9367 39.229C24.8135 39.8558 25.8348 40.0235 27.0279 39.7322C27.4617 40.2884 28.0131 40.6415 28.6638 40.7828L28.8627 40.8269L29.5767 40.8622L29.64 40.8446C29.7123 40.8269 29.7937 40.8092 29.866 40.7916C30.0648 40.7474 30.2998 40.6945 30.5167 40.5709C30.7788 40.4296 31.0229 40.2619 31.2669 40.0853L31.3573 40.0235L31.4929 40.0677C31.7731 40.1648 32.0533 40.2707 32.3515 40.359C33.0294 40.5621 33.626 40.3325 34.105 40.1471C35.1444 39.7499 35.8042 38.9906 36.0031 37.9666C36.0663 37.6664 36.0573 37.3574 36.0483 37.0485C36.8708 36.5894 37.3227 36.0067 37.4221 35.2828C37.5577 34.3029 37.3769 33.5172 36.8346 32.8639C36.9883 32.6697 37.151 32.4755 37.2775 32.2636C37.7113 31.5662 37.8198 30.7716 37.5938 29.88C38.1633 29.5004 38.6965 29.0502 38.8863 28.2998C38.9677 27.9908 38.9767 27.6818 38.9858 27.3816L38.9948 27.0815C39.0038 27.002 39.0038 26.9137 39.0038 26.8343C39.7721 26.6312 40.3415 26.0662 40.685 25.1658C40.9742 24.4154 40.92 23.665 40.5313 22.9411C41.0646 22.5173 41.4171 21.9258 41.616 21.149L41.625 20.3897L41.5617 20.169C41.4442 19.5246 41.1731 18.9861 40.7483 18.5447ZM16.5523 14.1836C16.6969 13.8569 16.8687 13.5479 17.1037 13.3096C17.3387 13.0712 17.6279 12.8946 18.0075 12.824C18.1883 12.7887 18.3781 12.7887 18.5679 12.7887C18.7577 12.7887 18.9565 12.8064 19.1463 12.8064C19.1102 12.4356 19.0379 12.056 19.0379 11.6675C19.0288 11.0672 19.4446 10.1138 20.2671 9.92836C20.4388 9.89305 20.6196 9.87539 20.8004 9.87539C20.9812 9.87539 21.1619 9.87539 21.3427 9.86656C21.3788 9.86656 21.424 9.87539 21.4692 9.88422C21.5144 9.89305 21.5415 9.89305 21.5958 9.90188C21.659 9.63703 21.7494 9.37219 21.8669 9.14265C21.9935 8.90429 22.1471 8.69242 22.364 8.51586C22.8883 8.07445 23.4758 7.88023 24.1898 7.98617C24.4881 8.03031 24.7683 8.10093 25.0213 8.2157C25.2744 8.33047 25.5004 8.48937 25.6902 8.71008C25.8077 8.8425 25.8981 9.0014 25.9885 9.16031C26.0788 9.31922 26.1512 9.48695 26.2325 9.64586C26.2958 9.77828 26.2867 9.82242 26.4675 9.80477C27.0008 9.73414 27.5069 9.83125 27.9137 10.0873C28.1215 10.2109 28.2933 10.3786 28.4379 10.5728C28.5825 10.7759 28.6819 11.0054 28.7452 11.2791C28.7813 11.4203 28.7813 11.5793 28.7723 11.7293C28.7633 11.8794 28.7542 12.0383 28.7452 12.1884C28.7452 12.2855 28.7181 12.3914 28.709 12.4179C29.1881 12.5503 29.649 12.621 30.0738 12.7975C30.2365 12.8593 30.3721 12.9476 30.5077 13.0447C30.8331 13.2831 31.05 13.6097 31.1946 13.9982C31.2217 14.0776 31.2579 14.1482 31.285 14.2277C31.3121 14.316 31.3212 14.4131 31.3212 14.4925C31.3212 14.5808 31.3121 14.6603 31.285 14.7486C31.2398 14.9163 31.1404 15.0664 31.0048 15.2164C30.1823 16.0816 29.3869 16.9644 28.5825 17.8384C28.4198 18.015 28.2571 18.2004 28.0854 18.4034C27.8504 18.271 27.6063 18.1474 27.3623 18.0415C26.6663 17.7413 25.9433 17.5559 25.2021 17.4235C25.1569 17.4147 25.1117 17.4058 25.0756 17.397C25.0394 17.3882 24.9942 17.3705 24.9581 17.3352C24.9219 17.2999 24.8858 17.2646 24.8767 17.2293C24.8135 17.0439 24.7502 16.8673 24.6869 16.6819C24.4971 16.1434 24.3073 15.6049 24.1265 15.0752C24.1085 15.0311 24.0904 14.9869 24.0633 14.9251C24.0542 14.9075 24.0452 14.8898 24.0362 14.8633C23.8915 15.1811 23.756 15.4725 23.6204 15.7638C23.5752 15.8609 23.53 15.958 23.4848 16.0551C23.304 16.4612 23.1142 16.8673 22.9425 17.2822C22.9154 17.344 22.8792 17.3882 22.834 17.4235C22.7888 17.4588 22.7346 17.4765 22.6804 17.4853C22.581 17.5029 22.4815 17.4941 22.3912 17.5118C21.4512 17.6707 20.5835 17.9973 19.77 18.4652C19.7338 18.4829 19.6887 18.5005 19.6344 18.527C18.9023 17.6972 18.1792 16.8585 17.4471 16.0286C17.2212 15.7726 17.0042 15.5078 16.7692 15.2694C16.6156 15.1105 16.5252 14.9428 16.4981 14.7662C16.4348 14.5632 16.471 14.3778 16.5523 14.1836ZM11.084 29.1737C10.84 29.0943 10.614 28.9354 10.4333 28.7235C10.135 28.3527 9.97231 27.9643 9.93615 27.5582C9.92712 27.4611 9.92712 27.3551 9.93615 27.2492C9.94519 27.1433 9.95423 27.0462 9.98135 26.9402C10.0265 26.7372 10.0988 26.5341 10.1983 26.3311C10.0085 26.2693 9.80962 26.2163 9.61981 26.1457C9.33962 26.0486 9.06846 25.925 8.8425 25.7573C8.61654 25.5895 8.42673 25.3512 8.30923 25.0245C8.15558 24.6096 8.12846 24.2123 8.20077 23.8504C8.27308 23.4884 8.47192 23.1353 8.77923 22.7998C8.43577 22.6144 8.11942 22.3937 7.86635 22.1377C7.74885 22.0053 7.64038 21.864 7.55 21.7051C7.45962 21.5462 7.38731 21.3785 7.33308 21.1931C7.29692 21.0519 7.26981 20.9194 7.25173 20.7782C7.21558 20.3633 7.29692 19.9483 7.47769 19.5511C7.53192 19.4275 7.60423 19.3127 7.67654 19.2068C7.82115 18.9949 8.00192 18.8183 8.20981 18.6859C8.41769 18.5535 8.64365 18.4564 8.88769 18.3946C9.01423 18.3681 9.14077 18.3504 9.26731 18.3416C9.52942 18.3328 9.80962 18.3593 10.0898 18.4387C10.1169 17.8649 10.3248 17.4058 10.7225 17.0704C10.8581 16.9556 11.0027 16.8585 11.1835 16.7702C11.3552 16.6819 11.5269 16.6378 11.6987 16.6113C12.2138 16.5318 12.729 16.6819 13.2442 16.8232C13.3527 16.3465 13.5967 15.9492 13.9402 15.649C14.0577 15.5431 14.1842 15.4548 14.3198 15.3754C14.4915 15.2694 14.6633 15.1988 14.835 15.1458C15.1785 15.0399 15.5219 15.0399 15.8202 15.1635C15.9738 15.2253 16.1185 15.3136 16.245 15.4283C16.6427 15.7903 16.9771 16.2229 17.3387 16.629C17.7092 17.0527 18.0798 17.4853 18.4504 17.9179C18.6944 18.1915 18.9385 18.4652 19.1735 18.7301C18.7667 19.092 18.36 19.4363 17.9623 19.7983C17.9262 19.8336 17.881 19.8689 17.8448 19.8954C17.5827 20.1337 17.3567 20.3986 17.1398 20.6811C16.9319 20.9636 16.7421 21.2549 16.5704 21.5639C16.489 21.7051 16.4077 21.7846 16.236 21.7581C16.1998 21.7493 16.1637 21.7581 16.1275 21.7581C15.2779 21.7581 14.4373 21.7581 13.5877 21.7581C13.5787 21.7758 13.5787 21.7934 13.5696 21.8111C13.5696 21.8199 13.5606 21.8287 13.5606 21.8376C13.6781 21.9435 13.7956 22.0406 13.904 22.1465C13.9673 22.1995 14.0215 22.2525 14.0848 22.3055C14.1933 22.3937 14.3017 22.4908 14.4102 22.5791C14.7356 22.8528 15.061 23.1353 15.4044 23.3825C15.5762 23.5061 15.6485 23.6385 15.6665 23.7886C15.6756 23.8592 15.6665 23.9387 15.6575 24.0093C15.6485 24.0887 15.6304 24.1594 15.6213 24.2388C15.5852 24.4419 15.5581 24.6537 15.54 24.8568C15.5038 25.2364 15.5038 25.6248 15.531 26.0044C15.54 26.1987 15.5581 26.4017 15.5852 26.5959C15.6123 26.8343 15.6575 27.0726 15.7027 27.3198C15.7479 27.5582 15.8021 27.8054 15.8473 28.0614C15.5671 28.1409 15.2779 28.2291 14.9796 28.3174C14.6813 28.4057 14.3831 28.494 14.0848 28.5734C13.5063 28.7323 12.9279 28.8912 12.3585 29.0502C12.1958 29.0943 12.0331 29.1384 11.8704 29.1826C11.7348 29.2179 11.5992 29.2355 11.4727 29.2355C11.3462 29.2355 11.2106 29.2179 11.084 29.1737ZM23.7017 38.0813C23.7017 38.152 23.6837 38.2226 23.6656 38.2844C23.6565 38.3197 23.6385 38.355 23.6204 38.3815C23.5752 38.4521 23.5029 38.5139 23.4035 38.5581C23.2588 38.6199 23.1142 38.664 22.9696 38.7081C22.8521 38.7435 22.7437 38.7699 22.6262 38.7876C22.4544 38.8141 22.2827 38.8317 22.111 38.8141C22.1019 38.8141 22.0838 38.8053 22.0748 38.8053C21.9392 38.7964 21.8127 38.7611 21.6771 38.717C21.5596 38.6817 21.4512 38.6287 21.3337 38.5669C21.2704 38.5316 21.2162 38.4963 21.1529 38.4521C21.0896 38.408 21.0263 38.3638 20.954 38.3197C20.8908 38.6728 20.7462 38.9553 20.5563 39.1937C20.3665 39.4321 20.1135 39.6174 19.8333 39.7852C19.5983 39.9176 19.2277 39.9882 18.8571 39.9706C18.6673 39.9617 18.4775 39.9353 18.3058 39.8823C18.125 39.8293 17.9623 39.7499 17.8358 39.6439C17.664 39.5027 17.4923 39.3438 17.3567 39.1672C17.3296 39.1319 17.3115 39.1142 17.2935 39.0966C17.2302 39.0524 17.185 39.0789 17.1127 39.1407C17.0223 39.229 16.9229 39.3173 16.8235 39.3879C16.5252 39.6086 16.1908 39.741 15.8202 39.7852C15.6575 39.8028 15.4858 39.8117 15.314 39.8028C15.061 39.7852 14.8079 39.7234 14.5638 39.6263C14.3288 39.5292 14.1029 39.3879 13.904 39.2202C13.5154 38.8847 13.2352 38.4345 13.1629 37.9224C13.1448 37.7988 13.1448 37.6841 13.1448 37.5693C13.1448 37.4545 13.1629 37.3398 13.181 37.225C13.199 37.1103 13.2262 37.0043 13.2533 36.8895C13.2804 36.7748 13.3165 36.6688 13.3527 36.5541C12.711 36.457 12.1596 36.2451 11.7981 35.7684C11.7619 35.7154 11.7258 35.6624 11.6987 35.6095C11.6173 35.4682 11.536 35.3093 11.4908 35.1239C11.4275 34.8856 11.4094 34.6649 11.4275 34.4618C11.4546 34.1528 11.5721 33.8791 11.7258 33.6143C11.8794 33.3495 12.0873 33.1111 12.2952 32.8639C12.0783 32.6785 11.8523 32.502 11.6444 32.3077C11.3823 32.0694 11.2467 31.7957 11.1744 31.5044C11.1112 31.213 11.1112 30.9041 11.1563 30.5863C11.1654 30.5333 11.1835 30.4891 11.1925 30.4362C11.2287 30.3302 11.2648 30.2243 11.2829 30.1184C11.301 30.0124 11.3371 29.933 11.3823 29.8623C11.4727 29.7211 11.6173 29.6416 11.78 29.5887C11.8613 29.5622 11.9517 29.5357 12.0421 29.518C12.2952 29.4651 12.5392 29.4033 12.7923 29.3327C13.0454 29.262 13.2894 29.2002 13.5425 29.1296C14.3288 28.9266 15.1152 28.7235 15.8925 28.494C15.9738 28.4675 16.019 28.4763 16.0552 28.494C16.0913 28.5116 16.1094 28.5558 16.1275 28.5999C16.48 29.5357 17.0042 30.3567 17.7092 31.0718C17.9623 31.3278 18.2154 31.575 18.4775 31.8222C18.5046 31.8398 18.5137 31.8663 18.5227 31.884C18.5408 31.9016 18.5588 31.9281 18.5679 31.9458C18.586 31.9899 18.586 32.0517 18.5588 32.1223C18.4504 32.5196 18.351 32.9169 18.2515 33.3141C18.1521 33.7202 18.0527 34.1263 17.9533 34.5413C18.2244 34.4 18.4775 34.2764 18.7306 34.144C18.8662 34.0734 19.0017 34.0027 19.1373 33.9409C19.6254 33.6849 20.1044 33.4113 20.5925 33.1641C20.6558 33.1288 20.7642 33.1552 20.8365 33.1906C21.2613 33.3671 21.6952 33.4995 22.1381 33.5966C22.581 33.6938 23.0329 33.7467 23.4938 33.7556C23.6565 33.7644 23.7108 33.8174 23.7108 33.9674C23.7017 35.3534 23.7017 36.7218 23.7017 38.0813ZM23.3492 33.5613C22.8521 33.5349 22.364 33.4554 21.885 33.3318C21.1619 33.1552 20.475 32.8727 19.8242 32.502C19.3904 32.2548 18.9837 31.9723 18.604 31.6545C18.2244 31.3366 17.8629 30.9835 17.5465 30.6039C17.3838 30.4097 17.2392 30.2155 17.0946 30.0036C16.6698 29.3856 16.3263 28.697 16.1004 27.9555C15.8654 27.2139 15.7479 26.4194 15.7479 25.5807C15.7388 25.0422 15.784 24.5125 15.8835 23.9916C15.9558 23.6385 16.0552 23.2942 16.1727 22.9587C16.3987 22.3054 16.715 21.6787 17.1127 21.1048C17.2663 20.8841 17.42 20.6722 17.5917 20.4692C17.9352 20.0631 18.3238 19.6923 18.7396 19.3568C19.1644 19.0214 19.6163 18.7212 20.1044 18.474C20.8365 18.0944 21.641 17.8208 22.4906 17.6707C23.06 17.5736 23.6475 17.5294 24.2621 17.5559C24.5694 17.5647 24.8677 17.6 25.166 17.6442C25.5546 17.706 25.9342 17.7943 26.3138 17.9002C26.7115 18.0238 27.1002 18.1739 27.4798 18.3504C27.7781 18.4917 28.0673 18.6506 28.3565 18.8272C28.6638 19.0214 28.9621 19.2244 29.2333 19.4451C29.64 19.7718 30.0106 20.1426 30.345 20.5486C30.6794 20.9547 30.9777 21.3962 31.2308 21.8729C31.4838 22.3496 31.6827 22.8528 31.8363 23.3913C32.0623 24.1947 32.1708 25.0687 32.1256 25.9956C32.1165 26.2516 32.0894 26.4988 32.0533 26.7372C31.99 27.1698 31.8906 27.5935 31.764 27.9996C31.6737 28.2821 31.5742 28.5558 31.4567 28.8206C31.1585 29.4739 30.7608 30.083 30.2727 30.648C30.11 30.8334 29.9383 31.0188 29.7485 31.2042C29.5315 31.4161 29.2965 31.6191 29.0706 31.8045C28.3746 32.3607 27.6244 32.7845 26.82 33.0758C26.5488 33.1729 26.2777 33.2524 26.0065 33.323C25.166 33.5437 24.2802 33.6143 23.3492 33.5613ZM36.7442 31.2484C36.699 31.5573 36.5996 31.8487 36.3737 32.1135C36.1567 32.3695 35.8675 32.5638 35.6235 32.7756C35.8585 33.1023 36.1115 33.4642 36.3556 33.8174C36.5544 34.0999 36.6267 34.4442 36.5996 34.7884C36.5635 35.3623 36.2562 35.9361 35.7862 36.2363C35.5963 36.3599 35.3975 36.4658 35.1896 36.5453C35.1173 36.5717 35.0812 36.5982 35.0721 36.6335C35.0631 36.6512 35.0631 36.6688 35.0721 36.6953C35.0812 36.7218 35.0812 36.7395 35.0992 36.7748C35.1535 36.9337 35.1896 37.0926 35.2077 37.2515C35.2258 37.4104 35.2167 37.5605 35.1987 37.7106C35.1806 37.8606 35.1354 38.0019 35.0812 38.1431C34.9185 38.5581 34.6112 38.92 34.2406 39.1849C33.9875 39.3614 33.7073 39.485 33.4181 39.5556C32.8667 39.6881 32.3606 39.6174 31.9087 39.3967C31.6917 39.2908 31.4748 39.1672 31.276 38.9818C31.2398 38.9465 31.1946 38.9112 31.1404 38.8671C30.9235 39.3349 30.6252 39.6616 30.2637 39.847C29.8931 40.0324 29.4592 40.0853 28.9712 40.0235C28.8085 40.0059 28.6819 39.9529 28.5463 39.8999C28.1577 39.7499 27.8685 39.4762 27.6515 39.1231C27.5521 38.9642 27.4708 38.7876 27.3985 38.611C27.29 38.6817 27.1906 38.7435 27.0731 38.8053C26.7387 38.973 26.3862 39.0789 26.0065 39.0878C25.5817 39.0878 25.166 38.9995 24.7954 38.8053C24.6688 38.7435 24.5513 38.664 24.4338 38.5845C24.3615 38.5316 24.2983 38.4521 24.2531 38.3727C24.2079 38.2844 24.1717 38.1961 24.1717 38.1078C24.1627 37.4281 24.1627 36.7395 24.1627 36.0597C24.1627 35.3799 24.1537 34.7002 24.1537 34.0204C24.1537 33.9586 24.1537 33.8968 24.1537 33.8262C24.4248 33.7997 24.6869 33.7644 24.949 33.7467C25.4733 33.7026 25.9885 33.6231 26.4765 33.4554C26.6392 33.4024 26.8019 33.3406 26.9556 33.2612C27.3623 33.067 27.6244 33.2347 27.9317 33.4113C28.3023 33.6231 28.6638 33.835 29.0435 34.0557C29.4231 34.2764 29.8027 34.4971 30.2094 34.7267C30.1733 34.5854 30.1371 34.4706 30.11 34.347C30.0919 34.2852 30.0738 34.2146 30.0558 34.1617C30.0287 34.0645 30.0015 33.9586 29.9744 33.8615C29.8027 33.2347 29.6129 32.6167 29.4502 31.9811C29.4321 31.9193 29.5044 31.8045 29.5587 31.7427C29.8479 31.4779 30.119 31.2042 30.3812 30.9129C30.6433 30.6216 30.8783 30.3126 31.0771 29.9859C31.2037 29.7829 31.3121 29.5798 31.4206 29.368C31.529 29.1561 31.6285 28.9442 31.7369 28.7323C31.7821 28.6352 31.8273 28.5646 31.8996 28.5293C31.9358 28.5116 31.9719 28.5028 32.0171 28.5028C32.0623 28.5028 32.1165 28.5116 32.1798 28.5293C33.2102 28.8383 34.2496 29.1296 35.28 29.4298C35.5873 29.518 35.8946 29.6063 36.2019 29.6946C36.2833 29.7211 36.3556 29.7476 36.4279 29.7829C36.5815 29.8535 36.69 29.9683 36.7533 30.1272C36.7713 30.189 36.7985 30.2508 36.7985 30.3214C36.7713 30.6216 36.7894 30.9482 36.7442 31.2484ZM40.7302 20.9812C40.7031 21.2284 40.6217 21.4403 40.5133 21.6433C40.3054 22.0406 39.98 22.3672 39.5823 22.6409C39.501 22.6939 39.4196 22.738 39.3383 22.791C39.7812 23.2854 40.0523 23.8239 40.0162 24.4065C40.0071 24.6008 39.9529 24.8038 39.8715 25.0069C39.6998 25.4218 39.4287 25.7043 39.0942 25.9073C38.7598 26.1104 38.3621 26.2251 37.9373 26.2869C37.9825 26.4635 38.0277 26.6312 38.0729 26.799C38.1181 26.9667 38.1542 27.1344 38.1633 27.2934C38.1813 27.567 38.1362 27.823 38.0458 28.0614C38.0006 28.185 37.9463 28.2998 37.874 28.4145C37.8017 28.5293 37.7294 28.6352 37.63 28.7412C37.5125 28.8824 37.3679 29.006 37.2323 29.1296C37.0515 29.2885 36.8617 29.3503 36.6629 29.3503C36.464 29.3503 36.2652 29.3062 36.0573 29.2444C34.801 28.8736 33.5446 28.5028 32.2883 28.1497C32.2431 28.1409 32.216 28.1232 32.1798 28.1144C32.0804 28.0702 32.0262 28.0261 32.0352 27.9202C32.0352 27.876 32.0533 27.823 32.0713 27.7524C32.2069 27.3198 32.2883 26.8696 32.3335 26.4282C32.3606 26.1633 32.3787 25.8985 32.3787 25.6248C32.3787 25.3865 32.3696 25.1481 32.3606 24.9009C32.3425 24.5831 32.2702 24.2741 32.2069 23.9651C32.1798 23.8415 32.216 23.7533 32.2702 23.6826C32.3244 23.612 32.4058 23.559 32.4781 23.4973C33.0023 23.0558 33.5356 22.6321 34.0598 22.2083C34.1231 22.1642 34.1773 22.1112 34.2406 22.0583C34.3038 22.0053 34.3762 21.9435 34.4665 21.8729C33.9513 21.8464 33.5175 21.8199 33.0927 21.7934C33.0837 21.7934 33.0656 21.7934 33.0565 21.7934C32.5504 21.7669 32.0442 21.7669 31.5381 21.7316C31.4929 21.7316 31.4477 21.7051 31.4025 21.6698C31.3573 21.6345 31.3212 21.5904 31.294 21.5462C31.1946 21.3608 31.0681 21.2019 30.9506 21.0254C30.7246 20.6811 30.4625 20.3544 30.1733 20.0454C30.0287 19.8954 29.9021 19.7276 29.7485 19.5864C29.5587 19.4098 29.3508 19.2509 29.1429 19.0832C28.935 18.9243 28.7181 18.7565 28.5102 18.5888C28.9802 18.0679 29.4592 17.5294 29.9383 16.9909C30.4535 16.3994 30.9687 15.8079 31.4838 15.2164C31.5833 15.1017 31.7008 15.0046 31.8092 14.8986C31.8544 14.8545 31.8996 14.828 31.9448 14.8104C32.0352 14.7839 32.1346 14.8015 32.225 14.828C32.2702 14.8368 32.3154 14.8545 32.3606 14.8545C32.5865 14.8898 32.7944 14.9428 33.0023 15.0134C33.6169 15.2341 34.114 15.6402 34.3219 16.3111C34.34 16.3729 34.349 16.4347 34.3581 16.4877C34.3942 16.6643 34.4213 16.8497 34.4485 17.035C34.7738 16.9379 35.0992 16.832 35.4337 16.7349C35.5421 16.6996 35.6415 16.6819 35.75 16.6731C35.9127 16.6466 36.0754 16.6378 36.229 16.6466C36.3556 16.6554 36.4821 16.6731 36.5996 16.7084C36.7623 16.7525 36.916 16.8232 37.0606 16.9115C37.2323 17.0086 37.395 17.1322 37.5215 17.2822C37.6842 17.4676 37.8108 17.6883 37.9012 17.9355C37.9283 18.0061 37.9554 18.0679 37.9825 18.1121C38.0458 18.2092 38.1271 18.271 38.2175 18.3063C38.2627 18.324 38.3079 18.3328 38.3621 18.3416C38.4254 18.3504 38.4977 18.3593 38.579 18.3681C38.7688 18.3858 38.9496 18.4122 39.1123 18.4652C39.4467 18.5535 39.7269 18.7036 39.9619 18.8978C40.0794 18.9949 40.1879 19.1008 40.2783 19.2156C40.5494 19.5599 40.7121 19.9925 40.7483 20.4692C40.7483 20.6458 40.7483 20.8135 40.7302 20.9812Z" fill="#9EA4AA"/>
<path d="M37.1608 23.7429C36.727 23.7252 36.2931 23.7164 35.8593 23.6899C35.5249 23.6723 35.1995 23.637 34.847 23.6016C34.8199 23.7076 34.7927 23.8135 34.7656 23.9459C35.5972 23.9989 36.3835 24.0519 37.1699 24.1048C37.3054 24.1137 37.4139 24.096 37.4139 23.9195C37.4139 23.7429 37.2964 23.7517 37.1608 23.7429Z" fill="#9EA4AA"/>
<path d="M32.2253 17.2559C31.683 17.9268 31.1497 18.5889 30.6074 19.251C30.734 19.3305 30.8153 19.3834 30.9057 19.4364C31.448 18.7743 31.9813 18.121 32.5236 17.4589C32.4061 17.3883 32.3157 17.3177 32.2253 17.2559Z" fill="#9EA4AA"/>
<path d="M33.8887 25.5539C34.7383 25.7216 35.5789 25.8894 36.4195 26.0571C36.4466 25.9335 36.4737 25.8276 36.5008 25.7128C35.7325 25.5627 34.9733 25.4391 34.2322 25.2538C33.8797 25.1743 33.9248 25.3509 33.8887 25.5539Z" fill="#9EA4AA"/>
<path d="M33.2559 27.0278C34.1055 27.2485 34.928 27.4692 35.7686 27.6899C35.7957 27.5663 35.8228 27.4516 35.8499 27.3456C35.0184 27.1249 34.2049 26.913 33.3734 26.7012C33.3372 26.8071 33.3011 26.9042 33.2559 27.0278Z" fill="#9EA4AA"/>
<path d="M34.0229 18.5443C33.9596 18.4648 33.8873 18.3942 33.7608 18.2441C33.1642 18.8974 32.6039 19.5154 32.0254 20.1422C32.0344 20.151 32.0977 20.2216 32.2604 20.3806C32.8389 19.7361 33.3992 19.1181 33.9506 18.4913C33.9777 18.509 34.0048 18.5266 34.0229 18.5443Z" fill="#9EA4AA"/>
<path d="M38.3615 20.4683C37.765 20.6802 37.1504 20.8391 36.5358 21.0245C36.1742 21.1304 36.1833 21.1393 36.3188 21.4747C37.1323 21.2187 37.9367 20.9715 38.7411 20.7155C38.7231 20.4242 38.6327 20.3712 38.3615 20.4683Z" fill="#9EA4AA"/>
<path d="M35.6048 19.1953C34.9902 19.619 34.3754 20.0604 33.7337 20.4754C33.4987 20.6254 33.5077 20.7402 33.7156 20.9256C34.4116 20.4401 35.1167 19.9545 35.8217 19.469C35.7313 19.3542 35.668 19.2747 35.6048 19.1953Z" fill="#9EA4AA"/>
<path d="M13.9843 24.8477C13.2431 24.8477 12.502 24.8565 11.7608 24.8477C11.5077 24.8477 11.3902 24.9271 11.4625 25.2184C12.2218 25.2184 12.972 25.2184 13.7221 25.2184C14.0475 25.2184 14.0656 25.1831 13.9843 24.8477Z" fill="#9EA4AA"/>
<path d="M14.5533 20.6536C14.4448 20.5653 14.3725 20.5035 14.2912 20.4417C13.785 20.0445 13.2789 19.6472 12.7727 19.2411C12.5106 19.0292 12.4925 19.0204 12.3027 19.3205C12.9625 19.8414 13.6223 20.3623 14.2821 20.8831C14.3816 20.7948 14.4539 20.7331 14.5533 20.6536Z" fill="#9EA4AA"/>
<path d="M13.1724 23.207C12.2957 23.207 11.4461 23.207 10.6055 23.207C10.6055 23.3129 10.6055 23.41 10.6055 23.5424C11.4551 23.5424 12.2957 23.5424 13.1634 23.5424C13.1634 23.4453 13.1634 23.357 13.1724 23.207Z" fill="#9EA4AA"/>
<path d="M16.9687 18.9847C17.2037 19.2319 17.2037 19.2407 17.4206 18.967C16.8422 18.3579 16.2547 17.7576 15.6762 17.1484C15.387 17.3868 15.387 17.3868 15.6581 17.6516C16.092 18.0842 16.5348 18.5345 16.9687 18.9847Z" fill="#9EA4AA"/>
<path d="M15.5851 19.9397C15.8111 20.1692 15.8111 20.1692 16.019 19.9132C15.7659 19.6395 15.5128 19.357 15.2507 19.0922C14.9705 18.8097 14.6722 18.5448 14.4011 18.2535C14.3017 18.1476 14.2384 18.0858 14.1028 18.1917C13.9582 18.3153 14.0486 18.3948 14.148 18.4919C14.627 18.9686 15.1061 19.4541 15.5851 19.9397Z" fill="#9EA4AA"/>
<path d="M11.5087 21.0247C10.7675 20.7863 10.0174 20.548 9.26717 20.3008C9.22198 20.4067 9.18583 20.5127 9.14062 20.6274C9.96314 20.8923 10.7766 21.1571 11.5991 21.422C11.6262 21.263 11.7708 21.1041 11.5087 21.0247Z" fill="#9EA4AA"/>
<path d="M12.1244 26.964C12.974 26.8845 13.8236 26.8051 14.6732 26.7256C14.6732 26.5491 14.7274 26.3548 14.4472 26.3813C13.7693 26.4519 13.1004 26.5314 12.4226 26.5844C12.0791 26.602 12.0702 26.5844 12.1244 26.964Z" fill="#9EA4AA"/>
<path d="M27.7145 17.1857C27.7687 17.1239 27.8411 17.0621 27.8862 16.9915C28.2749 16.4795 28.6545 15.9674 29.0432 15.4642C29.2691 15.1729 29.2782 15.1817 28.9799 14.9434C28.4647 15.6231 27.9586 16.3029 27.4434 16.9739C27.5609 17.0621 27.6332 17.1151 27.7145 17.1857Z" fill="#9EA4AA"/>
<path d="M20.8085 16.9634C20.2571 16.3454 19.6967 15.7186 19.1364 15.0918C19.0279 15.1889 18.9466 15.2507 18.8652 15.3213C19.3804 15.8952 19.8775 16.4602 20.3746 17.0163C20.5916 17.237 20.5916 17.237 20.8085 16.9634Z" fill="#9EA4AA"/>
<path d="M22.0386 16.0993C21.5686 15.3754 21.1167 14.678 20.6467 13.9629C20.5382 14.0423 20.4478 14.113 20.3574 14.1748C20.8274 14.8987 21.2793 15.5873 21.7403 16.2847C21.8397 16.2229 21.9392 16.1699 22.0386 16.0993Z" fill="#9EA4AA"/>
<path d="M27.7065 14.1204C27.5438 14.0321 27.4263 13.8644 27.2817 14.1293C26.9201 14.809 26.5495 15.48 26.1699 16.1774C26.2693 16.2303 26.3597 16.2745 26.4863 16.3451C26.893 15.5947 27.2997 14.862 27.7065 14.1204Z" fill="#9EA4AA"/>
<path d="M25.9341 12.4974C25.8076 12.471 25.7263 12.4445 25.5907 12.418C25.3918 13.2302 25.193 14.0335 24.9941 14.8634C25.1116 14.8899 25.2291 14.9164 25.3466 14.9428C25.5455 14.1042 25.7443 13.3008 25.9341 12.4974Z" fill="#9EA4AA"/>
<path d="M23.1142 14.6952C22.843 13.883 22.5809 13.0973 22.3188 12.3027C22.1832 12.3557 22.0928 12.391 21.9844 12.4263C22.2555 13.2385 22.5086 14.0242 22.7707 14.8188C22.9063 14.7746 23.0148 14.7305 23.1142 14.6952Z" fill="#9EA4AA"/>
<path d="M24.1174 10.166C24.0179 10.166 23.9275 10.166 23.8281 10.166C23.8281 11.0135 23.8281 11.8345 23.8281 12.6644C23.9366 12.6644 24.0179 12.6644 24.1174 12.6644C24.1174 11.8257 24.1174 10.9959 24.1174 10.166Z" fill="#9EA4AA"/>
<path d="M33.1917 30.5327C32.7489 30.4267 32.306 30.3208 31.845 30.2148C31.8179 30.3473 31.7908 30.4444 31.7637 30.5591C32.5862 30.7534 33.4087 30.9564 34.2312 31.1506C34.4029 30.8858 34.3939 30.8505 34.1046 30.771C33.8064 30.6916 33.4991 30.6121 33.1917 30.5327Z" fill="#9EA4AA"/>
<path d="M33.3548 35.0783C33.1649 34.937 32.9842 34.7869 32.7944 34.6456C32.3786 34.3366 31.9538 34.0276 31.529 33.7188C31.2578 33.9748 31.2669 33.9747 31.538 34.1601C31.6284 34.2219 31.7188 34.3014 31.8092 34.3632C32.3244 34.7428 32.8396 35.1223 33.3548 35.4931C33.6078 35.2547 33.6078 35.2548 33.3548 35.0783Z" fill="#9EA4AA"/>
<path d="M31.0684 35.9708C31.5564 36.6417 32.0445 37.3127 32.5416 38.0013C32.6501 37.9307 32.7405 37.8777 32.8489 37.8159C32.388 37.1803 31.927 36.5711 31.4932 35.9443C31.3214 35.6795 31.222 35.7854 31.0684 35.9708Z" fill="#9EA4AA"/>
<path d="M31.5391 32.2884C32.3435 32.6151 33.1389 32.9329 33.9524 33.2595C33.9975 33.1536 34.0337 33.0565 34.0789 32.9329C33.2654 32.6151 32.4791 32.2972 31.6927 31.9883C31.6385 32.0942 31.5933 32.1825 31.5391 32.2884Z" fill="#9EA4AA"/>
<path d="M28.8359 35.7583C29.0619 36.5705 29.2969 37.3738 29.5229 38.1949C29.6404 38.1507 29.7488 38.1154 29.8663 38.0713C29.6313 37.2502 29.4054 36.4557 29.1704 35.6523C29.0438 35.6877 28.9625 35.7141 28.8359 35.7583Z" fill="#9EA4AA"/>
<path d="M26.9102 34.8588C27.0096 35.6886 27.118 36.5096 27.2175 37.3571C27.344 37.3218 27.4615 37.2953 27.57 37.2688C27.4615 36.4302 27.3621 35.6003 27.2536 34.7793C27.118 34.8058 27.0277 34.8323 26.9102 34.8588Z" fill="#9EA4AA"/>
<path d="M25.2109 34.8481C25.3194 35.6162 25.4279 36.3754 25.5454 37.1434C25.6809 37.1346 25.7804 37.1258 25.8979 37.117C25.7894 36.3136 25.6809 35.5455 25.5634 34.7598C25.4369 34.7863 25.3284 34.8128 25.2109 34.8481Z" fill="#9EA4AA"/>
<path d="M16.1552 31.3535C15.4502 31.6625 14.7723 31.9627 14.0854 32.254C13.769 32.3864 13.76 32.3776 13.9317 32.6954C14.709 32.3599 15.4954 32.0245 16.2817 31.689C16.2365 31.5566 16.2004 31.4683 16.1552 31.3535Z" fill="#9EA4AA"/>
<path d="M16.2178 33.1992C15.4857 33.6495 14.7536 34.0997 14.0215 34.5499C14.0938 34.647 14.148 34.7353 14.2203 34.8413C14.9615 34.3822 15.6846 33.9408 16.4167 33.4905C16.3353 33.3846 16.2811 33.2963 16.2178 33.1992Z" fill="#9EA4AA"/>
<path d="M20.1582 36.977C20.2847 37.0211 20.3842 37.0564 20.5017 37.0917C20.827 36.306 21.1434 35.5291 21.4959 34.6816C21.3242 34.717 21.1163 34.6993 21.0892 34.7611C20.7638 35.4938 20.4655 36.2266 20.1582 36.977Z" fill="#9EA4AA"/>
<path d="M15.3691 37.9656C15.586 38.2305 15.595 38.2481 15.8029 38.0009C16.2819 37.4183 16.7429 36.8268 17.2219 36.2265C17.1225 36.1559 17.0321 36.0941 16.9327 36.0234C16.3904 36.6855 15.8843 37.33 15.3691 37.9656Z" fill="#9EA4AA"/>
<path d="M15.6657 29.9141C14.8883 30.232 14.111 30.5586 13.3066 30.8852C13.3608 31 13.4151 31.0971 13.4603 31.1942C14.1924 30.8941 14.9245 30.6116 15.6476 30.3114C15.8645 30.2143 15.8645 30.1348 15.6657 29.9141Z" fill="#9EA4AA"/>
<path d="M18.207 37.5245C18.3245 37.5775 18.4149 37.6216 18.5234 37.6746C18.9301 36.9419 19.3368 36.218 19.7436 35.4852C19.6351 35.4146 19.5447 35.3528 19.4453 35.291C19.0205 36.0502 18.6228 36.783 18.207 37.5245Z" fill="#9EA4AA"/>
<path d="M22.2465 34.7794C22.1833 35.1855 22.1019 35.5828 22.0386 35.9889C21.9844 36.3243 21.9573 36.6598 21.9121 37.0217C22.0386 37.0217 22.12 37.0217 22.2556 37.0217C22.3821 36.2096 22.5086 35.3974 22.6261 34.594C22.2917 34.4881 22.3008 34.4881 22.2465 34.7794Z" fill="#9EA4AA"/>
<path d="M31.3751 25.5972C31.3931 23.6551 30.6881 21.9336 29.2962 20.5387C27.832 19.0733 26.0424 18.314 23.4935 18.3405C19.7968 18.2875 16.6153 21.5893 16.5068 25.3147C16.3893 29.6582 19.8691 32.7304 23.7466 32.8275C25.7531 32.8805 27.5156 32.2184 28.9889 30.8941C30.5616 29.4728 31.357 27.6719 31.3751 25.5972ZM23.7556 32.6156C19.9595 32.5185 16.6062 29.5081 16.7237 25.3236C16.8231 21.7129 19.9053 18.5171 23.3399 18.5524C26.0153 18.5347 27.7778 19.3028 29.2058 20.7683C30.5164 22.1101 31.1672 23.7522 31.1581 25.5796C31.1401 27.6454 30.3447 29.4198 28.7539 30.8147C27.3349 32.0506 25.6537 32.6598 23.7556 32.6156Z" fill="#9EA4AA"/>
<path d="M26.5666 26.702C26.666 26.6755 26.7473 26.6579 26.8287 26.6314C27.3348 26.4284 27.6873 25.8722 27.5066 25.3425C27.4433 25.1571 27.2716 24.9982 27.145 24.8305C27.0004 24.9364 26.8648 25.0335 26.7202 25.1394C26.7112 25.1394 26.7202 25.1571 26.7112 25.1659C27.0095 25.5455 27.0004 25.8104 26.675 26.0576C26.4129 26.2518 26.1237 26.2783 25.8345 26.1282C25.5814 26.0046 25.4729 25.8192 25.4639 25.5279C25.4548 25.06 25.8525 24.7687 26.3045 24.751C26.7654 24.7334 27.2354 24.751 27.7054 24.751C28.1121 24.751 28.085 24.751 28.1121 24.4597C28.1393 24.0889 27.8862 24.1772 27.6873 24.1772C26.7202 24.1772 25.7531 24.1684 24.786 24.1772C24.2708 24.1772 24.2708 24.0624 24.2979 24.6892C24.2979 24.7069 24.316 24.7157 24.3341 24.751C24.5871 24.751 24.8493 24.751 25.1295 24.751C24.551 25.5367 24.8673 26.393 25.6537 26.6579C25.8977 26.7373 25.9429 26.8256 25.8796 27.064C25.3193 27.064 24.7679 27.064 24.1895 27.064C24.1895 27.1787 24.1895 27.267 24.1895 27.3465C24.1895 27.4348 24.1895 27.5319 24.1895 27.6378C25.6898 27.6113 27.1541 27.7349 28.5821 27.3995C28.5821 27.1964 28.5821 27.0287 28.5821 26.8874C27.9043 26.958 27.2445 27.0198 26.5666 27.0905C26.5666 26.9227 26.5666 26.808 26.5666 26.702Z" fill="#9EA4AA"/>
<path d="M20.3483 26.0559C20.981 25.9412 21.5414 25.4203 21.5504 24.6434C21.5143 24.3609 21.442 24.0608 21.207 23.7959C20.746 23.2663 19.8331 23.1868 19.2275 23.4605C18.3689 23.8489 18.161 24.9877 18.8208 25.6234C19.2637 26.0471 19.7698 26.1707 20.3483 26.0559ZM20.0048 23.8577C20.52 23.8666 20.8996 24.2197 20.9087 24.7052C20.9177 25.1466 20.4387 25.6234 19.9868 25.5351C19.5439 25.6234 19.0648 25.1466 19.0648 24.7052C19.0829 24.202 19.5077 23.8489 20.0048 23.8577Z" fill="#9EA4AA"/>
<path d="M29.3789 22.7637C29.1711 22.7637 28.9722 22.7637 28.7734 22.7637C28.7734 24.7941 28.7734 26.807 28.7734 28.8463C28.9812 28.8463 29.1711 28.8463 29.3789 28.8463C29.3789 26.8246 29.3789 24.7941 29.3789 22.7637Z" fill="#9EA4AA"/>
<path d="M22.6973 28.8286C22.7516 28.8286 22.7968 28.8374 22.842 28.8374C22.9775 28.8374 23.1041 28.8374 23.2577 28.8374C23.2577 26.7893 23.2577 24.7765 23.2577 22.7637C23.0589 22.7637 22.8871 22.7637 22.6973 22.7637C22.6973 24.7941 22.6973 26.807 22.6973 28.8286Z" fill="#9EA4AA"/>
<path d="M18.125 27.3716C19.5802 27.3716 21.0263 27.4334 22.4454 27.1421C22.4454 26.9567 22.4454 26.7801 22.4454 26.5859C21.0083 26.8949 19.5712 26.7713 18.125 26.8066C18.125 26.992 18.125 27.1597 18.125 27.3716Z" fill="#9EA4AA"/>
<path d="M27.2447 23.7608C27.2447 23.6019 27.2447 23.4341 27.2447 23.2664C26.5397 23.2752 25.8438 23.3105 25.1659 23.0898C25.1116 23.2223 25.0484 23.3635 24.9941 23.5048C25.4551 23.8402 26.4493 23.9462 27.2447 23.7608Z" fill="#9EA4AA"/>
</svg>
