<svg width="24" height="28" viewBox="0 0 24 28" fill="none" xmlns="http://www.w3.org/2000/svg">
<path d="M0 6C0 3.79086 1.79086 2 4 2H20C22.2091 2 24 3.79086 24 6V22C24 24.2091 22.2091 26 20 26H4C1.79086 26 0 24.2091 0 22V6Z" fill="#B30B00"/>
<path d="M3.4082 18V10.9297H6.41602C7.99805 10.9297 9.0332 11.9209 9.0332 13.4102C9.0332 14.9238 7.96875 15.876 6.35742 15.8711H5.26367V18H3.4082ZM5.26367 14.4258H5.98633C6.68457 14.4209 7.09473 14.0303 7.08984 13.4102C7.09473 12.7949 6.68457 12.4189 5.98633 12.4141H5.26367V14.4258ZM11.9512 18H9.26562V10.9297H11.9316C14.1094 10.9297 15.4668 12.2529 15.4668 14.4648C15.4668 16.6719 14.1094 18 11.9512 18ZM11.1211 16.418H11.8828C12.9717 16.418 13.5918 15.9541 13.5918 14.4648C13.5918 12.9707 12.9717 12.5117 11.834 12.5117H11.1211V16.418ZM15.875 18V10.9297H20.8066V12.4336H17.7305V13.7129H20.4941V15.2168H17.7305V18H15.875Z" fill="white"/>
</svg>
