<svg width="24" height="24" viewBox="0 0 24 24" fill="none" xmlns="http://www.w3.org/2000/svg">
<path d="M14.8398 14.4717C14.0398 15.2717 12.7398 15.2717 11.9498 14.4717L9.53976 12.0617C8.73976 11.2617 8.73976 9.96172 9.53976 9.17172C10.6198 8.09172 10.6198 6.33172 9.53976 5.25172L7.68976 3.40172C7.16976 2.88172 6.31976 2.88172 5.78976 3.40172L5.01977 4.17172C2.33977 6.85172 2.33977 11.2517 5.01977 13.9317L10.0798 18.9917C12.7598 21.6717 17.1598 21.6717 19.8398 18.9917L20.6098 18.2217C21.1298 17.7017 21.1298 16.8517 20.6098 16.3217L18.7598 14.4717C17.6698 13.3817 15.9198 13.3817 14.8398 14.4717Z" fill="#9EA4AA"/>
</svg>
