<svg width="48" height="48" viewBox="0 0 48 48" fill="none" xmlns="http://www.w3.org/2000/svg">
<rect width="48" height="48" rx="24" fill="white"/>
<path d="M24.5657 34.6045L24.6474 36.279L29.8554 36.0606L29.7885 34.457L24.5657 34.6045Z" fill="#221613"/>
<path d="M27.1211 30.5799C27.6857 30.5799 27.9476 30.9588 27.9476 31.4087C27.9476 31.8604 27.6616 32.2375 27.1211 32.2375C26.5769 32.2375 26.2946 31.8586 26.2946 31.4087C26.2946 30.9588 26.5639 30.5799 27.1211 30.5799ZM27.1211 33.8709C28.7221 33.8709 29.5709 32.749 29.5709 31.4105C29.5709 30.0721 28.7983 28.9502 27.1211 28.9502C25.4699 28.9502 24.6713 30.0721 24.6713 31.4105C24.6713 32.749 25.5052 33.8709 27.1211 33.8709Z" fill="#221613"/>
<path d="M18.6277 34.1484H16.8893V36.9187H16.9506H23.7614V35.3674L18.6277 35.4085V34.1484Z" fill="#221613"/>
<path d="M18.0593 32.1977V30.7006H19.4263V32.0484C19.0325 32.1436 18.5329 32.1846 18.0593 32.1977ZM19.4263 33.6388H21.0347V29.1475H16.4415V33.6538C16.4415 33.6538 18.0017 33.6351 19.4263 33.4148V33.6388Z" fill="#221613"/>
<path d="M23.533 28.835H21.7946V34.7245H23.533V28.835Z" fill="#221613"/>
<path d="M31.8426 28.8359H30.1041V36.9208H31.8426V28.8359Z" fill="#221613"/>
<path d="M37.9905 30.5112V29.2773H36.3189V28.7061H34.5804V29.2773H32.9088V30.5112C32.9088 30.5112 34.3222 30.4253 35.3902 30.4253C36.46 30.4253 37.9905 30.5112 37.9905 30.5112Z" fill="#221613"/>
<path d="M38.2614 35.6411H35.0947V35.292H38.2614V35.6411ZM33.3562 34.0264V37.0374H35.0947V36.9217H38.2614V37.0374H39.9999V34.0264H33.3562Z" fill="#221613"/>
<path d="M35.4309 31.7054C35.8933 31.7054 36.2072 31.8809 36.2072 32.1254C36.2072 32.37 35.8933 32.5473 35.4309 32.5473C34.9684 32.5473 34.6545 32.3718 34.6545 32.1254C34.6545 31.8809 34.9684 31.7054 35.4309 31.7054ZM35.4494 33.6991C37.0764 33.6991 37.8472 32.9822 37.8472 32.1254C37.8472 31.2686 37.1545 30.5518 35.4494 30.5518C33.7704 30.5518 33.0535 31.2686 33.0535 32.1254C33.0535 32.9822 33.8075 33.6991 35.4494 33.6991Z" fill="#221613"/>
<path d="M40.0001 28.835H38.2616V33.7669H40.0001V28.835Z" fill="#221613"/>
<path d="M8 33.5913H10.8733V34.1495H8.62221V35.7082L13.2005 35.6223V36.9253H14.939V34.1495H12.6118V33.5913H15.5761V32.083H8V33.5913Z" fill="#221613"/>
<path d="M13.0091 31.8516L14.6752 31.8441C15.054 30.3414 15.0745 29.0459 15.0745 29.0459H8.65369V30.5916L13.3119 30.5393C13.2524 31.0004 13.1596 31.4839 13.0091 31.8516Z" fill="#221613"/>
<path d="M21.9798 10.9619L17.5111 15.457V24.4491H26.4634L30.9303 19.954V10.9619H21.9798Z" fill="#E60024"/>
</svg>
