<svg width="48" height="48" viewBox="0 0 48 48" fill="none" xmlns="http://www.w3.org/2000/svg">
<rect width="48" height="48" rx="24" fill="white"/>
<path d="M14.0089 18.2078C14.0242 18.2185 14.0289 18.2174 14.043 18.2293C14.0678 18.2485 14.0902 18.27 14.1137 18.2915C14.1231 18.2999 14.1326 18.3071 14.142 18.3142C14.162 18.3298 14.1656 18.3441 14.1561 18.3681C14.1491 18.386 14.1444 18.4052 14.1373 18.4231C14.1326 18.4351 14.129 18.447 14.122 18.4554C14.1078 18.4697 14.1008 18.4877 14.0937 18.5056C14.0866 18.5236 14.0748 18.5391 14.0678 18.5571C14.056 18.581 14.0454 18.6049 14.036 18.63C14.0183 18.6791 14.0018 18.7281 13.9877 18.7784C13.9794 18.8047 13.9747 18.8322 13.9712 18.8585C13.97 18.8741 13.9677 18.8872 13.9606 18.9016C13.9476 18.9267 13.9453 18.9542 13.9441 18.9817C13.9429 18.9973 13.9394 19.014 13.9358 19.0296C13.9264 19.0702 13.917 19.1109 13.9076 19.1516C13.9064 19.1576 13.9099 19.1635 13.9099 19.1695C13.9088 19.1839 13.9076 19.1994 13.9052 19.2138C13.904 19.2198 13.8982 19.2245 13.8982 19.2305C13.8946 19.2616 13.8887 19.2927 13.8817 19.3226C13.8746 19.3525 13.8982 19.5116 13.8817 19.5296C13.8793 19.532 13.884 19.5487 13.8793 19.5762C13.8769 19.5906 13.8781 19.6073 13.8817 19.6217C13.8864 19.6432 13.8828 19.709 13.8769 19.7293C13.8652 19.7712 13.8711 19.9327 13.8722 19.9447C13.8746 19.9686 13.8675 19.9937 13.8687 20.0164C13.8699 20.0595 13.8628 20.1002 13.864 20.1432C13.864 20.1576 13.8628 20.1994 13.8687 20.2102C13.8805 20.2317 13.8663 20.2808 13.9017 20.2604C13.917 20.2521 13.93 20.2365 13.9429 20.2258C13.9571 20.2162 13.9783 20.2138 13.9912 20.2018C14.0065 20.1887 14.0324 20.1671 14.0466 20.1528C14.0607 20.1384 14.0784 20.1408 14.0937 20.1277C14.1078 20.1145 14.122 20.1002 14.1385 20.0918C14.1762 20.0738 14.1903 20.0607 14.2245 20.038C14.2492 20.0212 14.2739 20.0045 14.2987 19.9865C14.3034 19.9841 14.3517 19.9399 14.3693 19.9183C14.3799 19.9064 14.3882 19.892 14.3988 19.8801C14.4082 19.8693 14.4165 19.8573 14.4282 19.849C14.4412 19.8406 14.4518 19.8322 14.4589 19.8179C14.4636 19.8095 14.4765 19.8059 14.4883 19.7975C14.5095 19.7389 14.506 19.6791 14.4801 19.6193C14.4754 19.6097 14.473 19.5978 14.473 19.587C14.4707 19.5475 14.4601 19.5104 14.4459 19.4746C14.4341 19.4434 14.4235 19.4123 14.4341 19.3765C14.4412 19.3525 14.44 19.3262 14.4436 19.3011C14.4483 19.264 14.4577 19.2293 14.4754 19.1958C14.4977 19.1564 14.5142 19.1121 14.5378 19.0738C14.5649 19.0296 14.5955 18.9841 14.6309 18.9458C14.6544 18.9195 14.7734 18.8549 14.7793 18.819C14.7805 18.8143 14.7887 18.8107 14.7946 18.8095C14.7993 18.8083 14.824 18.7664 14.8405 18.7497C14.85 18.7413 14.8535 18.7257 14.8629 18.7102C14.8676 18.709 14.8771 18.7066 14.8865 18.703C14.8877 18.6982 14.89 18.6934 14.8912 18.6887C14.8935 18.6767 14.8994 18.6707 14.9112 18.6707C14.9277 18.6707 14.9583 18.6468 14.9607 18.6456C15.0066 18.6265 15.1397 18.5343 15.1492 18.4997C15.1503 18.4949 15.1562 18.4889 15.161 18.4853C15.1845 18.4662 15.3247 18.343 15.3435 18.3214C15.3765 18.2855 15.4119 18.2532 15.446 18.2185C15.4507 18.2138 15.4578 18.2078 15.4625 18.2078C15.4837 18.2078 15.5155 18.1516 15.5297 18.1444C15.5344 18.142 15.5391 18.1372 15.5438 18.1324C15.5674 18.1049 15.5956 18.0822 15.6251 18.0607C15.6369 18.0523 15.6451 18.0391 15.6545 18.0272C15.6887 17.9901 15.7193 17.9518 15.7323 17.9016C15.7405 17.8717 15.7499 17.8429 15.7582 17.8142C15.77 17.7748 15.7924 17.7389 15.81 17.7006C15.8171 17.6874 15.8242 17.6731 15.83 17.6599C15.8371 17.6444 15.8442 17.6288 15.8513 17.6121C15.876 17.5523 15.8807 17.4949 15.8972 17.4338C15.909 17.3896 15.9478 17.3106 15.9478 17.2939C15.949 17.252 15.9596 17.0858 15.9973 17.0188C15.9997 17.014 16.002 17.0092 16.0067 17.0068C16.0315 16.9889 16.1163 16.9733 16.1434 16.9578C16.1952 16.9302 16.3071 16.9554 16.3625 16.9661C16.4014 16.9733 16.4285 16.9996 16.4532 17.0295C16.4673 17.0475 16.4791 17.069 16.4897 17.0893C16.4944 17.1001 16.4956 17.1133 16.4968 17.1252C16.498 17.1575 16.498 17.191 16.4991 17.2233C16.4991 17.2293 16.4991 17.2353 16.4991 17.2413C16.4968 17.2795 16.4933 17.2353 16.4909 17.2736C16.4909 17.2819 16.4944 17.2915 16.4991 17.2987C16.5074 17.3118 16.5109 17.3238 16.498 17.337C16.4944 17.3405 16.4921 17.3477 16.4909 17.3537C16.4885 17.3693 16.4862 17.386 16.4838 17.4015C16.4827 17.4099 16.4768 17.4374 16.4791 17.4458C16.4827 17.459 16.4944 17.526 16.4885 17.5499C16.4838 17.5702 16.485 17.7042 16.4827 17.7245C16.4791 17.7449 16.4815 17.7676 16.4815 17.7903C16.4815 17.7975 16.4803 17.8047 16.4791 17.8118C16.4744 17.8441 16.4779 17.9004 16.4968 17.9219C16.5062 17.9327 16.5003 18.014 16.5003 18.0307C16.5003 18.0738 16.498 18.1181 16.4968 18.1611C16.4968 18.1659 16.4968 18.1719 16.4991 18.1767C16.5121 18.2126 16.5086 18.2485 16.5074 18.2855C16.5062 18.3226 16.5086 18.3585 16.5097 18.3956C16.5109 18.4255 16.5003 18.4542 16.5109 18.4841C16.4968 18.5188 16.5121 18.5547 16.5086 18.5906C16.505 18.63 16.5086 18.4446 16.5109 18.4841C16.5133 18.5236 16.5156 18.5642 16.5062 18.6025C16.505 18.6073 16.5039 18.6133 16.505 18.6181C16.518 18.6719 16.5074 18.7257 16.4991 18.7796C16.498 18.7891 16.498 18.7975 16.4968 18.8071C16.4968 18.8131 16.4838 18.8669 16.4827 18.8896C16.4803 18.9351 16.4461 19.2473 16.4226 19.2903C16.4131 19.3083 16.4037 19.4291 16.4084 19.4578C16.3955 19.4925 16.4014 19.5667 16.399 19.5786C16.3955 19.5918 16.3731 19.7533 16.3719 19.7712C16.3707 19.8035 16.3495 19.8717 16.3601 19.904C16.3637 19.9147 16.3625 19.9279 16.3613 19.9399C16.3566 19.9805 16.3519 20.02 16.346 20.0607C16.3436 20.075 16.3413 20.0882 16.3389 20.1026C16.3378 20.1061 16.3484 20.2413 16.3401 20.2748C16.3378 20.2832 16.3413 20.2927 16.3413 20.3023C16.3413 20.3179 16.3436 20.3346 16.3413 20.3502C16.3389 20.3681 16.3401 20.3825 16.3519 20.3956C16.3625 20.4076 16.3649 20.4219 16.3613 20.4387C16.359 20.4506 16.3613 20.465 16.3613 20.4782C16.3613 20.4877 16.3625 20.4961 16.3613 20.5057C16.3578 20.5427 16.3566 20.6384 16.3613 20.6468C16.3707 20.6636 16.366 20.7294 16.3696 20.7449C16.3707 20.7521 16.3719 20.7748 16.3672 20.7784C16.3601 20.855 16.4025 20.953 16.3967 20.9746C16.3919 20.9937 16.3872 21.0117 16.3908 21.032C16.3931 21.0487 16.3872 21.0595 16.3719 21.0667C16.359 21.0727 16.3484 21.081 16.3389 21.0906C16.3213 21.1074 16.2612 21.1217 16.2447 21.1205C16.24 21.1205 16.2329 21.1265 16.2294 21.1325C16.2152 21.148 16.1988 21.1624 16.1776 21.1684C16.1705 21.1696 16.1634 21.1719 16.1563 21.1719C16.1316 21.1719 16.1069 21.1696 16.0821 21.1696C16.0762 21.1696 16.0692 21.1743 16.0633 21.1767C16.0503 21.1839 16.0374 21.1923 16.0232 21.1995C16.0103 21.2066 15.9961 21.2066 15.9867 21.1947C15.9702 21.1731 15.9537 21.1516 15.9408 21.1289C15.9337 21.1157 15.9314 21.0978 15.929 21.0822C15.9219 21.026 15.8831 20.8526 15.8842 20.8478C15.8925 20.8131 15.8701 20.7832 15.8713 20.7497C15.8713 20.7425 15.8725 20.7353 15.8725 20.7282C15.8725 20.7234 15.8619 20.6767 15.863 20.6552C15.8642 20.6229 15.8619 20.5906 15.8607 20.5583C15.8607 20.5487 15.8595 20.5368 15.8548 20.5284C15.8406 20.5021 15.8395 20.4411 15.8336 20.3609C15.8336 20.3526 15.8348 20.3442 15.8336 20.337C15.8289 20.2856 15.843 20.1767 15.8418 20.1731C15.843 20.0679 15.8524 20.0021 15.8524 19.9937C15.8536 19.9662 15.8548 19.9387 15.8571 19.9112C15.8583 19.8992 15.8607 19.886 15.8607 19.8741C15.8583 19.8454 15.863 19.8179 15.8666 19.7891C15.8725 19.7437 15.8736 19.6982 15.8772 19.6528C15.8819 19.5978 15.8748 19.5511 15.8748 19.514C15.8748 19.4614 15.8842 19.4088 15.8913 19.3561C15.8995 19.2951 15.9478 18.9698 15.9549 18.9088C15.962 18.8561 15.9667 18.8035 15.9714 18.7497C15.9726 18.7329 15.9714 18.715 15.9714 18.6982C15.9714 18.6815 15.969 18.6635 15.9702 18.6468C15.9726 18.6217 15.9726 18.5965 15.9679 18.5714C15.9632 18.5415 15.969 18.5104 15.969 18.4793C15.969 18.4195 15.9667 18.5858 15.9667 18.5272C15.9667 18.5032 15.9702 18.4781 15.9702 18.4542C15.9702 18.4279 15.969 18.4016 15.9679 18.3752C15.962 18.3752 15.9584 18.3741 15.9584 18.3752C15.9396 18.4075 15.9066 18.4255 15.8831 18.453C15.8772 18.4602 15.8689 18.465 15.8619 18.4709C15.8536 18.4781 15.8465 18.4853 15.8395 18.4937C15.8371 18.4961 15.8359 18.5008 15.8324 18.5032C15.7853 18.5367 15.757 18.5882 15.7122 18.6229C15.6981 18.6336 15.6852 18.6456 15.6698 18.6528C15.6404 18.6647 15.6239 18.6958 15.5933 18.7042C15.5838 18.7066 15.5756 18.7174 15.5685 18.7257C15.5485 18.7473 15.5297 18.7724 15.499 18.782C15.4955 18.7832 15.492 18.7891 15.4896 18.7927C15.4743 18.8214 15.4331 18.8489 15.4225 18.8537C15.4154 18.8573 15.2929 18.9159 15.2764 18.9255C15.2316 18.9494 15.1857 18.9745 15.1468 19.0068C15.0997 19.0463 15.0514 19.0834 14.9984 19.1145C14.9689 19.1312 14.9395 19.1468 14.9171 19.1731C14.9136 19.1767 14.8535 19.2126 14.8323 19.2329C14.8158 19.2485 14.804 19.27 14.7875 19.2867C14.7439 19.3286 14.7051 19.3765 14.6544 19.4112C14.6356 19.4231 14.579 19.4434 14.5778 19.4674C14.5767 19.4913 14.572 19.4841 14.5743 19.5068C14.5755 19.5212 14.6049 19.5559 14.6108 19.5702C14.6155 19.5798 14.6485 19.5954 14.6473 19.6049C14.645 19.6253 14.6544 19.6408 14.6674 19.6552C14.6933 19.6552 14.7204 19.654 14.7475 19.6552C14.7699 19.6564 14.7934 19.6564 14.8134 19.6719C14.8205 19.6767 14.8653 19.6839 14.8759 19.6958C14.8771 19.697 14.8794 19.6994 14.8806 19.6994C14.9148 19.6994 14.9348 19.7281 14.9619 19.7413C14.9725 19.7461 15.0373 19.7808 15.0573 19.7999C15.0596 19.8023 15.0632 19.8059 15.0667 19.8071C15.0997 19.8155 15.1079 19.8454 15.1209 19.8717C15.1268 19.8836 15.1268 19.898 15.1185 19.91C15.1162 19.9136 15.1138 19.9171 15.1127 19.9207C15.1115 19.9423 15.0985 19.953 15.0797 19.9602C15.075 19.9614 15.0714 19.965 15.0667 19.9686C15.0667 19.9722 15.0655 19.9746 15.0655 19.9781C15.0667 19.9997 14.9689 20.0679 14.9454 20.0954C14.9348 20.1073 14.9289 20.1241 14.9171 20.1348C14.9006 20.1504 14.8229 20.2198 14.8146 20.2293C14.8087 20.2365 14.7722 20.2987 14.7463 20.3107C14.7404 20.3131 14.7333 20.3191 14.731 20.325C14.7227 20.3454 14.6521 20.3777 14.6379 20.3956C14.6191 20.4112 14.5967 20.4411 14.5614 20.453C14.5578 20.4542 14.4765 20.5069 14.453 20.5487C14.4494 20.5559 14.4082 20.5667 14.4012 20.5762C14.3953 20.5834 14.3882 20.5918 14.3799 20.593C14.3505 20.599 14.3293 20.6181 14.3069 20.6325C14.2987 20.6372 14.2881 20.6396 14.2786 20.6432C14.2728 20.6456 14.2645 20.6492 14.2621 20.654C14.2563 20.6636 14.2492 20.6648 14.2398 20.6648C14.2256 20.6648 14.2009 20.6935 14.1974 20.6947C14.1656 20.7066 14.1455 20.7317 14.1196 20.7521C14.1149 20.7557 14.109 20.7581 14.1055 20.7628C14.0902 20.782 13.9947 20.8597 13.9783 20.8645C13.9724 20.8657 13.9665 20.8717 13.9606 20.8753C13.9441 20.8849 13.9288 20.8968 13.9111 20.904C13.8887 20.9136 13.8652 20.9195 13.8428 20.9267C13.8357 20.9291 13.7957 20.9279 13.7839 20.9411C13.778 20.9471 13.7662 20.9507 13.7568 20.9507C13.725 20.9495 13.6955 20.9578 13.6649 20.9674C13.6614 20.9686 13.6131 20.9722 13.5931 20.9782C13.5754 20.9841 13.5565 20.9889 13.5377 20.9925C13.5212 20.9961 13.5071 20.9913 13.4941 20.977C13.4753 20.9566 13.4541 20.9375 13.434 20.916C13.4281 20.91 13.4246 20.9028 13.4211 20.8956C13.4128 20.8801 13.4069 20.8645 13.3987 20.849C13.3751 20.8035 13.3504 20.7569 13.3268 20.7114C13.3245 20.7066 13.3221 20.6995 13.3233 20.6935C13.3257 20.6803 13.3233 20.6695 13.3162 20.6588C13.3127 20.6528 13.3127 20.6456 13.3127 20.6384C13.3127 20.6181 13.295 20.5643 13.2974 20.5583C13.3044 20.5404 13.2997 20.5248 13.2962 20.5081C13.2927 20.4925 13.3103 20.4494 13.3103 20.4423C13.3127 20.3956 13.3139 20.3478 13.3139 20.3011C13.3139 20.2377 13.3198 20.1755 13.3257 20.1121C13.328 20.0882 13.3292 20.0631 13.3304 20.0392C13.3339 19.9566 13.3374 19.8741 13.3421 19.7915C13.3433 19.7784 13.348 19.7652 13.3504 19.7533C13.3527 19.7401 13.3539 19.7281 13.3551 19.715C13.3551 19.7114 13.3622 19.6647 13.3575 19.6456C13.3516 19.6157 13.3622 19.587 13.3669 19.5583C13.3704 19.5379 13.3869 19.4829 13.3845 19.4757C13.3787 19.4542 13.3857 19.4351 13.3893 19.4159C13.3928 19.3956 13.3975 19.3765 13.3987 19.3561C13.401 19.3095 13.4105 19.2628 13.4234 19.2186C13.4281 19.203 13.427 19.1863 13.4305 19.1707C13.4364 19.148 13.4576 19.0487 13.4623 19.026C13.4694 18.9865 13.5082 18.8836 13.52 18.8298C13.5271 18.7987 13.5365 18.7664 13.5506 18.7377C13.553 18.7317 13.5554 18.7257 13.5589 18.7221C13.5825 18.7006 13.6048 18.6193 13.606 18.6073C13.6084 18.581 13.6178 18.5583 13.6366 18.5403C13.6414 18.5355 13.6461 18.5296 13.6472 18.5236C13.652 18.4805 13.6755 18.4446 13.6991 18.4099C13.725 18.3729 13.7485 18.3358 13.7662 18.2951C13.7733 18.2796 13.6967 18.2951 13.6849 18.2975C13.6402 18.3071 13.4917 18.3441 13.4729 18.3573C13.4599 18.3669 13.3363 18.4052 13.3127 18.4123C13.3103 18.4135 13.255 18.4446 13.2291 18.4566C13.1996 18.4697 13.1666 18.4769 13.1348 18.4865C13.1254 18.4889 13.0571 18.5236 13.0312 18.5355C13.017 18.5427 12.9993 18.5415 12.984 18.5451C12.9817 18.5451 12.9793 18.5451 12.9781 18.5451C12.9063 18.5631 12.8333 18.5559 12.7602 18.5571C12.7025 18.5583 12.6589 18.5296 12.6212 18.4877C12.6106 18.4769 12.6047 18.4626 12.5953 18.4506C12.5812 18.4327 12.5659 18.4147 12.5494 18.3992C12.5317 18.3812 12.4881 18.2963 12.4893 18.2712C12.4905 18.2604 12.5411 18.2652 12.5906 18.2473C12.6554 18.2233 12.7237 18.2066 12.785 18.1719C12.8274 18.148 12.8709 18.124 12.9157 18.1037C12.9793 18.075 13.037 18.0355 13.0983 18.0032C13.1242 17.9889 13.1513 17.9781 13.1772 17.965C13.2632 17.9219 13.3492 17.88 13.4376 17.8441C13.4776 17.8274 13.5188 17.8166 13.5601 17.8035C13.5978 17.7915 13.6331 17.776 13.6708 17.764C13.7438 17.7425 13.8157 17.7233 13.8899 17.7066C13.9535 17.691 14.0183 17.6803 14.0819 17.6659C14.1078 17.6599 14.1349 17.6527 14.1597 17.642C14.1879 17.63 14.2162 17.63 14.2457 17.6288C14.2598 17.6276 14.2728 17.624 14.2869 17.6205C14.2916 17.6193 14.2963 17.6157 14.301 17.6169C14.3387 17.624 14.3752 17.6133 14.4118 17.6121C14.42 17.6121 14.4282 17.6145 14.4353 17.6169C14.473 17.6336 14.5119 17.6492 14.5484 17.6671C14.5672 17.6767 14.5837 17.6934 14.6026 17.7054C14.6332 17.7269 14.6497 17.7568 14.6591 17.7927C14.6662 17.8178 14.6768 17.8429 14.6827 17.8681C14.685 17.8788 14.685 17.892 14.6803 17.9004C14.6627 17.9303 14.658 17.9638 14.6485 17.9961C14.6426 18.0128 14.6344 18.0248 14.6191 18.0331C14.5861 18.0535 14.5519 18.069 14.5119 18.0678C14.4824 18.0666 14.3623 18.1145 14.3446 18.1181C14.3364 18.1193 14.3281 18.1252 14.3222 18.1312C14.3069 18.148 14.2951 18.1456 14.2704 18.142C14.2492 18.1396 14.2245 18.1528 14.2032 18.1516C14.1997 18.1516 14.1938 18.1504 14.1915 18.1528C14.1726 18.1743 13.9983 18.1994 14.0089 18.2078Z" fill="#17288B"/>
<path d="M18.6879 21.2319C18.662 21.2391 18.5383 21.2714 18.5336 21.2738C18.4558 21.2905 18.4252 21.2953 18.2885 21.2941C18.265 21.2821 18.2355 21.2785 18.2226 21.2546C18.212 21.2343 18.2084 21.2391 18.1967 21.2187C18.1837 21.1972 18.1802 21.1948 18.179 21.1685C18.1755 21.1147 18.1566 21.0716 18.1778 21.0214C18.1896 20.9938 18.192 20.9639 18.2167 20.9436C18.2214 20.94 18.2226 20.9328 18.2249 20.9281C18.2414 20.8934 18.3015 20.8682 18.3204 20.8347C18.3675 20.8132 18.4794 20.7307 18.4864 20.7199C18.5218 20.6685 18.7232 20.4532 18.7444 20.3957C18.7586 20.3587 18.9364 20.1158 18.9388 20.1039C18.9423 20.0871 18.9565 20.0632 18.9612 20.0477C18.9694 20.0213 18.9694 20.0189 18.9459 19.9998C18.9235 20.0142 18.9093 20.0189 18.8858 20.0297C18.8434 20.0489 18.8493 20.0524 18.8033 20.0668C18.7633 20.0788 18.7197 20.1122 18.682 20.1302C18.6655 20.1386 18.6502 20.1469 18.6337 20.1553C18.5913 20.178 18.2379 20.3467 18.219 20.3575C18.1849 20.3778 18.0435 20.4544 18.0164 20.4807C17.9917 20.5034 17.9976 20.5142 17.9622 20.5166C17.9505 20.5178 17.9387 20.5237 17.9269 20.5225C17.9045 20.5213 17.8916 20.5309 17.8704 20.5273C17.8232 20.519 17.8244 20.4926 17.7808 20.4699C17.7361 20.446 17.7043 20.4113 17.6854 20.3634C17.6666 20.3144 17.6524 20.2642 17.6513 20.2115C17.6513 20.1948 17.6524 20.1792 17.6536 20.1625C17.6548 20.1529 17.656 20.1445 17.6465 20.1374C17.6348 20.129 17.6324 20.1158 17.6383 20.1051C17.643 20.0979 17.696 19.9914 17.7172 19.9627C17.7349 19.9388 17.7608 19.9268 17.7879 19.9185C17.7985 19.9149 17.8091 19.9113 17.8162 19.9041C17.8291 19.8921 17.8433 19.8874 17.8598 19.8862C17.8975 19.8814 17.9352 19.8742 17.9728 19.867C17.9799 19.8658 18.1166 19.8096 18.1225 19.8072C18.1484 19.7953 18.1743 19.7797 18.2014 19.7701C18.252 19.751 18.3039 19.7378 18.3533 19.7175C18.3851 19.7043 18.4476 19.6697 18.4794 19.6637C18.5088 19.6577 18.5077 19.6577 18.5088 19.6278C18.51 19.5823 18.5112 19.5357 18.5135 19.4902C18.5147 19.4651 18.5183 19.44 18.5206 19.4149C18.5206 19.4113 18.5265 19.3407 18.5194 19.312C18.5171 19.3012 18.5206 19.2881 18.523 19.2773C18.5253 19.2618 18.5289 19.2474 18.5289 19.2319C18.5289 19.2151 18.5218 19.2091 18.5053 19.2115C18.4912 19.2127 18.477 19.2163 18.4641 19.2211C18.4334 19.233 18.4028 19.2474 18.3722 19.2606C18.3663 19.263 18.3604 19.2653 18.3545 19.2665C18.3098 19.2689 18.3675 19.263 18.3298 19.2821C18.3086 19.2929 18.285 19.2988 18.2626 19.3072C18.2556 19.3096 18.2473 19.312 18.2391 19.3144C18.2143 19.3204 18.1896 19.3311 18.1625 19.3299C18.1472 19.3299 18.1307 19.3407 18.1154 19.3467C18.1048 19.3503 18.093 19.3539 18.0824 19.3575C18.0753 19.3598 18.0671 19.361 18.06 19.3646C18.0164 19.3909 17.9693 19.4065 17.9198 19.4185C17.8951 19.4244 17.8727 19.4352 17.8492 19.4436C17.8444 19.4448 17.8397 19.4472 17.835 19.4484C17.8068 19.452 17.5111 19.5895 17.4875 19.6039C17.4675 19.6158 17.4486 19.6206 17.4274 19.6134C17.4145 19.6098 17.4039 19.6087 17.3933 19.617C17.3897 19.6194 17.3862 19.6218 17.3827 19.6218C17.3485 19.6158 17.3191 19.6362 17.2849 19.6338C17.2613 19.6314 17.2437 19.6517 17.2225 19.6374C17.2107 19.6302 17.1942 19.6302 17.1801 19.6278C17.16 19.6242 17.1518 19.5871 17.1329 19.5823C17.1 19.574 17.0505 19.489 17.0305 19.4723C17.001 19.4472 16.981 19.4137 16.9668 19.3766C16.9645 19.3706 16.961 19.3634 16.9562 19.3586C16.9421 19.3455 16.935 19.3275 16.9327 19.3096C16.9256 19.239 16.9268 19.2019 16.9845 19.1613C16.9869 19.1601 16.9892 19.1565 16.9916 19.1565C17.0375 19.1421 17.0776 19.1122 17.1259 19.1027C17.1494 19.0979 17.1718 19.0823 17.1942 19.0728C17.2001 19.0704 17.206 19.0656 17.213 19.0632C17.2472 19.0512 17.2802 19.0369 17.3155 19.0273C17.3509 19.0165 17.3874 19.0094 17.4239 18.9998C17.4416 18.995 17.4581 18.9878 17.4757 18.983C17.5264 18.9687 17.5747 18.9507 17.6277 18.9436C17.6748 18.9376 17.8315 18.8706 17.8786 18.867C17.9281 18.8634 18.0447 18.8084 18.0683 18.8036C18.0918 18.7988 18.1154 18.7964 18.1389 18.7905C18.1578 18.7857 18.2273 18.7689 18.2438 18.7606C18.2921 18.739 18.3698 18.7378 18.3816 18.7247C18.3922 18.7115 18.4617 18.7067 18.4758 18.6888C18.4829 18.6804 18.4982 18.6768 18.5112 18.6756C18.5253 18.6744 18.5359 18.6708 18.5465 18.6625C18.5595 18.6529 18.5748 18.6481 18.5889 18.6409C18.5913 18.6397 18.596 18.6409 18.5972 18.6385C18.6196 18.6158 18.6537 18.623 18.6808 18.6134C18.6902 18.6098 18.6973 18.6039 18.7056 18.5991C18.7138 18.5943 18.801 18.5704 18.8351 18.5596C18.8634 18.5512 18.973 18.4974 19.0083 18.483C19.0307 18.4735 19.0825 18.4759 19.0943 18.4543C19.1037 18.4364 19.172 18.4029 19.2003 18.3909C19.2404 18.3754 19.2792 18.3562 19.3193 18.3395C19.3381 18.3323 19.357 18.3239 19.3758 18.3192C19.3853 18.3168 19.4677 18.2845 19.5007 18.2713C19.5172 18.2653 19.5337 18.2617 19.5502 18.2582C19.5902 18.2498 19.7481 18.1971 19.7834 18.172C19.8623 18.1529 19.8977 18.1493 19.9778 18.1337C20.0108 18.1278 20.0461 18.1278 20.0791 18.1314C20.125 18.1361 20.1721 18.1373 20.2157 18.1565C20.2275 18.1613 20.2405 18.166 20.2511 18.1732C20.2876 18.1983 20.2899 18.2139 20.3159 18.2522C20.3512 18.3024 20.4549 18.5835 20.4054 18.5799C20.3913 18.5787 20.3865 18.5859 20.3736 18.5883C20.343 18.5955 20.2629 18.6146 20.231 18.617C20.2063 18.6182 20.1816 18.617 20.1568 18.6242C20.1415 18.629 20.1274 18.6385 20.1121 18.6385C20.0814 18.6397 19.774 18.7318 19.754 18.7474C19.7516 18.7498 19.7504 18.7522 19.7481 18.7534C19.6904 18.7845 19.6409 18.8287 19.5761 18.8455C19.5608 18.8491 19.5455 18.8551 19.5313 18.8634C19.4854 18.8921 19.3381 18.9388 19.2898 18.9651C19.2851 18.9675 19.2781 18.9687 19.2722 18.9699C19.2545 18.9723 19.2427 18.9807 19.2309 18.9926C19.2192 19.0046 19.2038 19.0141 19.1897 19.0213C19.1779 19.0261 19.1697 19.0333 19.1614 19.0429C19.1497 19.0572 19.1355 19.068 19.1226 19.0811C19.1108 19.0931 19.0955 19.1039 19.0872 19.1182C19.0696 19.1481 19.0554 19.1804 19.0413 19.2115C19.0295 19.2366 19.0189 19.2618 19.0071 19.2869C19.0048 19.2929 19.0036 19.2988 19.0012 19.3036C18.9942 19.3228 18.9682 19.3395 18.9647 19.3479C18.9506 19.3933 18.9353 19.4388 18.9211 19.4854C18.9199 19.4902 18.9199 19.495 18.9188 19.5034C18.9258 19.5022 18.9317 19.5022 18.9364 19.4998C18.9612 19.489 18.9871 19.4783 19.0118 19.4675C19.033 19.4579 19.1779 19.4113 19.1862 19.4077C19.2486 19.3826 19.4076 19.3371 19.4748 19.3359C19.4913 19.3359 19.5089 19.3287 19.5254 19.3311C19.569 19.3359 19.6138 19.3323 19.6527 19.3598C19.6597 19.3646 19.6691 19.3658 19.6786 19.3694C19.7127 19.3826 19.7422 19.4041 19.7634 19.4352C19.7775 19.4555 19.7964 19.4699 19.8046 19.495C19.8176 19.5333 19.8152 19.6266 19.8152 19.6661C19.8152 19.6804 19.807 19.6948 19.8011 19.7091C19.7846 19.751 19.7775 19.7977 19.7457 19.8335C19.741 19.8395 19.6574 19.8886 19.6538 19.8945C19.6491 19.9029 19.6456 19.9137 19.6385 19.9209C19.5867 19.9723 19.4583 20.0931 19.4171 20.1517C19.41 20.1613 19.4065 20.1745 19.4006 20.184C19.39 20.202 19.152 20.44 19.1473 20.4508C19.1343 20.4783 19.0024 20.6111 19.0083 20.617C19.0177 20.6278 19.066 20.6027 19.0754 20.5955C19.1084 20.5716 19.2074 20.5441 19.2439 20.5345C19.2757 20.5261 19.4041 20.4579 19.4347 20.446C19.4724 20.4316 19.5148 20.4316 19.5561 20.4257C19.5749 20.4233 19.5938 20.4245 19.6126 20.4221C19.6315 20.4197 19.6444 20.4245 19.6585 20.4376C19.6821 20.4603 19.6951 20.4879 19.6974 20.5202C19.6986 20.5309 19.7021 20.5417 19.7045 20.5536C19.7104 20.5752 19.7092 20.5943 19.7021 20.617C19.688 20.7618 19.622 20.7929 19.6173 20.8204C19.615 20.8312 19.5537 20.8874 19.5478 20.8958C19.5278 20.9269 19.4489 20.9615 19.4418 20.9974C19.4394 21.0082 19.3311 21.0943 19.3181 21.1206C19.3028 21.1505 19.2686 21.2008 19.2569 21.2319C19.251 21.2474 19.2474 21.263 19.2439 21.2785C19.238 21.3013 19.2309 21.324 19.2262 21.3467C19.2203 21.3778 19.2168 21.4089 19.2133 21.44C19.2121 21.452 19.2121 21.4639 19.2109 21.4759C19.2074 21.501 19.2156 21.5489 19.2133 21.574C19.2109 21.6075 19.2651 21.6314 19.2981 21.6326C19.3205 21.6326 19.3452 21.6314 19.3664 21.6254C19.4418 21.6063 19.516 21.5824 19.5867 21.5501C19.6126 21.5381 19.6397 21.5297 19.6656 21.519C19.7587 21.4795 19.8482 21.4316 19.9259 21.3671C19.9943 21.3096 20.0614 21.251 20.1168 21.1804C20.1415 21.1493 20.1698 21.1206 20.1922 21.0883C20.2216 21.0453 20.2475 21.001 20.2723 20.9544C20.2923 20.9173 20.3076 20.879 20.3253 20.8407C20.3288 20.8336 20.3288 20.8252 20.3312 20.8168C20.3371 20.8013 20.3418 20.7833 20.35 20.7702C20.3642 20.7486 20.3901 20.7498 20.4054 20.7714C20.4125 20.7809 20.416 20.7941 20.4219 20.8036C20.4289 20.8144 20.436 20.8252 20.4431 20.8359C20.4466 20.8419 20.4513 20.8479 20.4537 20.8539C20.4584 20.867 20.4596 20.8826 20.4655 20.8946C20.4784 20.9173 20.4784 20.9412 20.4749 20.9651C20.4702 20.9998 20.4655 21.0333 20.4596 21.068C20.4572 21.0824 20.4537 21.0967 20.4525 21.1099C20.4466 21.1888 20.4183 21.2594 20.3795 21.3252C20.3488 21.3754 20.3147 21.4245 20.2817 21.4723C20.2652 21.4962 20.2428 21.5166 20.2263 21.5405C20.211 21.562 20.1615 21.6075 20.1615 21.6075C20.1368 21.6541 20.0932 21.6577 20.0614 21.696C20.0543 21.7056 20.0426 21.7104 20.032 21.7175C20.019 21.7259 20.0072 21.7343 19.9943 21.7427C19.9896 21.7462 19.9837 21.751 19.979 21.751C19.9566 21.7486 19.9389 21.7594 19.9212 21.7726C19.9095 21.7809 19.893 21.7821 19.8788 21.7881C19.8612 21.7953 19.8447 21.8049 19.8282 21.8132C19.814 21.8204 19.6138 21.9041 19.582 21.9077C19.5655 21.9101 19.5513 21.9221 19.5349 21.9293C19.5278 21.9329 19.4536 21.952 19.4265 21.9675C19.4182 21.9723 19.41 21.9747 19.4006 21.9771C19.3381 21.9879 19.2757 21.9998 19.2133 22.007C19.1579 22.013 19.1014 22.0118 19.046 21.9974C19.0283 21.9927 19.0107 21.9915 18.9918 21.9891C18.9659 21.9843 18.94 21.9807 18.9152 21.9747C18.9105 21.9735 18.907 21.9699 18.9023 21.9663C18.8976 21.964 18.894 21.958 18.8905 21.958C18.8634 21.9544 18.8434 21.9376 18.8198 21.9281C18.7868 21.9149 18.7633 21.8934 18.7421 21.8671C18.7315 21.8539 18.7244 21.8396 18.7126 21.8276C18.6879 21.8025 18.6796 21.7702 18.6726 21.7367C18.6584 21.6649 18.6514 21.5931 18.6679 21.5202C18.669 21.5142 18.669 21.5082 18.669 21.5022C18.669 21.4819 18.6655 21.4616 18.6679 21.4412C18.6726 21.3934 18.6785 21.3455 18.6832 21.2977C18.6902 21.2761 18.6879 21.2558 18.6879 21.2319Z" fill="#17288B"/>
<path d="M23.4363 18.3241C23.4304 18.3325 23.4246 18.3397 23.421 18.348C23.4139 18.3636 23.4033 18.3708 23.3869 18.3779C23.3668 18.3863 23.3845 18.3863 23.368 18.4031C23.3303 18.4401 23.3209 18.4569 23.3138 18.4748C23.3079 18.488 23.2773 18.5143 23.2679 18.5227C23.2526 18.5358 23.2361 18.5478 23.2196 18.5574C23.2102 18.5622 23.0688 18.6854 23.0547 18.7033C23.0181 18.7476 22.7354 18.9545 22.713 18.9665C22.7048 18.9713 22.6765 18.988 22.6589 18.9988C22.6235 19.0203 22.5917 19.0466 22.554 19.0646C22.4798 19.0992 22.4079 19.1435 22.3267 19.1626C22.3231 19.1638 22.3172 19.1638 22.3161 19.1662C22.3008 19.1902 22.0934 19.183 22.064 19.2009C22.0475 19.2368 22.0769 19.2799 22.0604 19.3158C22.0557 19.3265 22.0581 19.3768 22.0557 19.3875C22.0451 19.4306 22.064 19.4892 22.0581 19.5347C22.0546 19.561 22.0569 19.6052 22.0487 19.6304C22.0381 19.6603 22.0286 19.7057 22.018 19.7356C22.0086 19.7607 21.9745 19.8421 21.9768 19.8588C21.9803 19.8804 21.9344 19.9617 21.9226 19.9844C21.9144 20.0024 21.9097 20.0227 21.9026 20.0418C21.8955 20.0598 21.8873 20.0777 21.8802 20.0957C21.8755 20.1076 21.8413 20.1447 21.8272 20.1639C21.8225 20.1698 21.819 20.1782 21.8154 20.1854C21.7813 20.2667 21.7188 20.323 21.654 20.3756C21.6423 20.3852 21.6269 20.3887 21.6128 20.3947C21.5928 20.4031 21.5728 20.4079 21.5539 20.4175C21.5162 20.439 21.4785 20.4426 21.4385 20.427C21.4326 20.4246 21.3701 20.439 21.3466 20.4474C21.3136 20.4593 21.2794 20.4665 21.2441 20.4665C21.204 20.4653 21.1711 20.4474 21.1357 20.433C21.1287 20.4306 21.1239 20.4234 21.1169 20.4175C21.1039 20.4067 21.091 20.3947 21.078 20.384C21.0297 20.3457 20.9743 20.2954 20.9614 20.232C20.959 20.2177 20.9213 20.122 20.9107 20.0813C20.906 20.0634 20.9001 20.0466 20.8966 20.0287C20.8931 20.0119 20.8907 19.994 20.8907 19.9773C20.8895 19.9557 20.8931 19.9342 20.8801 19.9151C20.8789 19.9139 20.8777 19.9115 20.8777 19.9091C20.8777 19.8517 20.8554 19.7978 20.8589 19.7404C20.8589 19.7368 20.8589 19.7308 20.8613 19.7284C20.8589 19.6172 20.8707 19.5394 20.873 19.4904C20.8742 19.4545 20.8789 19.4198 20.886 19.3839C20.8895 19.366 20.9013 19.3504 20.9037 19.3325C20.906 19.3158 20.8966 19.299 20.8978 19.2823C20.9025 19.2392 20.9202 19.1339 20.9202 19.1256C20.919 19.0981 20.926 19.0705 20.9284 19.0442C20.9331 19.0036 20.9472 18.9677 20.9626 18.9318C20.972 18.9091 20.9755 18.8851 20.9826 18.8612C20.9849 18.8528 20.9897 18.8445 20.9932 18.8361C20.9967 18.8265 21.0014 18.8181 21.005 18.8086C21.0144 18.7799 21.0215 18.7524 21.0321 18.7236C21.0356 18.7141 21.0415 18.7045 21.0486 18.6985C21.0768 18.6088 21.0898 18.5789 21.0945 18.5729C21.1122 18.549 21.1911 18.4605 21.2276 18.4497C21.2453 18.4366 21.2629 18.421 21.2842 18.4138C21.3136 18.4031 21.3454 18.3971 21.3772 18.3911C21.3996 18.3875 21.4232 18.3875 21.4467 18.3863C21.4561 18.3863 21.4656 18.3851 21.4738 18.3863C21.5292 18.3959 21.5834 18.4102 21.6246 18.4497C21.6493 18.4724 21.7412 18.5741 21.753 18.5968C21.7636 18.6172 21.7848 18.7344 21.8272 18.7488C21.8602 18.7607 21.8861 18.7858 21.9085 18.8146C21.9309 18.8457 21.9638 18.854 21.9992 18.8409C22.0063 18.8385 22.0934 18.805 22.1264 18.7811C22.1323 18.7775 22.137 18.7703 22.1429 18.7691C22.1735 18.7607 22.1994 18.7392 22.2159 18.7165C22.2371 18.6878 22.2642 18.6722 22.289 18.6507C22.329 18.616 22.3667 18.5777 22.4068 18.543C22.461 18.4952 22.5175 18.4485 22.5717 18.4007C22.6023 18.3732 22.6318 18.3433 22.6612 18.3145C22.6777 18.299 22.693 18.2834 22.7107 18.2703C22.812 18.1985 22.8968 18.0885 22.9934 18.0107C23.004 18.0023 23.0146 17.9952 23.0252 17.988C23.0664 17.9545 23.1677 17.8648 23.2102 17.8325C23.2337 17.8145 23.2667 17.7703 23.2726 17.7775C23.3232 17.72 23.3421 17.7428 23.3668 17.7212C23.3727 17.7165 23.3916 17.7428 23.4092 17.671C23.4222 17.6519 23.4622 17.4557 23.4658 17.4377C23.4693 17.4162 23.4752 17.3983 23.4905 17.3839C23.5023 17.3719 23.5023 17.2428 23.5423 17.2248C23.5482 17.2224 23.5895 17.1985 23.5954 17.1949C23.6048 17.1901 23.7049 17.165 23.732 17.1662C23.7355 17.1662 23.7414 17.1674 23.7438 17.1662C23.7779 17.1423 23.8133 17.1602 23.8451 17.1698C23.8828 17.1806 23.9193 17.1961 23.9535 17.2152C23.9806 17.2308 24.0018 17.2547 24.0253 17.2751C24.0336 17.2822 24.0418 17.2906 24.0501 17.2966C24.0654 17.3086 24.0819 17.3193 24.0807 17.3432C24.0807 17.3456 24.0819 17.3504 24.083 17.3516C24.1172 17.3791 24.116 17.427 24.1431 17.4581C24.1443 17.482 24.1478 17.5047 24.1455 17.5275C24.1443 17.5478 24.1372 17.6662 24.1337 17.6865C24.1325 17.6937 24.1349 17.7428 24.1361 17.7499C24.1361 17.7727 24.0548 18.1483 24.0536 18.1507C24.0395 18.1818 24.0524 18.2129 24.0501 18.244C24.0465 18.3325 24.043 18.4222 24.0383 18.5107C24.0359 18.543 24.0277 18.5753 24.023 18.6076C24.0206 18.6244 24.0194 18.6423 24.0171 18.6591C24.0124 18.6961 24.0077 18.7344 24.0041 18.7715C24.0029 18.7858 24.0029 18.8002 24.0018 18.8146C23.9982 18.8421 23.9947 18.8684 23.99 18.8959C23.9853 18.9282 23.9747 18.9605 23.9747 18.9928C23.9747 19.037 23.9652 19.0789 23.9594 19.122C23.9558 19.1471 23.9582 19.1734 23.9582 19.1985C23.9582 19.2045 23.9594 19.2105 23.9582 19.2165C23.9488 19.2595 23.9382 19.3026 23.9311 19.3457C23.9264 19.3756 23.9287 19.4067 23.9228 19.4366C23.9087 19.5131 23.9193 19.5897 23.9099 19.6662C23.9087 19.6758 23.9052 19.6866 23.904 19.6961C23.9028 19.7117 23.9028 19.8182 23.8957 19.8564C23.8934 19.8684 23.8934 19.8804 23.8934 19.8923C23.8934 19.9342 23.8946 19.9761 23.8957 20.0179C23.8957 20.0275 23.8969 20.0395 23.9005 20.0478C23.9122 20.0741 23.9122 20.1017 23.9111 20.1292C23.9087 20.1674 23.9075 20.2069 23.9063 20.2452C23.9063 20.2464 23.9063 20.2476 23.9063 20.2488C23.9111 20.3002 23.9452 20.4533 23.9546 20.5048C23.9582 20.5251 23.9652 20.5442 23.97 20.5634C23.9794 20.6005 23.99 20.6387 23.9994 20.6758C23.9994 20.6782 24.0006 20.6806 24.0006 20.6818C23.9923 20.7141 24.0088 20.7416 24.0171 20.7703C24.023 20.7919 24.0289 20.8134 24.0324 20.8361C24.0395 20.8899 24.0595 20.939 24.076 20.9892C24.0795 21 24.0795 21.0132 24.0819 21.0251C24.083 21.0347 24.0854 21.0455 24.0878 21.055C24.0948 21.0778 24.0984 21.1005 24.1078 21.122C24.2268 21.3816 24.1078 21.2034 24.0795 21.1639C24.0677 21.1675 24.0654 21.2057 24.0536 21.2117C24.0312 21.2237 23.9935 21.1902 23.9723 21.2081C23.9676 21.2117 23.9499 21.2057 23.944 21.1986C23.9158 21.1663 23.8781 21.1675 23.8416 21.1687C23.8239 21.1687 23.8133 21.1651 23.8039 21.1507C23.7968 21.1411 23.7897 21.1316 23.7815 21.122C23.7779 21.1172 23.7238 21.1077 23.7037 21.1112C23.6837 21.1136 23.6684 21.1077 23.6543 21.0957C23.6295 21.0754 23.6118 21.049 23.6001 21.0191C23.5777 20.9629 23.5518 20.9079 23.5482 20.8469C23.5482 20.8397 23.5423 20.8313 23.54 20.8242C23.5353 20.8098 23.5317 20.7954 23.5282 20.7811C23.527 20.7739 23.527 20.7667 23.5259 20.7596C23.4952 20.6519 23.4422 20.3732 23.4363 20.3301C23.4281 20.2679 23.4116 20.1124 23.4081 20.0694C23.4069 20.0526 23.4033 20.0371 23.4033 20.0203C23.4033 19.9964 23.3951 19.9306 23.3963 19.921C23.3986 19.8959 23.3939 19.8624 23.3939 19.8373C23.3951 19.7631 23.3927 19.6902 23.3939 19.616C23.3939 19.5921 23.3998 19.4749 23.3939 19.4342C23.3904 19.4127 23.3963 19.3899 23.3975 19.3672C23.401 19.3241 23.3998 19.1961 23.4045 19.1543C23.4069 19.1292 23.4033 18.9222 23.4033 18.9186C23.4057 18.8935 23.4116 18.8672 23.4081 18.8433C23.401 18.7942 23.4116 18.7476 23.4246 18.7009C23.4269 18.6937 23.4257 18.6842 23.4222 18.6782C23.4128 18.6638 23.4128 18.6495 23.4151 18.6339C23.4222 18.5825 23.4293 18.5311 23.4363 18.4796C23.4375 18.4712 23.4399 18.4629 23.4446 18.4569C23.4564 18.4413 23.4564 18.4258 23.4552 18.4079C23.454 18.3935 23.4552 18.3791 23.454 18.3648C23.4493 18.3445 23.4528 18.3325 23.4363 18.3241ZM21.3643 19.9402C21.376 19.9342 21.3855 19.9485 21.3925 19.9426C21.4161 19.9246 21.4243 19.9282 21.4491 19.9115C21.4679 19.8995 21.4891 19.8445 21.4927 19.8229C21.495 19.811 21.4974 19.799 21.5033 19.7883C21.5386 19.7189 21.5716 19.6495 21.5892 19.5729C21.5928 19.555 21.601 19.5383 21.6057 19.5203C21.614 19.482 21.6234 19.4449 21.6281 19.4055C21.6352 19.3528 21.6411 19.3002 21.6458 19.2476C21.647 19.2404 21.6423 19.232 21.6375 19.2248C21.6258 19.2081 21.6199 19.1914 21.6187 19.171C21.6175 19.1483 21.6069 19.1292 21.5881 19.1136C21.5645 19.0933 21.5386 19.0921 21.5115 19.0933C21.4715 19.0945 21.4585 19.1028 21.455 19.1423C21.4502 19.1926 21.4314 19.2392 21.4208 19.2882C21.4102 19.3409 21.3949 19.3935 21.3866 19.4461C21.3819 19.4713 21.3749 19.5514 21.3666 19.5705C21.3643 19.5753 21.3654 19.5801 21.3654 19.5861C21.3631 19.616 21.3595 19.6447 21.3572 19.6746C21.3548 19.7021 21.3513 19.7296 21.3513 19.7572C21.3513 19.8026 21.3537 19.8493 21.356 19.8947C21.3572 19.9091 21.3607 19.9222 21.3643 19.9402Z" fill="#17288B"/>
<path d="M18.8562 17.3982C18.8397 17.415 18.6889 17.4569 18.6724 17.4736C18.6701 17.476 18.6677 17.4808 18.6642 17.482C18.6418 17.4939 18.6183 17.5071 18.5947 17.5167C18.5629 17.5298 18.5311 17.5394 18.4993 17.5514C18.4922 17.5538 18.4851 17.5549 18.4793 17.5549C18.4639 17.5561 18.4498 17.5573 18.4345 17.5561C18.4204 17.5549 18.4062 17.5538 18.3933 17.5502C18.345 17.5358 18.2731 17.5442 18.2272 17.5227C18.2154 17.5179 18.2048 17.5155 18.1965 17.525C18.1918 17.531 18.1942 17.5418 18.193 17.5502C18.1918 17.5597 18.1918 17.5705 18.1907 17.5801C18.1836 17.6315 18.1836 17.6841 18.1918 17.7356C18.2001 17.7834 18.1977 17.8313 18.2013 17.8791C18.2048 17.9258 18.2142 17.9724 18.2236 18.0179C18.2319 18.055 18.2401 18.092 18.2354 18.1303C18.2342 18.1387 18.2366 18.1459 18.2366 18.1542C18.2366 18.1602 18.2389 18.1674 18.2354 18.1722C18.2119 18.2129 18.2036 18.2595 18.1742 18.2978C18.1553 18.3229 18.1353 18.3444 18.1035 18.3516C18.0564 18.3624 18.0104 18.3696 17.9621 18.3492C17.9315 18.3361 17.8537 18.3373 17.8231 18.3217C17.7925 18.305 17.7736 18.281 17.7595 18.2511C17.7536 18.2356 17.7489 18.22 17.7407 18.2057C17.7218 18.1722 17.7183 18.1363 17.7147 18.0992C17.7136 18.0849 17.7124 18.0705 17.7077 18.0573C17.6959 18.0286 17.6959 17.9999 17.6983 17.97C17.6994 17.9485 17.7006 17.9258 17.7006 17.903C17.7006 17.8983 17.7006 17.8947 17.7006 17.8899C17.7006 17.8839 17.7348 17.677 17.7265 17.6195C17.7218 17.5849 17.7289 17.549 17.7301 17.5131C17.7301 17.4963 17.7301 17.4784 17.7301 17.4616C17.7301 17.4545 17.7301 17.4473 17.7301 17.4401C17.7301 17.4377 17.7324 17.4365 17.7312 17.4341C17.7242 17.3923 17.7407 17.3528 17.7395 17.3121C17.7395 17.3061 17.7395 17.3002 17.7407 17.2942C17.7513 17.2523 17.7736 17.1578 17.7736 17.1518C17.7713 17.1136 17.7678 17.0753 17.7642 17.0358C17.7642 17.0298 17.7642 17.0238 17.7642 17.0179C17.7678 16.9915 17.7713 16.9652 17.7748 16.9389C17.776 16.9281 17.7748 16.9162 17.7713 16.9054C17.7642 16.8839 17.763 16.8635 17.7713 16.842C17.7736 16.836 17.7736 16.8277 17.7713 16.8217C17.7595 16.7906 17.7678 16.7583 17.7713 16.7272C17.776 16.6901 17.7831 16.653 17.7901 16.6159C17.796 16.5896 17.8031 16.5621 17.8113 16.5358C17.8208 16.5071 17.8314 16.4784 17.8361 16.4473C17.8396 16.421 17.8549 16.293 17.8596 16.2523C17.8608 16.2451 17.8585 16.2379 17.8585 16.2308C17.8596 16.2152 17.8573 16.1997 17.8632 16.1853C17.8738 16.1578 17.8879 16.1315 17.902 16.1064C17.9103 16.0908 17.9268 16.086 17.9433 16.0848C17.9668 16.0836 18.0246 16.0812 18.0493 16.0824C18.0988 16.086 18.1412 16.1064 18.1789 16.1399C18.2024 16.1602 18.2331 16.1721 18.2519 16.1997C18.2978 16.2176 18.3026 16.2643 18.3026 16.3037C18.3026 16.3456 18.2931 16.3827 18.2872 16.4233C18.2837 16.4413 18.2743 16.4592 18.2637 16.476C18.2448 16.5071 18.2354 16.5418 18.2295 16.5765C18.2225 16.6195 18.2177 16.6638 18.2119 16.7068C18.2107 16.7128 18.2095 16.7188 18.2071 16.7248C18.1859 16.7631 18.2048 16.9006 18.193 16.9293C18.1906 16.9365 18.1954 16.9473 18.1989 16.9557C18.206 16.9712 18.2071 16.988 18.2001 17.0035C18.1942 17.0167 18.1965 17.0286 18.2013 17.0418C18.2083 17.0645 18.2107 17.0872 18.2154 17.1124C18.2189 17.1112 18.2248 17.11 18.2283 17.1064C18.2543 17.0848 18.405 17.0119 18.4298 16.9903C18.4439 16.9784 18.4581 16.964 18.4734 16.9533C18.4981 16.9389 18.5334 16.9305 18.5476 16.9066C18.5629 16.8827 18.6159 16.8564 18.6395 16.842C18.656 16.8313 18.6677 16.8145 18.6795 16.799C18.6984 16.7738 18.7266 16.7559 18.7514 16.7356C18.7667 16.7236 18.7938 16.7057 18.8091 16.6949C18.815 16.6913 18.8209 16.6877 18.8268 16.6841C18.8338 16.6805 18.8433 16.6793 18.8491 16.6746C18.8739 16.653 18.8751 16.6351 18.9045 16.6231C18.9234 16.6159 18.9316 16.5992 18.9328 16.5801C18.9363 16.5394 18.9446 16.4533 18.9434 16.4521C18.9328 16.4138 18.941 16.3755 18.9398 16.3372C18.9387 16.3133 18.9434 16.2882 18.9481 16.2643C18.954 16.2332 18.9516 16.2308 18.9563 16.2128C18.9622 16.1901 18.9705 16.1674 18.974 16.1446C18.9811 16.0956 18.9952 16.0489 19.0117 16.0035C19.02 15.9808 19.0247 15.9556 19.0294 15.9317C19.0329 15.9138 19.0388 15.897 19.0506 15.8815C19.0671 15.8587 19.08 15.8324 19.0906 15.8073C19.0977 15.793 19.1048 15.781 19.1189 15.7726C19.1625 15.7475 19.2084 15.7379 19.2579 15.7439C19.272 15.7451 19.2862 15.7463 19.2991 15.7439C19.338 15.7391 19.3733 15.7535 19.4052 15.7738C19.4428 15.7989 19.4782 15.8276 19.5088 15.8623C19.5324 15.8898 19.5406 15.9233 19.5559 15.9544C19.5606 15.9628 19.5595 15.9748 19.5571 15.9843C19.55 16.0131 19.543 16.0418 19.5336 16.0693C19.5265 16.0908 19.5159 16.1111 19.5065 16.1315C19.5041 16.1375 19.5029 16.1458 19.4959 16.171C19.4829 16.2152 19.4499 16.3241 19.4523 16.3336C19.4593 16.3623 19.4593 16.3623 19.4535 16.3911C19.5218 16.3815 19.6078 16.3564 19.6455 16.3468C19.6926 16.3348 19.7409 16.33 19.7892 16.3324C19.8068 16.3336 19.8245 16.342 19.841 16.3468C19.8528 16.3504 19.8634 16.3564 19.8752 16.3588C19.8881 16.3611 19.8976 16.3671 19.9023 16.3803C19.9117 16.4018 19.9223 16.4233 19.9282 16.4449C19.9352 16.4736 19.94 16.5023 19.9435 16.531C19.9447 16.5442 19.9494 16.5513 19.9612 16.5561C19.98 16.5621 19.9883 16.5765 19.9835 16.5968C19.9835 16.5992 19.9824 16.6016 19.9835 16.6028C19.9941 16.6339 19.9871 16.6662 19.9883 16.6985C19.9883 16.7068 19.9871 16.7176 19.9835 16.7248C19.9682 16.7535 19.9576 16.7858 19.9211 16.7942C19.9176 16.7954 19.914 16.7978 19.9117 16.8013C19.8952 16.8217 19.8763 16.8336 19.8504 16.8372C19.8422 16.8384 19.7998 16.8731 19.7845 16.8815C19.7562 16.8958 19.7279 16.9078 19.6996 16.9198C19.6949 16.9222 19.6561 16.9413 19.6278 16.9533C19.576 16.9736 19.5394 17.0011 19.4888 17.0226C19.4841 17.025 19.4782 17.0262 19.4758 17.0298C19.4499 17.0669 19.411 17.0872 19.3769 17.1124C19.3569 17.1279 19.3486 17.1506 19.3439 17.1758C19.338 17.2009 19.3109 17.5454 19.3121 17.604C19.3121 17.6124 19.3109 17.6207 19.3109 17.6279C19.3097 17.653 19.3133 17.659 19.338 17.6626C19.3604 17.665 19.3816 17.6674 19.404 17.6686C19.4228 17.6698 19.4381 17.677 19.4523 17.6901C19.4641 17.7021 19.4782 17.7128 19.49 17.726C19.4994 17.7368 19.5065 17.7487 19.5147 17.7595C19.5171 17.7631 19.5182 17.7691 19.5194 17.7739C19.5606 17.7858 19.5147 17.9437 19.4735 17.9306C19.4299 17.9605 19.3851 17.988 19.3392 18.0119C19.3345 18.0143 19.3298 18.0167 19.3274 18.0203C19.2815 18.0717 19.2179 18.092 19.159 18.1184C19.1401 18.1267 19.0847 18.1471 19.0659 18.1554C19.0435 18.165 18.9999 18.1674 18.9775 18.177C18.9516 18.1877 18.901 18.1937 18.8751 18.2045C18.8715 18.2057 18.868 18.2093 18.8645 18.2093C18.8256 18.2081 18.7596 18.2296 18.7219 18.2332C18.7043 18.2356 18.6654 18.2523 18.6489 18.244C18.6241 18.2308 18.5888 18.2428 18.5629 18.2308C18.5323 18.2176 18.5122 18.1937 18.5016 18.1626C18.4957 18.1471 18.4922 18.1315 18.4863 18.116C18.4781 18.0968 18.4757 18.0777 18.484 18.0573C18.4946 18.031 18.5028 18.0047 18.5264 17.9844C18.5629 17.9509 18.6088 17.9329 18.6489 17.9066C18.676 17.8887 18.815 17.8468 18.8433 17.8313C18.8786 17.8121 18.8939 17.775 18.8845 17.7332C18.8739 17.6865 18.8609 17.5968 18.8621 17.5801C18.8633 17.5454 18.8609 17.4497 18.8597 17.4006C18.8621 17.4018 18.8597 17.3994 18.8562 17.3982Z" fill="#17288B"/>
<path d="M34.2207 30.3614C33.7059 30.3614 32.5267 30.3075 32.5267 29.7537C32.5267 29.335 33.3937 29.2154 34.2207 29.2154C35.1854 29.2154 35.9005 29.4128 35.9005 29.7537C35.9017 30.3362 34.7461 30.3614 34.2207 30.3614ZM34.2242 32.2573C35.6943 32.2573 36.6285 32.0229 37.3989 31.6281C38.1693 31.2334 38.6122 30.4953 38.6122 29.7393C38.6122 28.9905 38.1917 28.3793 37.4319 27.9881C36.6638 27.5922 35.6943 27.4199 34.2242 27.4199C32.7694 27.4199 31.7976 27.5754 31.0272 27.9702C30.2568 28.3649 29.8303 28.9989 29.8303 29.7393C29.8303 30.4965 30.2709 31.2346 31.0378 31.6281C31.8046 32.0217 32.7611 32.2573 34.2242 32.2573Z" fill="#17288B"/>
<path d="M14.3081 21.6934V27.3167L8 27.3179V21.6993L14.3081 21.6934ZM10.3489 23.6563V25.3609H12.1017V23.6563H10.3489Z" fill="#17288B"/>
<path d="M15.319 21.5114V28.8058H17.7279V21.5078L15.319 21.5114Z" fill="#17288B"/>
<path d="M11.6906 29.898L17.762 29.7855V32.0236H8.76453L8.84463 28.0176H11.7743L11.6906 29.898Z" fill="#17288B"/>
<path d="M29.5006 21.6969V26.9949C29.5006 26.9949 32.2265 27.0535 33.7897 26.8681C35.0996 26.7126 35.7145 26.3717 35.7145 26.3717L35.1962 24.5379C35.1962 24.5379 34.7403 24.7329 34.0476 24.825C33.11 24.9506 31.9932 24.9147 31.9932 24.9147V23.6587H35.1903V21.6934L29.5006 21.6969Z" fill="#17288B"/>
<path d="M40 23.7407L38.4416 23.8328V21.5098H36.1433V27.1534H38.4416V25.9357L39.9741 26.0074L40 23.7407Z" fill="#17288B"/>
<path d="M28.5487 27.5332L18.7938 27.5464V29.6792L22.3596 29.6816L22.2288 32.0692H25.076L24.95 29.6828L28.5487 29.6852V27.5332Z" fill="#17288B"/>
<path d="M27.0623 24.9147C25.869 24.6826 25.2941 24.2101 25.1704 23.6635L28.1554 23.6743V21.6934L19.1886 21.6946V23.6731L22.1289 23.6683C22.0276 24.13 21.4916 24.6707 20.2359 24.898C19.5762 25.0176 18.92 25.0547 18.92 25.0547L19.522 27.1001C19.522 27.1001 21.1076 27.0619 21.8815 26.8059C22.8427 26.4865 23.3811 26.0427 23.6497 25.5535C23.9171 26.0415 24.4566 26.4865 25.4178 26.8059C26.1917 27.0631 27.8386 27.1001 27.8386 27.1001L28.4181 25.0547C28.417 25.0547 27.7726 25.0523 27.0623 24.9147Z" fill="#17288B"/>
</svg>
