<svg width="24" height="28" viewBox="0 0 24 28" fill="none" xmlns="http://www.w3.org/2000/svg">
<g clip-path="url(#clip0_40006669_21969)">
<path d="M14.511 15.1L12.8366 3H12.7116C6.62298 3.01752 1.6916 7.87698 1.67383 13.8768V14L14.511 15.1Z" fill="#ED6C47"/>
<path d="M12.9629 3H12.8379V14L18.4193 16.2L24.0007 14V13.8768C23.9829 7.87698 19.0515 3.01752 12.9629 3Z" fill="#FF8F6B"/>
<path d="M23.9994 14V14.121C23.9819 20.1222 19.0494 24.9828 12.9594 25H12.7138C6.62386 24.9828 1.6913 20.1222 1.67383 14.121V14H23.9994Z" fill="#D35230"/>
<path opacity="0.1" d="M13.3948 8.40592V20.1429C13.392 20.5508 13.1412 20.9171 12.7585 21.0724C12.6366 21.1232 12.5057 21.1494 12.3734 21.1494H4.30826C4.15198 20.9734 4.00129 20.7864 3.86175 20.5994C2.43977 18.7302 1.67199 16.4566 1.67384 14.1204V13.8784C1.67058 11.7713 2.29552 9.70959 3.47105 7.94941C3.59384 7.76241 3.72221 7.57541 3.86175 7.39941H12.3734C12.9357 7.40361 13.3905 7.85179 13.3948 8.40592Z" fill="black"/>
<path opacity="0.2" d="M12.8366 8.9567V20.6937C12.8366 20.8241 12.81 20.9531 12.7585 21.0732C12.6009 21.4503 12.2291 21.6975 11.8152 21.7002H4.81617C4.63958 21.5235 4.47014 21.3401 4.30826 21.1502C4.15198 20.9742 4.00129 20.7872 3.86175 20.6002C2.43977 18.7309 1.67199 16.4573 1.67384 14.1212V13.8792C1.67058 11.772 2.29552 9.71037 3.47105 7.9502H11.8152C12.3776 7.95438 12.8324 8.40256 12.8366 8.9567Z" fill="black"/>
<path opacity="0.2" d="M12.8366 8.95669V19.5937C12.8324 20.1478 12.3776 20.596 11.8152 20.6002H3.86175C2.43977 18.7309 1.67199 16.4573 1.67384 14.1212V13.8792C1.67058 11.772 2.29552 9.71037 3.47105 7.9502H11.8152C12.3776 7.95437 12.8324 8.40255 12.8366 8.95669Z" fill="black"/>
<path opacity="0.2" d="M12.2785 8.95669V19.5937C12.2742 20.1478 11.8194 20.596 11.2571 20.6002H3.86175C2.43977 18.7309 1.67199 16.4573 1.67384 14.1212V13.8792C1.67058 11.772 2.29552 9.71037 3.47105 7.9502H11.2571C11.8194 7.95437 12.2742 8.40255 12.2785 8.95669Z" fill="black"/>
<path d="M1.02306 7.9502H11.256C11.821 7.9502 12.2791 8.40156 12.2791 8.95834V19.042C12.2791 19.5988 11.821 20.0502 11.256 20.0502H1.02306C0.458049 20.0502 0 19.5988 0 19.0421V8.95834C0 8.40156 0.458049 7.9502 1.02306 7.9502Z" fill="url(#paint0_linear_40006669_21969)"/>
<path d="M6.25079 10.6391C6.91692 10.5948 7.57731 10.7855 8.11386 11.177C8.33472 11.3713 8.50788 11.6125 8.62023 11.8825C8.73259 12.1524 8.78121 12.444 8.76241 12.7352C8.76972 13.1453 8.65883 13.549 8.44261 13.8995C8.2237 14.244 7.90831 14.5186 7.53451 14.6904C7.10716 14.8863 6.63993 14.983 6.16873 14.9731H4.87441V17.3436H3.54883V10.6391H6.25079ZM4.8733 13.949H6.01414C6.37582 13.9752 6.73468 13.8697 7.02271 13.6526C7.14039 13.5413 7.23191 13.406 7.29083 13.2562C7.34975 13.1063 7.37463 12.9456 7.36373 12.7852C7.36373 12.0464 6.928 11.677 6.05657 11.677H4.87331V13.949H4.8733Z" fill="white"/>
</g>
<defs>
<linearGradient id="paint0_linear_40006669_21969" x1="2.13312" y1="7.16245" x2="9.97068" y2="20.9377" gradientUnits="userSpaceOnUse">
<stop stop-color="#CA4C28"/>
<stop offset="0.5" stop-color="#C5401E"/>
<stop offset="1" stop-color="#B62F14"/>
</linearGradient>
<clipPath id="clip0_40006669_21969">
<rect width="24" height="22" fill="white" transform="translate(0 3)"/>
</clipPath>
</defs>
</svg>
