<svg width="40" height="40" viewBox="0 0 40 40" fill="none" xmlns="http://www.w3.org/2000/svg">
<path d="M0 8C0 3.58172 3.58172 0 8 0H32C36.4183 0 40 3.58172 40 8V32C40 36.4183 36.4183 40 32 40H8C3.58172 40 0 36.4183 0 32V8Z" fill="#69C374"/>
<path d="M16.5039 22.0977H19.0234L20.0977 23.4746C20.7715 22.6934 21.1621 21.4922 21.1523 19.9297C21.1621 16.9023 19.7168 15.2715 17.5391 15.2617C15.3418 15.2715 13.9062 16.9023 13.9062 19.9297C13.9062 22.9473 15.3418 24.5879 17.5391 24.5977C17.8223 24.5977 18.0957 24.5684 18.3496 24.5098L16.5039 22.0977ZM10.918 19.9297C10.918 15.3105 13.7695 12.6641 17.5391 12.6641C21.2793 12.6641 24.1406 15.3105 24.1406 19.9297C24.1406 22.459 23.2812 24.3926 21.8945 25.6328L23.9062 28.1719H21.1523L20.0195 26.7656C19.2578 27.0488 18.418 27.1953 17.5391 27.1953C13.7695 27.1953 10.918 24.5293 10.918 19.9297ZM26.5117 27.1758C25.5938 27.1758 24.8516 26.4434 24.8711 25.5352C24.8516 24.6367 25.5938 23.9043 26.5117 23.9141C27.3809 23.9043 28.1328 24.6367 28.1328 25.5352C28.1328 26.4434 27.3809 27.1758 26.5117 27.1758Z" fill="white"/>
</svg>
