<svg width="93" height="83" viewBox="0 0 93 83" fill="none" xmlns="http://www.w3.org/2000/svg">
<path d="M33.418 78.2495H37.6708C39.3639 78.2495 40.7345 76.8789 40.7345 75.1858V69.5391H33.418V78.2495Z" fill="#FFD2C2"/>
<path d="M33.4183 70.1668L42.3271 70.1265C42.3271 59.0408 33.2571 49.9707 22.1714 49.9707C11.0857 49.9707 2.01562 59.0408 2.01562 70.1265L11.3074 70.1668V82.2602H33.4183V70.1668Z" fill="#BBEBC8"/>
<path d="M10.1582 75.4607V65.2344C10.1582 64.6249 10.6523 64.1309 11.2617 64.1309C11.8712 64.1309 12.3652 64.6249 12.3652 65.2344V75.4607C12.3652 75.4607 11.9394 75.4607 11.3303 75.4607C10.7211 75.4607 10.1582 75.4607 10.1582 75.4607Z" fill="#85AC8F"/>
<path d="M32.0371 75.4607V65.2344C32.0371 64.6249 32.5312 64.1309 33.1406 64.1309C33.7501 64.1309 34.2442 64.6249 34.2442 65.2344V75.4607C34.2442 75.4607 33.8183 75.4607 33.2092 75.4607C32.6 75.4607 32.0371 75.4607 32.0371 75.4607Z" fill="#85AC8F"/>
<path d="M23.2991 54.4013H21.0417C18.885 54.4013 17.1113 52.6276 17.1113 50.471V42.2273C17.1113 40.0706 18.885 38.2969 21.0417 38.2969H23.2991C25.4558 38.2969 27.2295 40.0706 27.2295 42.2273V50.471C27.2295 52.6276 25.4558 54.4013 23.2991 54.4013Z" fill="#F1BBA7"/>
<path d="M11.3068 78.2459H7.05391C5.36083 78.2459 3.99023 76.8754 3.99023 75.1823L4.03157 70.0898H11.3481L11.3068 78.2459Z" fill="#FFD2C2"/>
<g clip-path="url(#clip0_40006680_425273)">
<path d="M29.2698 63.046C27.3751 61.1513 24.2913 61.1513 22.3967 63.046L22.0339 63.4088L21.671 63.046C19.7764 61.1513 16.6926 61.1513 14.7979 63.046C12.9033 64.9406 12.9033 68.0245 14.7979 69.9191L15.1607 70.2819L19.1919 74.3131C20.764 75.8852 23.3037 75.8852 24.8758 74.3131L28.907 70.2819L29.2698 69.9191C31.1644 68.0245 31.1644 64.9406 29.2698 63.046Z" fill="#FF5082"/>
</g>
<path d="M12.6575 76.0104C15.1177 76.0104 17.112 74.0161 17.112 71.556C17.112 69.0959 15.1177 67.1016 12.6575 67.1016C10.1974 67.1016 8.20312 69.0959 8.20312 71.556C8.20312 74.0161 10.1974 76.0104 12.6575 76.0104Z" fill="#FFD2C2"/>
<path d="M31.806 76.0104C34.2661 76.0104 36.2604 74.0161 36.2604 71.556C36.2604 69.0959 34.2661 67.1016 31.806 67.1016C29.3459 67.1016 27.3516 69.0959 27.3516 71.556C27.3516 74.0161 29.3459 76.0104 31.806 76.0104Z" fill="#FFD2C2"/>
<path d="M40.7612 35.3829H37.9394C36.5486 35.3829 35.4199 34.2541 35.4199 32.8634V30.5253C35.4199 29.1346 36.5486 28.0059 37.9394 28.0059H40.7612C42.1519 28.0059 43.2807 29.1346 43.2807 30.5253V32.8634C43.2807 34.234 42.1318 35.3829 40.7612 35.3829Z" fill="#F2BBA7"/>
<path d="M6.25339 35.3829H3.43158C2.04083 35.3829 0.912109 34.2541 0.912109 32.8634V30.5253C0.912109 29.1346 2.04083 28.0059 3.43158 28.0059H6.25339C7.64413 28.0059 8.77286 29.1346 8.77286 30.5253V32.8634C8.77286 34.234 7.64413 35.3829 6.25339 35.3829Z" fill="#F2BBA7"/>
<path d="M25.6644 49.6513H18.5494C11.7166 49.6513 6.11328 44.048 6.11328 37.2152V20.2037C6.11328 14.1973 11.0313 9.2793 17.0377 9.2793H27.1559C33.1623 9.2793 38.0803 14.1973 38.0803 20.2037V37.2152C38.1005 44.048 32.4972 49.6513 25.6644 49.6513Z" fill="#FFD2C2"/>
<path d="M21.9755 41.9181C20.5646 41.9181 19.0328 41.5351 17.5413 40.487C17.0978 40.1645 16.9769 39.5397 17.2994 39.0761C17.6219 38.6327 18.2467 38.5118 18.7103 38.8343C22.036 41.1925 25.3415 38.935 25.4826 38.8343C25.9462 38.5118 26.571 38.6125 26.8935 39.0761C27.216 39.5195 27.1152 40.1645 26.6517 40.487C25.7447 41.1522 23.9911 41.9181 21.9755 41.9181Z" fill="#917368"/>
<path d="M15.7275 34.4002C16.7182 34.4002 17.5213 33.5971 17.5213 32.6064C17.5213 31.6156 16.7182 30.8125 15.7275 30.8125C14.7367 30.8125 13.9336 31.6156 13.9336 32.6064C13.9336 33.5971 14.7367 34.4002 15.7275 34.4002Z" fill="#312926"/>
<path d="M28.4853 34.4002C29.476 34.4002 30.2791 33.5971 30.2791 32.6064C30.2791 31.6156 29.476 30.8125 28.4853 30.8125C27.4945 30.8125 26.6914 31.6156 26.6914 32.6064C26.6914 33.5971 27.4945 34.4002 28.4853 34.4002Z" fill="#312926"/>
<path d="M22.0957 36.6577C21.5313 36.6577 21.0879 36.2143 21.0879 35.6499V34.3398C21.0879 33.7755 21.5313 33.332 22.0957 33.332C22.66 33.332 23.1035 33.7755 23.1035 34.3398V35.6499C23.1035 36.2143 22.6399 36.6577 22.0957 36.6577Z" fill="#917368"/>
<path d="M31.1064 39.8593C32.3421 39.8593 33.3437 38.8577 33.3437 37.6221C33.3437 36.3864 32.3421 35.3848 31.1064 35.3848C29.8708 35.3848 28.8691 36.3864 28.8691 37.6221C28.8691 38.8577 29.8708 39.8593 31.1064 39.8593Z" fill="#FF8597"/>
<path d="M13.4892 39.8593C14.7249 39.8593 15.7265 38.8577 15.7265 37.6221C15.7265 36.3864 14.7249 35.3848 13.4892 35.3848C12.2536 35.3848 11.252 36.3864 11.252 37.6221C11.252 38.8577 12.2536 39.8593 13.4892 39.8593Z" fill="#FF8597"/>
<path d="M43.2168 11.4342C40.133 2.22301 30.2969 -0.135211 22.1137 0.00587912C22.0935 0.00587912 22.0935 0.00587912 22.0734 0.00587912C22.0532 0.00587912 22.0532 0.00587912 22.0331 0.00587912C13.8297 -0.135211 3.99367 2.22301 0.909842 11.4342C-2.17399 20.6655 3.5704 27.9821 3.5704 27.9821H6.13018H8.55167L12.2172 24.8579L22.0734 24.7773L31.9296 24.8579H38.0166V27.9821H40.5764C40.5562 27.9821 46.3006 20.6655 43.2168 11.4342Z" fill="#444236"/>
<path d="M24.4536 18.5137C24.4536 18.5137 21.8737 27.9869 13.8517 27.9869H7.03906C7.03906 27.9869 13.8517 22.4037 13.8517 18.5137" fill="#444236"/>
<path d="M38.1001 18.5117C38.1001 18.5117 35.5202 27.9849 27.4982 27.9849H20.6855C20.6855 27.9849 27.4982 22.4018 27.4982 18.5117" fill="#444236"/>
<path d="M26.951 28.6294H20.1384C19.7151 28.6294 19.3321 28.3674 19.191 27.9643C19.0499 27.5612 19.1709 27.1177 19.4934 26.8355C21.2872 25.3642 25.9432 20.9299 25.9432 18.1484C25.9432 17.5841 26.3866 17.1406 26.951 17.1406C27.5154 17.1406 27.9588 17.5841 27.9588 18.1484C27.9588 21.071 24.9153 24.5378 22.7586 26.6138H26.951C34.1063 26.6138 36.4847 18.229 36.5855 17.8864C36.7265 17.3623 37.2909 17.0398 37.815 17.1809C38.3592 17.322 38.6615 17.8864 38.5204 18.4104C38.5002 18.5112 35.6381 28.6294 26.951 28.6294Z" fill="#3A382C"/>
<path d="M81.4312 82.667V74.8761V65.7831C81.4312 59.802 79.1579 55.123 70.9698 55.123C62.7817 55.123 56.0723 62.8477 56.0723 72.2938V82.6228L81.4312 82.667Z" fill="#EFECD3"/>
<path d="M71.1045 58.8972C68.743 58.8972 66.8008 56.955 66.8008 54.5934V49.4951C66.8008 47.1336 68.743 45.1914 71.1045 45.1914C73.4661 45.1914 75.4083 47.1336 75.4083 49.4951V54.5934C75.4083 56.955 73.4661 58.8972 71.1045 58.8972Z" fill="#F1BBA7"/>
<path d="M76.0898 56.0267C78.2748 57.064 84.7194 60.5291 84.7194 60.5291C84.7194 60.5291 85.3594 51.7671 85.2711 49.3614C85.1608 46.4923 87.5885 44.9253 89.5307 46.8233C91.4729 48.7214 91.2743 57.9027 91.2964 60.816C91.3184 62.7361 91.9143 68.7613 86.485 68.4965C81.0557 68.2316 79.5108 66.6426 79.5108 66.6426" fill="#EFECD3"/>
<path d="M87.9865 50.5746C89.7784 50.5746 91.2309 49.1221 91.2309 47.3303C91.2309 45.5385 89.7784 44.0859 87.9865 44.0859C86.1947 44.0859 84.7422 45.5385 84.7422 47.3303C84.7422 49.1221 86.1947 50.5746 87.9865 50.5746Z" fill="#FFD2C2"/>
<path d="M61.7871 82.6064V71.0625C61.7871 70.453 62.2812 69.959 62.8906 69.959C63.5001 69.959 63.9942 70.453 63.9942 71.0625V82.6064C63.9942 82.6064 63.4997 82.6064 62.8906 82.6064C62.2815 82.6064 61.7871 82.6064 61.7871 82.6064Z" fill="#B4B08B"/>
<path d="M68.8512 64.0898L69.0732 64.1114C69.5765 64.2139 69.9547 64.6597 69.9547 65.1934C69.9547 65.727 69.5765 66.1728 69.0732 66.2753L68.8512 66.2969H65.9824C65.373 66.2969 64.8789 65.8028 64.8789 65.1934C64.8789 64.5839 65.373 64.0898 65.9824 64.0898H68.8512Z" fill="#B4B08B"/>
<path d="M56.6196 43.7344C56.6196 43.7344 57.1793 48.9748 54.9125 54.0515C52.6457 59.1281 53.3173 69.0086 58.3267 66.2519C63.3361 63.5225 63.7279 54.1334 62.5525 49.6299C61.3772 45.1264 56.6196 43.7344 56.6196 43.7344Z" fill="#2F303B"/>
<path d="M70.1372 17.7978C73.6303 17.7978 76.462 15.0361 76.462 11.6294C76.462 8.22264 73.6303 5.46094 70.1372 5.46094C66.6442 5.46094 63.8125 8.22264 63.8125 11.6294C63.8125 15.0361 66.6442 17.7978 70.1372 17.7978Z" fill="#2F303B"/>
<path d="M75.3566 11.6314C75.3566 8.86001 73.044 6.56642 70.1343 6.56642C67.2249 6.56697 64.9141 8.86034 64.9141 11.6314C64.9141 14.4024 67.225 16.6959 70.1343 16.6964C73.044 16.6964 75.3565 14.4028 75.3566 11.6314ZM77.5636 11.6314C77.5636 15.6734 74.2105 18.9034 70.1343 18.9034C66.0584 18.9029 62.7071 15.6731 62.707 11.6314C62.707 7.5897 66.0584 4.35993 70.1343 4.35938C74.2106 4.35938 77.5636 7.58936 77.5636 11.6314Z" fill="#2F303B"/>
<path d="M89.501 41.0014H88.0177C86.0867 41.0014 84.5195 39.473 84.5195 37.5897V36.6344C84.5195 34.7511 86.0867 33.2227 88.0177 33.2227H89.501C91.432 33.2227 92.9992 34.7511 92.9992 36.6344V37.5897C92.9992 39.4457 91.432 41.0014 89.501 41.0014Z" fill="#F1BBA7"/>
<path d="M52.2256 41.0014H50.7423C48.8113 41.0014 47.2441 39.473 47.2441 37.5897V36.6344C47.2441 34.7511 48.8113 33.2227 50.7423 33.2227H52.2256C54.1566 33.2227 55.7238 34.7511 55.7238 36.6344V37.5897C55.7518 39.4457 54.1566 41.0014 52.2256 41.0014Z" fill="#F1BBA7"/>
<path d="M70.1362 56.0123C60.6491 56.0123 52.8691 48.4246 52.8691 39.1719V28.3089C52.8691 20.1753 59.6976 13.5156 68.0373 13.5156H72.2352C80.5749 13.5156 87.4033 20.1753 87.4033 28.3089V39.1719C87.4033 48.4519 79.6233 56.0123 70.1362 56.0123Z" fill="#FFD2C2"/>
<path d="M74.5797 45.7427L75.0474 46.4152L75.0431 46.4173L75.0388 46.4216L74.9698 46.4647C74.9274 46.4923 74.8692 46.5301 74.7952 46.5747C74.6471 46.6638 74.4363 46.7842 74.1723 46.9152C73.6467 47.176 72.8959 47.488 71.9912 47.6976C70.2817 48.0935 67.9941 48.1219 65.6869 46.7148L65.2256 46.413L65.0554 46.2686C64.7012 45.8972 64.6455 45.3163 64.9497 44.8784C65.2539 44.441 65.8168 44.2909 66.2882 44.4926L66.4843 44.6026L66.8249 44.8246C68.5279 45.8662 70.192 45.8501 71.4933 45.5487C72.1937 45.3865 72.7807 45.1406 73.1917 44.9366C73.396 44.8352 73.5544 44.7463 73.6572 44.6845C73.7079 44.654 73.7447 44.6301 73.7671 44.6155C73.7766 44.6093 73.7847 44.6052 73.7887 44.6026C74.2892 44.2548 74.9777 44.3779 75.3254 44.8784C75.6728 45.3789 75.5477 46.0654 75.0474 46.413L74.5797 45.7427ZM74.2586 45.2793C74.3065 45.3483 74.3598 45.424 74.418 45.5078L74.5797 45.7427L74.2586 45.2793Z" fill="#917368"/>
<path d="M63.2513 39.9619C64.3178 39.9619 65.1823 39.1187 65.1823 38.0786C65.1823 37.0385 64.3178 36.1953 63.2513 36.1953C62.1849 36.1953 61.3203 37.0385 61.3203 38.0786C61.3203 39.1187 62.1849 39.9619 63.2513 39.9619Z" fill="#312926"/>
<path d="M77.0189 39.9619C78.0854 39.9619 78.9499 39.1187 78.9499 38.0786C78.9499 37.0385 78.0854 36.1953 77.0189 36.1953C75.9524 36.1953 75.0879 37.0385 75.0879 38.0786C75.0879 39.1187 75.9524 39.9619 77.0189 39.9619Z" fill="#312926"/>
<path d="M69.0039 41.2712V39.8789C69.0039 39.2695 69.498 38.7754 70.1074 38.7754C70.7169 38.7754 71.2109 39.2695 71.2109 39.8789V41.2712C71.2108 41.8805 70.7168 42.3748 70.1074 42.3748C69.4981 42.3748 69.0041 41.8805 69.0039 41.2712Z" fill="#917368"/>
<path d="M79.8469 45.7218C81.1915 45.7218 82.2816 44.6587 82.2816 43.3472C82.2816 42.0358 81.1915 40.9727 79.8469 40.9727C78.5022 40.9727 77.4121 42.0358 77.4121 43.3472C77.4121 44.6587 78.5022 45.7218 79.8469 45.7218Z" fill="#FF8597"/>
<path d="M60.8176 45.7218C62.1622 45.7218 63.2523 44.6587 63.2523 43.3472C63.2523 42.0358 62.1622 40.9727 60.8176 40.9727C59.4729 40.9727 58.3828 42.0358 58.3828 43.3472C58.3828 44.6587 59.4729 45.7218 60.8176 45.7218Z" fill="#FF8597"/>
<path d="M87.4033 28.9113C87.4033 28.9113 79.0636 20.7777 77.6644 22.0332L79.5954 28.1471C79.5954 28.1471 75.8733 28.5565 70.9478 28.5565H69.9683C65.0429 28.5565 61.3208 28.1471 61.3208 28.1471L63.2518 22.0332C61.8525 20.7777 52.8691 28.3108 52.8691 28.3108C52.8691 28.3108 54.2124 15.4281 65.3787 13.7359L70.1362 13.4902C70.1362 13.4902 75.5934 13.5175 78.7558 14.9368C85.2764 17.8573 86.4518 22.7975 87.4033 28.9113Z" fill="#2F303B"/>
<path d="M70.2125 12.3867C70.2565 12.3873 70.3209 12.3892 70.4022 12.391C70.5644 12.3947 70.7972 12.402 71.0854 12.4147C71.6629 12.4402 72.4677 12.4879 73.3743 12.5829C75.1552 12.7693 77.457 13.1448 79.2066 13.9299L79.8424 14.2295C82.9445 15.7567 84.8833 17.7845 86.1467 20.217C87.4672 22.7595 88.0189 25.6895 88.4939 28.7413C88.5669 29.2106 88.3298 29.6745 87.9076 29.8922C87.5386 30.0821 87.0991 30.0481 86.7675 29.8146L86.6317 29.7004C86.6308 29.6996 86.6292 29.6978 86.6274 29.6961C86.6238 29.6925 86.6174 29.6881 86.6101 29.681C86.5951 29.6664 86.5732 29.643 86.5433 29.6142C86.4835 29.5564 86.3938 29.4722 86.2804 29.3641C86.0531 29.1475 85.7269 28.8367 85.3299 28.4697C84.5344 27.7344 83.4628 26.7722 82.3534 25.851C81.2778 24.9579 80.1974 24.1356 79.3122 23.5922L80.6464 27.8145C80.7459 28.1295 80.6996 28.4731 80.5192 28.7499C80.384 28.9572 80.1842 29.1103 79.9545 29.1896L79.7153 29.2434H79.711C79.7088 29.2437 79.706 29.2452 79.7023 29.2456C79.6944 29.2465 79.6828 29.2483 79.6679 29.2499C79.6378 29.2531 79.5935 29.2571 79.5364 29.2628C79.4216 29.2744 79.2528 29.2908 79.0364 29.3103C78.6027 29.3493 77.9739 29.4007 77.1914 29.4525C75.6268 29.5561 73.4397 29.6594 70.9474 29.6594H69.9668C67.4754 29.6594 65.2893 29.556 63.725 29.4525C62.9425 29.4007 62.3138 29.3493 61.88 29.3103C61.6635 29.2907 61.495 29.2744 61.38 29.2628C61.3231 29.2571 61.2787 29.2531 61.2485 29.2499C61.2341 29.2484 61.222 29.2465 61.214 29.2456C61.21 29.2452 61.2055 29.2437 61.2033 29.2434H61.199C60.8708 29.2071 60.5753 29.0265 60.395 28.7499C60.2147 28.4731 60.1684 28.1295 60.2679 27.8145L61.658 23.4112C61.6198 23.4301 61.5793 23.4469 61.5395 23.4672C60.5748 23.959 59.3733 24.7443 58.175 25.5988C56.9859 26.4468 55.8363 27.3373 54.9809 28.0171C54.5541 28.3562 54.2018 28.642 53.9571 28.8426C53.835 28.9426 53.7393 29.0218 53.6747 29.0753C53.6428 29.1018 53.6178 29.1221 53.6015 29.1357C53.5934 29.1424 53.5882 29.1496 53.5842 29.1529C53.5822 29.1546 53.5787 29.1543 53.5778 29.1551V29.1572C53.2333 29.4458 52.7483 29.4953 52.3514 29.2844C51.9543 29.0734 51.725 28.6432 51.7716 28.196V28.1895C51.7719 28.1869 51.7733 28.1826 51.7738 28.1787C51.7747 28.1702 51.7742 28.1584 51.7759 28.1442C51.7794 28.1148 51.7862 28.0738 51.7932 28.0214C51.8071 27.9159 51.8288 27.7649 51.86 27.5752C51.9224 27.1958 52.0235 26.6579 52.1811 26.0105C52.4955 24.719 53.0371 22.9717 53.9506 21.161C55.7799 17.5353 59.157 13.5633 65.2122 12.6454L65.3221 12.6346L70.0789 12.3889L70.1414 12.3867H70.2125ZM65.5053 14.833C60.4186 15.6182 57.5504 18.9242 55.9206 22.1546C55.3197 23.3456 54.8961 24.5142 54.5994 25.5169C55.294 24.9799 56.0829 24.3824 56.8948 23.8034C58.1172 22.9317 59.4241 22.0691 60.5373 21.5016C61.0874 21.2211 61.6486 20.9814 62.1602 20.8657C62.5954 20.7674 63.3827 20.6697 63.9879 21.2127C64.3102 21.5021 64.4331 21.9528 64.3026 22.3658L62.7874 27.1657C63.101 27.1906 63.4633 27.2229 63.8694 27.2498C65.397 27.3509 67.5341 27.4524 69.9668 27.4524H70.9474C73.3804 27.4524 75.5171 27.3509 77.0448 27.2498C77.4508 27.2229 77.8133 27.1906 78.1268 27.1657L76.6116 22.3658C76.4812 21.953 76.6044 21.5021 76.9263 21.2127C77.5529 20.6505 78.3532 20.7849 78.7842 20.9067C79.2849 21.0482 79.8234 21.3201 80.3425 21.6309C81.3956 22.2614 82.6217 23.205 83.763 24.1526C84.4569 24.7288 85.1316 25.32 85.7372 25.8618C85.3699 24.148 84.9016 22.6092 84.1876 21.2343C83.1488 19.2344 81.5614 17.5317 78.8596 16.2038L78.3035 15.943C76.8909 15.309 74.8819 14.9611 73.1437 14.7791C72.2913 14.6899 71.5326 14.6436 70.9884 14.6196C70.7169 14.6077 70.4986 14.6014 70.3504 14.5981C70.2768 14.5964 70.2197 14.5943 70.1823 14.5938C70.1702 14.5936 70.1601 14.5938 70.1521 14.5938L65.5053 14.833Z" fill="#2F303B"/>
<path d="M68.3603 25.371C68.2367 25.9669 67.6546 26.3512 67.0584 26.2288C66.4617 26.1057 66.0778 25.5216 66.2006 24.9249L68.3603 25.371ZM68.4551 19.4547C69.0514 19.5779 69.4354 20.16 69.3129 20.7565L68.3603 25.371L67.2804 25.1469L66.2006 24.9249L67.1511 20.3125L67.2179 20.0991C67.4201 19.6269 67.9325 19.3469 68.4551 19.4547Z" fill="#494B60"/>
<path d="M72.2096 19.4545C72.7318 19.3471 73.2425 19.6272 73.4446 20.0989L73.5115 20.3123L74.4641 24.9247C74.5868 25.5214 74.203 26.1056 73.6063 26.2287C73.0097 26.3517 72.4258 25.9672 72.3023 25.3708L71.3518 20.7563L71.3281 20.5343C71.3276 20.0213 71.6876 19.5622 72.2096 19.4545Z" fill="#494B60"/>
<defs>
<clipPath id="clip0_40006680_425273">
<rect width="19.3294" height="15.8626" fill="white" transform="translate(12.0938 60.625)"/>
</clipPath>
</defs>
</svg>
