<svg width="40" height="40" viewBox="0 0 40 40" fill="none" xmlns="http://www.w3.org/2000/svg">
<path fill-rule="evenodd" clip-rule="evenodd" d="M13.0361 12.9931C16.3498 9.67939 21.7224 9.67939 25.0361 12.9931C28.1252 16.0823 28.3326 20.9593 25.662 24.2909L29.4501 28.079L28.0361 29.4931L24.2372 25.6943C20.9085 28.2846 16.0957 28.0526 13.0361 24.9931C9.72235 21.6794 9.72235 16.3068 13.0361 12.9931ZM23.622 14.4072C21.0893 11.8745 16.9828 11.8745 14.4501 14.4072C11.9175 16.9398 11.9175 21.0464 14.4501 23.579C16.9828 26.1116 21.0894 26.1117 23.622 23.579C26.1546 21.0464 26.1546 16.9398 23.622 14.4072Z" fill="#454C53"/>
</svg>
