<svg width="664" height="62" viewBox="0 0 664 62" fill="none" xmlns="http://www.w3.org/2000/svg">
<path d="M0 22C0 17.5817 3.58172 14 8 14H40C44.4183 14 48 17.5817 48 22V54C48 58.4183 44.4183 62 40 62H8C3.58172 62 0 58.4183 0 54V22Z" fill="#E8EBED"/>
<path d="M56 22C56 17.5817 59.5817 14 64 14H96C100.418 14 104 17.5817 104 22V54C104 58.4183 100.418 62 96 62H64C59.5817 62 56 58.4183 56 54V22Z" fill="#E8EBED"/>
<path d="M112 22C112 17.5817 115.582 14 120 14H152C156.418 14 160 17.5817 160 22V54C160 58.4183 156.418 62 152 62H120C115.582 62 112 58.4183 112 54V22Z" fill="#E8EBED"/>
<path d="M168 22C168 17.5817 171.582 14 176 14H208C212.418 14 216 17.5817 216 22V54C216 58.4183 212.418 62 208 62H176C171.582 62 168 58.4183 168 54V22Z" fill="#E8EBED"/>
<path d="M224 22C224 17.5817 227.582 14 232 14H264C268.418 14 272 17.5817 272 22V54C272 58.4183 268.418 62 264 62H232C227.582 62 224 58.4183 224 54V22Z" fill="#E8EBED"/>
<path d="M280 22C280 17.5817 283.582 14 288 14H320C324.418 14 328 17.5817 328 22V54C328 58.4183 324.418 62 320 62H288C283.582 62 280 58.4183 280 54V22Z" fill="#69C374"/>
<circle cx="304" cy="38" r="4" fill="white"/>
<path d="M336 22C336 17.5817 339.582 14 344 14H376C380.418 14 384 17.5817 384 22V54C384 58.4183 380.418 62 376 62H344C339.582 62 336 58.4183 336 54V22Z" fill="#69C374"/>
<circle cx="360" cy="38" r="4" fill="white"/>
<path d="M392 22C392 17.5817 395.582 14 400 14H432C436.418 14 440 17.5817 440 22V54C440 58.4183 436.418 62 432 62H400C395.582 62 392 58.4183 392 54V22Z" fill="#E8EBED"/>
<path d="M448 22C448 17.5817 451.582 14 456 14H488C492.418 14 496 17.5817 496 22V54C496 58.4183 492.418 62 488 62H456C451.582 62 448 58.4183 448 54V22Z" fill="#E8EBED"/>
<path d="M504 22C504 17.5817 507.582 14 512 14H544C548.418 14 552 17.5817 552 22V54C552 58.4183 548.418 62 544 62H512C507.582 62 504 58.4183 504 54V22Z" fill="#E8EBED"/>
<path d="M560 22C560 17.5817 563.582 14 568 14H600C604.418 14 608 17.5817 608 22V54C608 58.4183 604.418 62 600 62H568C563.582 62 560 58.4183 560 54V22Z" fill="#E8EBED"/>
<path d="M616 22C616 17.5817 619.582 14 624 14H656C660.418 14 664 17.5817 664 22V54C664 58.4183 660.418 62 656 62H624C619.582 62 616 58.4183 616 54V22Z" fill="#E8EBED"/>
<path d="M304 14V6C304 3.79086 305.791 2 308 2H356C358.209 2 360 3.79086 360 6V14" stroke="#454C53" stroke-width="4"/>
</svg>
