<svg width="248" height="31" viewBox="0 0 248 31" fill="none" xmlns="http://www.w3.org/2000/svg">
<path d="M0 22C0 17.5817 3.58172 14 8 14H9C13.4183 14 17 17.5817 17 22V23C17 27.4183 13.4183 31 9 31H8C3.58172 31 0 27.4183 0 23V22Z" fill="#E8EBED"/>
<path d="M21 22C21 17.5817 24.5817 14 29 14H30C34.4183 14 38 17.5817 38 22V23C38 27.4183 34.4183 31 30 31H29C24.5817 31 21 27.4183 21 23V22Z" fill="#E8EBED"/>
<path d="M42 22C42 17.5817 45.5817 14 50 14H51C55.4183 14 59 17.5817 59 22V23C59 27.4183 55.4183 31 51 31H50C45.5817 31 42 27.4183 42 23V22Z" fill="#E8EBED"/>
<path d="M63 22C63 17.5817 66.5817 14 71 14H72C76.4183 14 80 17.5817 80 22V23C80 27.4183 76.4183 31 72 31H71C66.5817 31 63 27.4183 63 23V22Z" fill="#E8EBED"/>
<path d="M84 22C84 17.5817 87.5817 14 92 14H93C97.4183 14 101 17.5817 101 22V23C101 27.4183 97.4183 31 93 31H92C87.5817 31 84 27.4183 84 23V22Z" fill="#E8EBED"/>
<path d="M105 22C105 17.5817 108.582 14 113 14H114C118.418 14 122 17.5817 122 22V23C122 27.4183 118.418 31 114 31H113C108.582 31 105 27.4183 105 23V22Z" fill="#69C374"/>
<circle cx="113.5" cy="22.5" r="4" fill="white"/>
<path d="M126 22C126 17.5817 129.582 14 134 14H135C139.418 14 143 17.5817 143 22V23C143 27.4183 139.418 31 135 31H134C129.582 31 126 27.4183 126 23V22Z" fill="#69C374"/>
<circle cx="134.5" cy="22.5" r="4" fill="white"/>
<path d="M147 22C147 17.5817 150.582 14 155 14H156C160.418 14 164 17.5817 164 22V23C164 27.4183 160.418 31 156 31H155C150.582 31 147 27.4183 147 23V22Z" fill="#E8EBED"/>
<path d="M168 22C168 17.5817 171.582 14 176 14H177C181.418 14 185 17.5817 185 22V23C185 27.4183 181.418 31 177 31H176C171.582 31 168 27.4183 168 23V22Z" fill="#E8EBED"/>
<path d="M189 22C189 17.5817 192.582 14 197 14H198C202.418 14 206 17.5817 206 22V23C206 27.4183 202.418 31 198 31H197C192.582 31 189 27.4183 189 23V22Z" fill="#E8EBED"/>
<path d="M210 22C210 17.5817 213.582 14 218 14H219C223.418 14 227 17.5817 227 22V23C227 27.4183 223.418 31 219 31H218C213.582 31 210 27.4183 210 23V22Z" fill="#E8EBED"/>
<path d="M231 22C231 17.5817 234.582 14 239 14H240C244.418 14 248 17.5817 248 22V23C248 27.4183 244.418 31 240 31H239C234.582 31 231 27.4183 231 23V22Z" fill="#E8EBED"/>
<path d="M113 14V6C113 3.79086 114.791 2 117 2H131C133.209 2 135 3.79086 135 6V14" stroke="#454C53" stroke-width="4"/>
</svg>
