<svg width="445" height="44" viewBox="0 0 445 44" fill="none" xmlns="http://www.w3.org/2000/svg">
<path d="M0 22C0 17.5817 3.58172 14 8 14H21.75C26.1683 14 29.75 17.5817 29.75 22V35.75C29.75 40.1683 26.1683 43.75 21.75 43.75H8C3.58172 43.75 0 40.1683 0 35.75V22Z" fill="#E8EBED"/>
<path d="M37.75 22C37.75 17.5817 41.3317 14 45.75 14H59.5C63.9183 14 67.5 17.5817 67.5 22V35.75C67.5 40.1683 63.9183 43.75 59.5 43.75H45.75C41.3317 43.75 37.75 40.1683 37.75 35.75V22Z" fill="#E8EBED"/>
<path d="M75.5 22C75.5 17.5817 79.0817 14 83.5 14H97.25C101.668 14 105.25 17.5817 105.25 22V35.75C105.25 40.1683 101.668 43.75 97.25 43.75H83.5C79.0817 43.75 75.5 40.1683 75.5 35.75V22Z" fill="#E8EBED"/>
<path d="M113.25 22C113.25 17.5817 116.832 14 121.25 14H135C139.418 14 143 17.5817 143 22V35.75C143 40.1683 139.418 43.75 135 43.75H121.25C116.832 43.75 113.25 40.1683 113.25 35.75V22Z" fill="#E8EBED"/>
<path d="M151 22C151 17.5817 154.582 14 159 14H172.75C177.168 14 180.75 17.5817 180.75 22V35.75C180.75 40.1683 177.168 43.75 172.75 43.75H159C154.582 43.75 151 40.1683 151 35.75V22Z" fill="#E8EBED"/>
<path d="M188.75 22C188.75 17.5817 192.332 14 196.75 14H210.5C214.918 14 218.5 17.5817 218.5 22V35.75C218.5 40.1683 214.918 43.75 210.5 43.75H196.75C192.332 43.75 188.75 40.1683 188.75 35.75V22Z" fill="#69C374"/>
<circle cx="203.625" cy="28.875" r="4" fill="white"/>
<path d="M226.5 22C226.5 17.5817 230.082 14 234.5 14H248.25C252.668 14 256.25 17.5817 256.25 22V35.75C256.25 40.1683 252.668 43.75 248.25 43.75H234.5C230.082 43.75 226.5 40.1683 226.5 35.75V22Z" fill="#69C374"/>
<circle cx="241.375" cy="28.875" r="4" fill="white"/>
<path d="M264.25 22C264.25 17.5817 267.832 14 272.25 14H286C290.418 14 294 17.5817 294 22V35.75C294 40.1683 290.418 43.75 286 43.75H272.25C267.832 43.75 264.25 40.1683 264.25 35.75V22Z" fill="#E8EBED"/>
<path d="M302 22C302 17.5817 305.582 14 310 14H323.75C328.168 14 331.75 17.5817 331.75 22V35.75C331.75 40.1683 328.168 43.75 323.75 43.75H310C305.582 43.75 302 40.1683 302 35.75V22Z" fill="#E8EBED"/>
<path d="M339.75 22C339.75 17.5817 343.332 14 347.75 14H361.5C365.918 14 369.5 17.5817 369.5 22V35.75C369.5 40.1683 365.918 43.75 361.5 43.75H347.75C343.332 43.75 339.75 40.1683 339.75 35.75V22Z" fill="#E8EBED"/>
<path d="M377.5 22C377.5 17.5817 381.082 14 385.5 14H399.25C403.668 14 407.25 17.5817 407.25 22V35.75C407.25 40.1683 403.668 43.75 399.25 43.75H385.5C381.082 43.75 377.5 40.1683 377.5 35.75V22Z" fill="#E8EBED"/>
<path d="M415.25 22C415.25 17.5817 418.832 14 423.25 14H437C441.418 14 445 17.5817 445 22V35.75C445 40.1683 441.418 43.75 437 43.75H423.25C418.832 43.75 415.25 40.1683 415.25 35.75V22Z" fill="#E8EBED"/>
<path d="M204 14V6C204 3.79086 205.791 2 208 2H238C240.209 2 242 3.79086 242 6V14" stroke="#454C53" stroke-width="4"/>
</svg>
