<svg width="72" height="72" viewBox="0 0 72 72" fill="none" xmlns="http://www.w3.org/2000/svg">
<path d="M41.9796 65.8971V60.0697V53.2684C41.9796 48.7947 40.2793 45.2949 34.1547 45.2949C28.0302 45.2949 23.0117 51.0728 23.0117 58.1383V65.8641L41.9796 65.8971Z" fill="#EFECD3"/>
<path d="M33.1898 51.498L33.3671 51.5153C33.7691 51.5971 34.0711 51.9532 34.0711 52.3793C34.0711 52.8055 33.7691 53.1615 33.3671 53.2434L33.1898 53.2606H30.8989C30.4121 53.2606 30.0176 52.866 30.0176 52.3793C30.0176 51.8926 30.4121 51.498 30.8989 51.498H33.1898Z" fill="#B4B08B"/>
<path d="M34.6351 47.7887C32.8687 47.7887 31.416 46.336 31.416 44.5696V40.7562C31.416 38.9898 32.8687 37.5371 34.6351 37.5371C36.4015 37.5371 37.8542 38.9898 37.8542 40.7562V44.5696C37.8542 46.336 36.4015 47.7887 34.6351 47.7887Z" fill="#F1BBA7"/>
<path d="M37.9746 45.8275C39.6089 46.6034 44.7993 48.9728 44.7993 48.9728C44.7993 48.9728 45.278 42.4191 45.212 40.6197C45.1294 38.4737 46.9453 37.3016 48.398 38.7213C49.8508 40.141 49.7022 47.0084 49.7187 49.1875C49.7352 50.6237 50.1809 55.1304 46.1199 54.9323C42.0589 54.7342 40.9033 53.5456 40.9033 53.5456" fill="#EFECD3"/>
<path d="M27.666 65.5244V56.8899C27.666 56.434 28.0356 56.0645 28.4914 56.0645C28.9473 56.0645 29.3168 56.434 29.3168 56.8899V65.5244C29.3168 65.5244 28.947 65.5244 28.4914 65.5244C28.0358 65.5244 27.666 65.5244 27.666 65.5244Z" fill="#B4B08B"/>
<path d="M23.8005 36.4492C23.8005 36.4492 24.2192 40.3689 22.5236 44.1662C20.8281 47.9634 21.3305 55.3537 25.0774 53.2918C28.8243 51.2502 29.1174 44.2274 28.2382 40.8589C27.3591 37.4904 23.8005 36.4492 23.8005 36.4492Z" fill="#2F303B"/>
<path d="M33.9124 17.0499C36.5251 17.0499 38.6431 14.9843 38.6431 12.4361C38.6431 9.88795 36.5251 7.82227 33.9124 7.82227C31.2997 7.82227 29.1816 9.88795 29.1816 12.4361C29.1816 14.9843 31.2997 17.0499 33.9124 17.0499Z" fill="#2F303B"/>
<path d="M37.8151 12.4393C37.8151 10.3664 36.0854 8.65082 33.9089 8.65082C31.7328 8.65123 30.0043 10.3666 30.0043 12.4393C30.0044 14.512 31.7328 16.2274 33.9089 16.2278C36.0853 16.2278 37.815 14.5122 37.8151 12.4393ZM39.4659 12.4393C39.4659 15.4626 36.9579 17.8786 33.9089 17.8786C30.8603 17.8782 28.3536 15.4624 28.3535 12.4393C28.3535 9.41621 30.8603 7.00041 33.9089 7C36.9579 7 39.4659 9.41595 39.4659 12.4393Z" fill="#2F303B"/>
<path d="M48.3959 34.4043H47.2865C45.8421 34.4043 44.6699 33.261 44.6699 31.8524V31.1378C44.6699 29.7292 45.8421 28.5859 47.2865 28.5859H48.3959C49.8403 28.5859 51.0125 29.7292 51.0125 31.1378V31.8524C51.0125 33.2406 49.8403 34.4043 48.3959 34.4043Z" fill="#F1BBA7"/>
<path d="M20.5151 34.4043H19.4056C17.9613 34.4043 16.7891 33.261 16.7891 31.8524V31.1378C16.7891 29.7292 17.9613 28.5859 19.4056 28.5859H20.5151C21.9594 28.5859 23.1316 29.7292 23.1316 31.1378V31.8524C23.1526 33.2406 21.9594 34.4043 20.5151 34.4043Z" fill="#F1BBA7"/>
<path d="M33.9134 45.6341C26.8173 45.6341 20.998 39.9587 20.998 33.038V24.9127C20.998 18.829 26.1056 13.8477 32.3435 13.8477H35.4834C41.7213 13.8477 46.8288 18.829 46.8288 24.9127V33.038C46.8288 39.9791 41.0096 45.6341 33.9134 45.6341Z" fill="#FFD2C2"/>
<path d="M37.2318 37.9542L37.5816 38.4572L37.5784 38.4588L37.5752 38.462L37.5236 38.4943C37.4919 38.5149 37.4483 38.5432 37.393 38.5765C37.2822 38.6432 37.1245 38.7333 36.9271 38.8312C36.5339 39.0263 35.9724 39.2597 35.2956 39.4164C34.017 39.7126 32.3059 39.7338 30.5801 38.6813L30.2352 38.4556L30.1078 38.3476C29.8429 38.0698 29.8012 37.6353 30.0288 37.3078C30.2563 36.9806 30.6774 36.8683 31.0299 37.0192L31.1766 37.1014L31.4314 37.2675C32.7052 38.0466 33.9499 38.0345 34.9232 37.8091C35.4471 37.6878 35.8862 37.5038 36.1936 37.3513C36.3464 37.2754 36.4649 37.209 36.5418 37.1627C36.5797 37.1399 36.6072 37.122 36.624 37.1111C36.6311 37.1065 36.6371 37.1034 36.6401 37.1014C37.0145 36.8413 37.5295 36.9334 37.7896 37.3078C38.0494 37.6821 37.9558 38.1956 37.5816 38.4556L37.2318 37.9542ZM36.9916 37.6076C37.0274 37.6592 37.0673 37.7158 37.1109 37.7785L37.2318 37.9542L36.9916 37.6076Z" fill="#917368"/>
<path d="M28.7608 33.6259C29.5584 33.6259 30.2051 32.9952 30.2051 32.2172C30.2051 31.4393 29.5584 30.8086 28.7608 30.8086C27.9631 30.8086 27.3164 31.4393 27.3164 32.2172C27.3164 32.9952 27.9631 33.6259 28.7608 33.6259Z" fill="#312926"/>
<path d="M39.0576 33.6259C39.8553 33.6259 40.502 32.9952 40.502 32.2172C40.502 31.4393 39.8553 30.8086 39.0576 30.8086C38.2599 30.8086 37.6133 31.4393 37.6133 32.2172C37.6133 32.9952 38.2599 33.6259 39.0576 33.6259Z" fill="#312926"/>
<path d="M33.0645 34.6051V33.5637C33.0645 33.1078 33.434 32.7383 33.8899 32.7383C34.3457 32.7383 34.7153 33.1078 34.7153 33.5637V34.6051C34.7151 35.0609 34.3456 35.4305 33.8899 35.4305C33.4341 35.4305 33.0646 35.0609 33.0645 34.6051Z" fill="#917368"/>
<path d="M41.1746 37.9351C42.1804 37.9351 42.9958 37.1399 42.9958 36.1589C42.9958 35.178 42.1804 34.3828 41.1746 34.3828C40.1689 34.3828 39.3535 35.178 39.3535 36.1589C39.3535 37.1399 40.1689 37.9351 41.1746 37.9351Z" fill="#FF8597"/>
<path d="M26.9422 37.9351C27.948 37.9351 28.7634 37.1399 28.7634 36.1589C28.7634 35.178 27.948 34.3828 26.9422 34.3828C25.9364 34.3828 25.1211 35.178 25.1211 36.1589C25.1211 37.1399 25.9364 37.9351 26.9422 37.9351Z" fill="#FF8597"/>
<path d="M46.8288 25.3608C46.8288 25.3608 40.5909 19.277 39.5443 20.2161L40.9886 24.7891C40.9886 24.7891 38.2046 25.0954 34.5205 25.0954H33.7878C30.1037 25.0954 27.3197 24.7891 27.3197 24.7891L28.764 20.2161C27.7174 19.277 20.998 24.9116 20.998 24.9116C20.998 24.9116 22.0028 15.2757 30.3549 14.0099L33.9134 13.8262C33.9134 13.8262 37.9953 13.8466 40.3606 14.9082C45.2379 17.0926 46.1171 20.7878 46.8288 25.3608Z" fill="#2F303B"/>
<path d="M33.9677 12.998C34.0006 12.9985 34.0488 12.9999 34.1096 13.0013C34.2309 13.004 34.4051 13.0095 34.6206 13.019C35.0526 13.038 35.6546 13.0738 36.3327 13.1448C37.6647 13.2842 39.3865 13.5651 40.6951 14.1523L41.1707 14.3764C43.491 15.5187 44.9411 17.0354 45.8862 18.8549C46.8738 20.7567 47.2865 22.9482 47.6418 25.2309C47.6964 25.5819 47.519 25.9289 47.2033 26.0917C46.9272 26.2338 46.5985 26.2083 46.3505 26.0337L46.2489 25.9482C46.2483 25.9476 46.2471 25.9464 46.2457 25.945C46.243 25.9424 46.2382 25.939 46.2328 25.9337C46.2215 25.9228 46.2051 25.9053 46.1828 25.8838C46.1381 25.8406 46.0709 25.7776 45.9861 25.6968C45.8161 25.5347 45.5722 25.3022 45.2752 25.0277C44.6802 24.4777 43.8786 23.758 43.0488 23.069C42.2443 22.401 41.4362 21.786 40.7741 21.3795L41.772 24.5376C41.8465 24.7733 41.8119 25.0303 41.6769 25.2373C41.5758 25.3924 41.4264 25.5069 41.2545 25.5662L41.0756 25.6065H41.0724C41.0708 25.6067 41.0687 25.6078 41.0659 25.6081C41.0599 25.6087 41.0513 25.6101 41.0401 25.6113C41.0176 25.6137 40.9845 25.6167 40.9418 25.621C40.8559 25.6296 40.7297 25.6419 40.5678 25.6565C40.2434 25.6857 39.7731 25.7241 39.1878 25.7629C38.0175 25.8403 36.3816 25.9176 34.5175 25.9176H33.784C31.9204 25.9176 30.2853 25.8403 29.1152 25.7629C28.5299 25.7241 28.0597 25.6857 27.7353 25.6565C27.5733 25.6419 27.4472 25.6296 27.3612 25.621C27.3187 25.6167 27.2855 25.6137 27.2629 25.6113C27.2521 25.6102 27.2431 25.6087 27.2371 25.6081C27.2341 25.6078 27.2307 25.6067 27.2291 25.6065H27.2258C26.9804 25.5793 26.7594 25.4442 26.6245 25.2373C26.4896 25.0303 26.455 24.7732 26.5294 24.5376L27.5692 21.2441C27.5406 21.2582 27.5103 21.2708 27.4805 21.286C26.759 21.6538 25.8602 22.2412 24.964 22.8804C24.0746 23.5147 23.2147 24.1807 22.5748 24.6892C22.2556 24.9429 21.9922 25.1566 21.8091 25.3066C21.7178 25.3815 21.6462 25.4407 21.5979 25.4807C21.574 25.5005 21.5553 25.5157 21.5431 25.5259C21.537 25.5309 21.5332 25.5363 21.5302 25.5388C21.5287 25.54 21.526 25.5398 21.5254 25.5404V25.542C21.2677 25.7579 20.9049 25.7948 20.6081 25.6371C20.3111 25.4793 20.1395 25.1575 20.1744 24.823V24.8181C20.1746 24.8162 20.1757 24.813 20.176 24.8101C20.1767 24.8037 20.1764 24.7949 20.1776 24.7843C20.1802 24.7623 20.1853 24.7316 20.1905 24.6924C20.201 24.6135 20.2171 24.5005 20.2405 24.3587C20.2872 24.0749 20.3628 23.6725 20.4807 23.1883C20.7158 22.2223 21.121 20.9154 21.8042 19.561C23.1725 16.849 25.6985 13.8781 30.2276 13.1915L30.3098 13.1834L33.8678 12.9997L33.9145 12.998H33.9677ZM30.4469 14.8278C26.6421 15.4151 24.4968 17.8879 23.2777 20.3042C22.8283 21.195 22.5114 22.0691 22.2895 22.8191C22.8091 22.4175 23.3991 21.9706 24.0064 21.5375C24.9207 20.8854 25.8983 20.2402 26.7309 19.8157C27.1424 19.606 27.5622 19.4267 27.9448 19.3401C28.2703 19.2666 28.8592 19.1935 29.3119 19.5997C29.553 19.8161 29.6449 20.1533 29.5473 20.4622L28.414 24.0524C28.6485 24.071 28.9195 24.0952 29.2232 24.1153C30.3659 24.1909 31.9643 24.2668 33.784 24.2668H34.5175C36.3372 24.2668 37.9354 24.1909 39.0782 24.1153C39.3818 24.0952 39.653 24.071 39.8875 24.0524L38.7541 20.4622C38.6566 20.1534 38.7487 19.8161 38.9895 19.5997C39.4582 19.1791 40.0568 19.2797 40.3792 19.3708C40.7537 19.4766 41.1564 19.68 41.5447 19.9125C42.3324 20.3841 43.2495 21.0898 44.1032 21.7986C44.6222 22.2296 45.1269 22.6718 45.5799 23.0771C45.3051 21.7952 44.9548 20.6443 44.4208 19.6158C43.6438 18.12 42.4565 16.8464 40.4356 15.8531L40.0197 15.6581C38.963 15.1839 37.4603 14.9236 36.1602 14.7875C35.5226 14.7208 34.9552 14.6862 34.5481 14.6682C34.345 14.6593 34.1818 14.6546 34.0709 14.6521C34.0158 14.6508 33.9731 14.6492 33.9452 14.6489C33.9361 14.6487 33.9286 14.6489 33.9226 14.6489L30.4469 14.8278Z" fill="#2F303B"/>
<path d="M32.5836 22.712C32.4912 23.1578 32.0558 23.4452 31.6099 23.3537C31.1636 23.2616 30.8764 22.8247 30.9683 22.3783L32.5836 22.712ZM32.6546 18.2868C33.1006 18.3789 33.3878 18.8144 33.2962 19.2605L32.5836 22.712L31.776 22.5444L30.9683 22.3783L31.6792 18.9284L31.7292 18.7688C31.8804 18.4156 32.2637 18.2061 32.6546 18.2868Z" fill="#494B60"/>
<path d="M35.464 18.2866C35.8546 18.2063 36.2366 18.4158 36.3878 18.7687L36.4378 18.9283L37.1503 22.3782C37.2421 22.8245 36.955 23.2615 36.5087 23.3535C36.0625 23.4456 35.6258 23.158 35.5334 22.7119L34.8224 19.2604L34.8047 19.0943C34.8043 18.7106 35.0735 18.3672 35.464 18.2866Z" fill="#494B60"/>
<path d="M37.3992 16.2957C37.0536 15.1983 37.6631 14.0284 38.7606 13.6828L53.0882 9.1708C54.1856 8.82519 55.3555 9.43468 55.7011 10.5321L62.5863 32.3958C62.9319 33.4933 62.3224 34.6631 61.225 35.0087L46.8974 39.5207C45.7999 39.8663 44.6301 39.2568 44.2845 38.1594L37.3992 16.2957Z" fill="#D9DFE6"/>
<rect x="40.6504" y="17.2266" width="5.64351" height="5.64351" rx="1.04167" transform="rotate(-17.4801 40.6504 17.2266)" fill="#96A5B5"/>
<rect x="43.8711" y="27.459" width="12.4157" height="1.69305" rx="0.520833" transform="rotate(-17.4801 43.8711 27.459)" fill="#96A5B5"/>
<rect x="44.7188" y="30.1465" width="12.4157" height="1.69305" rx="0.520833" transform="rotate(-17.4801 44.7188 30.1465)" fill="#96A5B5"/>
<rect x="45.5645" y="32.8379" width="5.64351" height="1.69305" rx="0.520833" transform="rotate(-17.4801 45.5645 32.8379)" fill="#96A5B5"/>
<path d="M47.2412 41.5194C48.5814 41.5194 49.6679 40.4329 49.6679 39.0927C49.6679 37.7525 48.5814 36.666 47.2412 36.666C45.9009 36.666 44.8145 37.7525 44.8145 39.0927C44.8145 40.4329 45.9009 41.5194 47.2412 41.5194Z" fill="#FFD2C2"/>
</svg>
