<svg width="72" height="72" viewBox="0 0 72 72" fill="none" xmlns="http://www.w3.org/2000/svg">
<path d="M24.7842 58.6674H27.4292C28.4822 58.6674 29.3347 57.815 29.3347 56.762V53.25H24.7842V58.6674Z" fill="#FFD2C2"/>
<path d="M24.7847 53.6429L30.3255 53.6178C30.3255 46.7231 24.6844 41.082 17.7897 41.082C10.895 41.082 5.25391 46.7231 5.25391 53.6178L11.0329 53.6429V61.1644H24.7847V53.6429Z" fill="#2C3F31"/>
<path d="M10.3174 56.9293V50.5691C10.3174 50.1901 10.6247 49.8828 11.0037 49.8828C11.3828 49.8828 11.69 50.1901 11.69 50.5691L11.69 56.9293C11.69 56.9293 11.4252 56.9293 11.0463 56.9293C10.6675 56.9293 10.3174 56.9293 10.3174 56.9293Z" fill="#85AC8F"/>
<path d="M23.9248 56.9293V50.5691C23.9248 50.1901 24.2321 49.8828 24.6111 49.8828C24.9902 49.8828 25.2975 50.1901 25.2975 50.5691L25.2975 56.9293C25.2975 56.9293 25.0326 56.9293 24.6538 56.9293C24.2749 56.9293 23.9248 56.9293 23.9248 56.9293Z" fill="#85AC8F"/>
<path d="M18.4911 43.8325H17.0871C15.7457 43.8325 14.6426 42.7294 14.6426 41.388V36.2609C14.6426 34.9196 15.7457 33.8164 17.0871 33.8164H18.4911C19.8324 33.8164 20.9355 34.9196 20.9355 36.2609V41.388C20.9355 42.7294 19.8324 43.8325 18.4911 43.8325Z" fill="#F1BBA7"/>
<path d="M11.0319 58.6625H8.38689C7.33388 58.6625 6.48145 57.8101 6.48145 56.7571L6.50715 53.5898H11.0576L11.0319 58.6625Z" fill="#FFD2C2"/>
<path d="M29.3493 32.01H27.5943C26.7293 32.01 26.0273 31.308 26.0273 30.443V28.9888C26.0273 28.1239 26.7293 27.4219 27.5943 27.4219H29.3493C30.2143 27.4219 30.9163 28.1239 30.9163 28.9888V30.443C30.9163 31.2954 30.2018 32.01 29.3493 32.01Z" fill="#F2BBA7"/>
<path d="M7.88839 32.01H6.13338C5.26841 32.01 4.56641 31.308 4.56641 30.443V28.9888C4.56641 28.1239 5.26841 27.4219 6.13338 27.4219H7.88839C8.75336 27.4219 9.45537 28.1239 9.45537 28.9888V30.443C9.45537 31.2954 8.75336 32.01 7.88839 32.01Z" fill="#F2BBA7"/>
<path d="M19.9595 40.8787H15.5344C11.2848 40.8787 7.7998 37.3938 7.7998 33.1441V22.5639C7.7998 18.8283 10.8585 15.7695 14.5942 15.7695H20.8872C24.6228 15.7695 27.6816 18.8283 27.6816 22.5639V33.1441C27.6941 37.3938 24.2092 40.8787 19.9595 40.8787Z" fill="#FFD2C2"/>
<path d="M17.6671 36.0699C16.7896 36.0699 15.8369 35.8317 14.9093 35.1799C14.6335 34.9793 14.5583 34.5907 14.7588 34.3024C14.9594 34.0266 15.348 33.9514 15.6363 34.1519C17.7047 35.6186 19.7606 34.2146 19.8484 34.1519C20.1367 33.9514 20.5253 34.014 20.7259 34.3024C20.9264 34.5782 20.8638 34.9793 20.5754 35.1799C20.0113 35.5936 18.9207 36.0699 17.6671 36.0699Z" fill="#917368"/>
<path d="M13.7807 31.3954C14.3969 31.3954 14.8964 30.8959 14.8964 30.2797C14.8964 29.6636 14.3969 29.1641 13.7807 29.1641C13.1645 29.1641 12.665 29.6636 12.665 30.2797C12.665 30.8959 13.1645 31.3954 13.7807 31.3954Z" fill="#312926"/>
<path d="M21.7163 31.3954C22.3324 31.3954 22.832 30.8959 22.832 30.2797C22.832 29.6636 22.3324 29.1641 21.7163 29.1641C21.1001 29.1641 20.6006 29.6636 20.6006 30.2797C20.6006 30.8959 21.1001 31.3954 21.7163 31.3954Z" fill="#312926"/>
<path d="M17.742 32.7989C17.391 32.7989 17.1152 32.5231 17.1152 32.1721V31.3573C17.1152 31.0063 17.391 30.7305 17.742 30.7305C18.093 30.7305 18.3688 31.0063 18.3688 31.3573V32.1721C18.3688 32.5231 18.0805 32.7989 17.742 32.7989Z" fill="#917368"/>
<path d="M23.3456 34.7908C24.1141 34.7908 24.737 34.1678 24.737 33.3993C24.737 32.6308 24.1141 32.0078 23.3456 32.0078C22.5771 32.0078 21.9541 32.6308 21.9541 33.3993C21.9541 34.1678 22.5771 34.7908 23.3456 34.7908Z" fill="#FF8597"/>
<path d="M12.3895 34.7908C13.158 34.7908 13.781 34.1678 13.781 33.3993C13.781 32.6308 13.158 32.0078 12.3895 32.0078C11.621 32.0078 10.998 32.6308 10.998 33.3993C10.998 34.1678 11.621 34.7908 12.3895 34.7908Z" fill="#FF8597"/>
<path d="M30.8785 17.1115C28.9605 11.3826 22.8431 9.91591 17.7535 10.0037C17.741 10.0037 17.741 10.0037 17.7285 10.0037C17.7159 10.0037 17.7159 10.0037 17.7034 10.0037C12.6013 9.91591 6.48385 11.3826 4.56587 17.1115C2.6479 22.8528 6.2206 27.4033 6.2206 27.4033H7.81264H9.31868L11.5985 25.4603L17.7285 25.4101L23.8585 25.4603H27.6443V27.4033H29.2363C29.2238 27.4033 32.7965 22.8528 30.8785 17.1115Z" fill="#444236"/>
<path d="M19.2089 21.5117C19.2089 21.5117 17.6043 27.4035 12.615 27.4035H8.37793C8.37793 27.4035 12.615 23.9311 12.615 21.5117" fill="#444236"/>
<path d="M27.6962 21.5117C27.6962 21.5117 26.0916 27.4035 21.1023 27.4035H16.8652C16.8652 27.4035 21.1023 23.9311 21.1023 21.5117" fill="#444236"/>
<path d="M20.7619 27.8056H16.5248C16.2616 27.8056 16.0234 27.6426 15.9356 27.3919C15.8479 27.1412 15.9231 26.8654 16.1237 26.6899C17.2393 25.7748 20.1351 23.0169 20.1351 21.2869C20.1351 20.9359 20.4109 20.6602 20.7619 20.6602C21.1129 20.6602 21.3887 20.9359 21.3887 21.2869C21.3887 23.1046 19.4958 25.2608 18.1545 26.552H20.7619C25.2121 26.552 26.6913 21.3371 26.754 21.124C26.8418 20.798 27.1928 20.5975 27.5187 20.6852C27.8572 20.773 28.0452 21.124 27.9574 21.4499C27.9449 21.5126 26.1648 27.8056 20.7619 27.8056Z" fill="#3A382C"/>
<path d="M9.90039 39.056C9.90039 37.9054 10.8331 36.9727 11.9837 36.9727H23.7719C24.9225 36.9727 25.8552 37.9054 25.8552 39.056V57.4138C25.8552 58.5644 24.9225 59.4972 23.7719 59.4972H11.9837C10.8331 59.4972 9.90039 58.5644 9.90039 57.4138V39.056Z" fill="#D9DFE6"/>
<rect x="12.2471" y="40.2539" width="4.69261" height="4.69261" rx="1.04167" fill="#96A5B5"/>
<rect x="12.2471" y="49.1719" width="10.3237" height="1.40778" rx="0.520833" fill="#96A5B5"/>
<rect x="12.2471" y="51.5156" width="10.3237" height="1.40778" rx="0.520833" fill="#96A5B5"/>
<rect x="12.2471" y="53.8633" width="4.69261" height="1.40778" rx="0.520833" fill="#96A5B5"/>
<path d="M11.871 57.2752C13.4011 57.2752 14.6414 56.0348 14.6414 54.5048C14.6414 52.9747 13.4011 51.7344 11.871 51.7344C10.3409 51.7344 9.10059 52.9747 9.10059 54.5048C9.10059 56.0348 10.3409 57.2752 11.871 57.2752Z" fill="#FFD2C2"/>
<path d="M23.7802 57.2752C25.3102 57.2752 26.5506 56.0348 26.5506 54.5048C26.5506 52.9747 25.3102 51.7344 23.7802 51.7344C22.2501 51.7344 21.0098 52.9747 21.0098 54.5048C21.0098 56.0348 22.2501 57.2752 23.7802 57.2752Z" fill="#FFD2C2"/>
<path d="M54.3285 61.6894V56.8439V51.1885C54.3285 47.4686 52.9147 44.5586 47.8221 44.5586C42.7295 44.5586 38.5566 49.3629 38.5566 55.2379V61.662L54.3285 61.6894Z" fill="#693D2F"/>
<rect x="50.3564" y="50.457" width="1.6857" height="1.6857" rx="0.842852" fill="#EBC523"/>
<path d="M48.2216 46.6297C46.7529 46.6297 45.5449 45.4218 45.5449 43.953V40.7822C45.5449 39.3134 46.7529 38.1055 48.2216 38.1055C49.6904 38.1055 50.8983 39.3134 50.8983 40.7822V43.953C50.8983 45.4218 49.6904 46.6297 48.2216 46.6297Z" fill="#F1BBA7"/>
<path d="M51 45C52.3589 45.6452 56.6747 47.6154 56.6747 47.6154C56.6747 47.6154 57.0728 42.1659 57.0179 40.6697C56.9493 38.8852 58.4592 37.9107 59.6671 39.0911C60.8751 40.2716 60.7515 45.9819 60.7653 47.7938C60.779 48.988 61.1496 52.7354 57.7729 52.5707C54.3961 52.406 53.4352 51.4176 53.4352 51.4176" fill="#693D2F"/>
<path d="M42.4277 61.3777V54.198C42.4277 53.819 42.735 53.5117 43.1141 53.5117C43.4931 53.5117 43.8004 53.819 43.8004 54.198V61.3777C43.8004 61.3777 43.4929 61.3777 43.1141 61.3777C42.7352 61.3777 42.4277 61.3777 42.4277 61.3777Z" fill="#36221B"/>
<path d="M39.2132 37.2031C39.2132 37.2031 39.5613 40.4624 38.1515 43.6198C36.7416 46.7772 37.1594 52.9223 40.2749 51.2078C43.3905 49.5103 43.6342 43.6707 42.9032 40.8698C42.1721 38.0689 39.2132 37.2031 39.2132 37.2031Z" fill="#2F303B"/>
<path d="M47.6211 21.0713C49.7936 21.0713 51.5548 19.3537 51.5548 17.2349C51.5548 15.1161 49.7936 13.3984 47.6211 13.3984C45.4487 13.3984 43.6875 15.1161 43.6875 17.2349C43.6875 19.3537 45.4487 21.0713 47.6211 21.0713Z" fill="#2F303B"/>
<path d="M50.8673 17.2377C50.8673 15.514 49.4291 14.0875 47.6193 14.0875C45.8099 14.0878 44.3727 15.5142 44.3727 17.2377C44.3727 18.9611 45.8099 20.3875 47.6193 20.3878C49.429 20.3878 50.8673 18.9613 50.8673 17.2377ZM52.24 17.2377C52.24 19.7516 50.1546 21.7605 47.6193 21.7605C45.0844 21.7601 43 19.7514 43 17.2377C43 14.7239 45.0844 12.7152 47.6193 12.7148C50.1546 12.7148 52.24 14.7237 52.24 17.2377Z" fill="#2F303B"/>
<path d="M59.6646 35.502H58.7421C57.5411 35.502 56.5664 34.5514 56.5664 33.3801V32.786C56.5664 31.6147 57.5411 30.6641 58.7421 30.6641H59.6646C60.8656 30.6641 61.8403 31.6147 61.8403 32.786V33.3801C61.8403 34.5344 60.8656 35.502 59.6646 35.502Z" fill="#F1BBA7"/>
<path d="M36.48 35.502H35.5575C34.3565 35.502 33.3818 34.5514 33.3818 33.3801V32.786C33.3818 31.6147 34.3565 30.6641 35.5575 30.6641H36.48C37.681 30.6641 38.6557 31.6147 38.6557 32.786V33.3801C38.6731 34.5344 37.681 35.502 36.48 35.502Z" fill="#F1BBA7"/>
<path d="M47.6201 44.8408C41.7196 44.8408 36.8809 40.1216 36.8809 34.367V27.6108C36.8809 22.5521 41.1278 18.4102 46.3146 18.4102H48.9255C54.1123 18.4102 58.3593 22.5521 58.3593 27.6108V34.367C58.3593 40.1386 53.5205 44.8408 47.6201 44.8408Z" fill="#FFD2C2"/>
<path d="M50.3828 38.4535L50.6737 38.8718L50.671 38.8731L50.6684 38.8758L50.6255 38.9026C50.5991 38.9197 50.5629 38.9433 50.5169 38.9709C50.4248 39.0264 50.2936 39.1013 50.1295 39.1827C49.8025 39.345 49.3356 39.539 48.7729 39.6693C47.7097 39.9156 46.287 39.9333 44.852 39.0581L44.5651 38.8704L44.4592 38.7806C44.2389 38.5496 44.2043 38.1883 44.3935 37.916C44.5827 37.6439 44.9328 37.5506 45.226 37.676L45.348 37.7444L45.5597 37.8825C46.6189 38.5303 47.6539 38.5203 48.4632 38.3329C48.8988 38.232 49.264 38.079 49.5196 37.9522C49.6466 37.8891 49.7452 37.8338 49.8091 37.7953C49.8406 37.7764 49.8635 37.7615 49.8775 37.7524C49.8834 37.7486 49.8884 37.7461 49.8909 37.7444C50.2022 37.5281 50.6304 37.6047 50.8466 37.916C51.0627 38.2272 50.9849 38.6542 50.6737 38.8704L50.3828 38.4535ZM50.1831 38.1653C50.2129 38.2082 50.2461 38.2553 50.2823 38.3074L50.3828 38.4535L50.1831 38.1653Z" fill="#917368"/>
<path d="M43.3377 34.8543C44.001 34.8543 44.5387 34.3299 44.5387 33.683C44.5387 33.0361 44.001 32.5117 43.3377 32.5117C42.6744 32.5117 42.1367 33.0361 42.1367 33.683C42.1367 34.3299 42.6744 34.8543 43.3377 34.8543Z" fill="#312926"/>
<path d="M51.9012 34.8543C52.5645 34.8543 53.1022 34.3299 53.1022 33.683C53.1022 33.0361 52.5645 32.5117 51.9012 32.5117C51.2379 32.5117 50.7002 33.0361 50.7002 33.683C50.7002 34.3299 51.2379 34.8543 51.9012 34.8543Z" fill="#312926"/>
<path d="M46.916 35.6695V34.8035C46.916 34.4245 47.2233 34.1172 47.6023 34.1172C47.9814 34.1172 48.2887 34.4245 48.2887 34.8035V35.6695C48.2886 36.0484 47.9813 36.3558 47.6023 36.3558C47.2234 36.3558 46.9161 36.0484 46.916 35.6695Z" fill="#917368"/>
<path d="M53.6598 38.4381C54.4961 38.4381 55.1741 37.7769 55.1741 36.9612C55.1741 36.1456 54.4961 35.4844 53.6598 35.4844C52.8235 35.4844 52.1455 36.1456 52.1455 36.9612C52.1455 37.7769 52.8235 38.4381 53.6598 38.4381Z" fill="#FF8597"/>
<path d="M41.8248 38.4381C42.6611 38.4381 43.3391 37.7769 43.3391 36.9612C43.3391 36.1456 42.6611 35.4844 41.8248 35.4844C40.9885 35.4844 40.3105 36.1456 40.3105 36.9612C40.3105 37.7769 40.9885 38.4381 41.8248 38.4381Z" fill="#FF8597"/>
<path d="M58.3593 27.9817C58.3593 27.9817 53.1724 22.923 52.3021 23.7039L53.5031 27.5064C53.5031 27.5064 51.1882 27.761 48.1248 27.761H47.5156C44.4523 27.761 42.1373 27.5064 42.1373 27.5064L43.3383 23.7039C42.468 22.923 36.8809 27.6082 36.8809 27.6082C36.8809 27.6082 37.7163 19.5959 44.6611 18.5434L47.6201 18.3906C47.6201 18.3906 51.0141 18.4076 52.981 19.2903C57.0364 21.1067 57.7675 24.1792 58.3593 27.9817Z" fill="#2F303B"/>
<path d="M47.6673 17.7031C47.6946 17.7035 47.7347 17.7047 47.7852 17.7058C47.8861 17.7081 48.0309 17.7127 48.2102 17.7206C48.5694 17.7364 49.0699 17.7661 49.6338 17.8251C50.7414 17.9411 52.173 18.1746 53.2611 18.6629L53.6566 18.8492C55.5859 19.7991 56.7917 21.0602 57.5775 22.5731C58.3988 24.1545 58.7419 25.9767 59.0373 27.8748C59.0827 28.1667 58.9353 28.4552 58.6727 28.5906C58.4432 28.7087 58.1699 28.6875 57.9636 28.5423L57.8791 28.4713C57.8786 28.4708 57.8776 28.4697 57.8765 28.4686C57.8742 28.4664 57.8703 28.4636 57.8657 28.4592C57.8564 28.4501 57.8427 28.4356 57.8242 28.4177C57.787 28.3818 57.7312 28.3294 57.6606 28.2622C57.5193 28.1274 57.3164 27.9341 57.0695 27.7059C56.5747 27.2485 55.9082 26.6501 55.2183 26.0772C54.5493 25.5217 53.8773 25.0103 53.3268 24.6723L54.1566 27.2984C54.2185 27.4943 54.1897 27.708 54.0775 27.8801C53.9934 28.0091 53.8692 28.1043 53.7263 28.1536L53.5775 28.1871H53.5748C53.5735 28.1872 53.5717 28.1882 53.5695 28.1884C53.5645 28.189 53.5573 28.1901 53.548 28.1911C53.5293 28.1931 53.5018 28.1956 53.4662 28.1992C53.3948 28.2063 53.2899 28.2165 53.1552 28.2287C52.8855 28.253 52.4945 28.2849 52.0078 28.3171C51.0347 28.3815 49.6744 28.4458 48.1244 28.4458H47.5145C45.9649 28.4458 44.6053 28.3815 43.6324 28.3171C43.1457 28.2849 42.7547 28.253 42.4849 28.2287C42.3503 28.2165 42.2455 28.2063 42.174 28.1992C42.1386 28.1956 42.1109 28.1931 42.0922 28.1911C42.0832 28.1902 42.0757 28.189 42.0707 28.1884C42.0682 28.1882 42.0654 28.1872 42.064 28.1871H42.0614C41.8573 28.1645 41.6735 28.0521 41.5614 27.8801C41.4492 27.708 41.4204 27.4943 41.4823 27.2984L42.3469 24.5597C42.3231 24.5715 42.2979 24.582 42.2732 24.5946C41.6732 24.9005 40.9259 25.3889 40.1806 25.9203C39.4411 26.4478 38.7261 27.0016 38.194 27.4244C37.9286 27.6353 37.7095 27.813 37.5573 27.9378C37.4814 28 37.4218 28.0492 37.3817 28.0825C37.3619 28.099 37.3463 28.1116 37.3361 28.1201C37.3311 28.1243 37.3279 28.1287 37.3254 28.1308C37.3242 28.1318 37.3219 28.1317 37.3214 28.1321V28.1335C37.1071 28.313 36.8055 28.3437 36.5586 28.2126C36.3117 28.0813 36.1691 27.8137 36.1981 27.5356V27.5316C36.1982 27.53 36.1991 27.5273 36.1994 27.5249C36.2 27.5196 36.1997 27.5123 36.2007 27.5034C36.2029 27.4852 36.2071 27.4596 36.2115 27.427C36.2202 27.3615 36.2336 27.2675 36.253 27.1496C36.2919 26.9136 36.3547 26.579 36.4527 26.1764C36.6483 25.3732 36.9851 24.2864 37.5533 23.1603C38.691 20.9052 40.7914 18.4349 44.5573 17.864L44.6257 17.8573L47.5842 17.7045L47.623 17.7031H47.6673ZM44.7397 19.2246C41.576 19.713 39.7921 21.7691 38.7785 23.7782C38.4048 24.5189 38.1413 25.2458 37.9568 25.8694C38.3888 25.5354 38.8794 25.1638 39.3844 24.8037C40.1446 24.2615 40.9575 23.725 41.6498 23.3721C41.992 23.1976 42.341 23.0486 42.6592 22.9766C42.9299 22.9154 43.4195 22.8547 43.7959 23.1924C43.9964 23.3724 44.0728 23.6527 43.9917 23.9096L43.0493 26.8949C43.2443 26.9104 43.4697 26.9304 43.7222 26.9471C44.6723 27.01 46.0014 27.0731 47.5145 27.0731H48.1244C49.6375 27.0731 50.9664 27.01 51.9166 26.9471C52.1691 26.9304 52.3946 26.9104 52.5896 26.8949L51.6472 23.9096C51.5661 23.6529 51.6427 23.3724 51.8429 23.1924C52.2326 22.8427 52.7304 22.9264 52.9984 23.0021C53.3099 23.0901 53.6447 23.2592 53.9676 23.4525C54.6225 23.8447 55.3852 24.4315 56.0949 25.0209C56.5265 25.3792 56.9462 25.7469 57.3228 26.0839C57.0944 25.018 56.8031 24.061 56.359 23.2058C55.7129 21.962 54.7257 20.903 53.0453 20.0771L52.6995 19.9149C51.8209 19.5206 50.5714 19.3043 49.4903 19.1911C48.9602 19.1356 48.4884 19.1068 48.1499 19.0919C47.981 19.0844 47.8452 19.0806 47.7531 19.0785C47.7073 19.0774 47.6717 19.0761 47.6485 19.0758C47.641 19.0757 47.6347 19.0758 47.6297 19.0758L44.7397 19.2246Z" fill="#2F303B"/>
<path d="M46.5156 25.7799C46.4388 26.1505 46.0767 26.3895 45.706 26.3134C45.3348 26.2369 45.096 25.8736 45.1724 25.5024L46.5156 25.7799ZM46.5746 22.1003C46.9455 22.1769 47.1843 22.539 47.1081 22.9099L46.5156 25.7799L45.844 25.6405L45.1724 25.5024L45.7636 22.6338L45.8052 22.5011C45.9309 22.2074 46.2496 22.0332 46.5746 22.1003Z" fill="#494B60"/>
<path d="M48.9096 22.1002C49.2344 22.0334 49.552 22.2076 49.6777 22.501L49.7192 22.6337L50.3117 25.5023C50.3881 25.8734 50.1493 26.2368 49.7782 26.3133C49.4072 26.3899 49.044 26.1507 48.9672 25.7798L48.3761 22.9098L48.3613 22.7717C48.361 22.4527 48.5849 22.1671 48.9096 22.1002Z" fill="#494B60"/>
<path d="M50.6258 20.7801C50.2802 19.6826 50.8897 18.5128 51.9871 18.1672L63.231 14.6263C64.3284 14.2807 65.4982 14.8902 65.8439 15.9877L71.3581 33.4977C71.7037 34.5952 71.0942 35.765 69.9968 36.1107L58.7529 39.6515C57.6555 39.9971 56.4856 39.3876 56.14 38.2902L50.6258 20.7801Z" fill="#D9DFE6"/>
<rect x="53.2236" y="21.2188" width="4.69261" height="4.69261" rx="1.04167" transform="rotate(-17.4801 53.2236 21.2188)" fill="#96A5B5"/>
<rect x="55.9023" y="29.7266" width="10.3237" height="1.40778" rx="0.520833" transform="rotate(-17.4801 55.9023 29.7266)" fill="#96A5B5"/>
<rect x="56.6064" y="31.9609" width="10.3237" height="1.40778" rx="0.520833" transform="rotate(-17.4801 56.6064 31.9609)" fill="#96A5B5"/>
<rect x="57.3115" y="34.1992" width="4.69261" height="1.40778" rx="0.520833" transform="rotate(-17.4801 57.3115 34.1992)" fill="#96A5B5"/>
<path d="M58.7053 41.4184C59.8197 41.4184 60.7231 40.515 60.7231 39.4006C60.7231 38.2862 59.8197 37.3828 58.7053 37.3828C57.5909 37.3828 56.6875 38.2862 56.6875 39.4006C56.6875 40.515 57.5909 41.4184 58.7053 41.4184Z" fill="#FFD2C2"/>
</svg>
