<svg width="72" height="72" viewBox="0 0 72 72" fill="none" xmlns="http://www.w3.org/2000/svg">
<path d="M13 40C13 35.5817 16.5817 32 21 32H27C31.4183 32 35 35.5817 35 40V58C35 62.4183 31.4183 66 27 66H21C16.5817 66 13 62.4183 13 58V40Z" fill="#3FBF70"/>
<path d="M31 46.5374L22.9086 54.5L17 48.6854L20.0865 45.648L22.9086 48.4252L27.9135 43.5L31 46.5374Z" fill="white"/>
<path d="M37 40C37 35.5817 40.5817 32 45 32H51C55.4183 32 59 35.5817 59 40V58C59 62.4183 55.4183 66 51 66H45C40.5817 66 37 62.4183 37 58V40Z" fill="#F65C5C"/>
<rect x="50.4751" y="43.6953" width="4" height="11" transform="rotate(45 50.4751 43.6953)" fill="white"/>
<rect x="53.3032" y="51.4766" width="4" height="11" transform="rotate(135 53.3032 51.4766)" fill="white"/>
<path d="M32.4951 22.2054C32.4775 18.1047 33.499 16.8309 35.3836 15.6094C36.9511 14.5973 38.1487 13.7248 38.1663 12.294C38.1487 11.0027 37.1096 10.1302 35.8063 10.1302C34.4149 10.1302 33.2348 11.1423 33.1996 12.643H27C27.0705 7.28591 31.0509 5 35.8415 5C41.1252 5 45 7.33825 45 11.945C45 14.9289 43.362 16.6913 40.9491 18.0872C39.135 19.1691 38.2016 20.1638 38.2016 22.2054V22.7638H32.4951V22.2054ZM32.002 27.6148C31.9843 25.7651 33.5342 24.2644 35.4188 24.2644C37.2153 24.2644 38.818 25.7651 38.8356 27.6148C38.818 29.4993 37.2153 31 35.4188 31C33.5342 31 31.9843 29.4993 32.002 27.6148Z" fill="#D9DFE6"/>
</svg>
