<svg width="72" height="72" viewBox="0 0 72 72" fill="none" xmlns="http://www.w3.org/2000/svg">
<rect x="13.5" y="39.5" width="45" height="21" fill="#E6E6EA"/>
<path d="M21 57.5C21 56.6716 21.6716 56 22.5 56H28.5C29.3284 56 30 56.6716 30 57.5V59H21V57.5Z" fill="#CACAD7"/>
<path d="M30 42.5C30 43.3284 29.3284 44 28.5 44L22.5 44C21.6716 44 21 43.3284 21 42.5L21 41L30 41L30 42.5Z" fill="#CACAD7"/>
<rect x="22.5" y="44" width="6" height="12" fill="#898996"/>
<rect x="13.5" y="44" width="6" height="12" fill="#898996"/>
<path d="M12 57.5C12 56.6716 12.6716 56 13.5 56H19.5C20.3284 56 21 56.6716 21 57.5V59H12V57.5Z" fill="#CACAD7"/>
<path d="M21 42.5C21 43.3284 20.3284 44 19.5 44L13.5 44C12.6716 44 12 43.3284 12 42.5L12 41L21 41L21 42.5Z" fill="#CACAD7"/>
<path d="M42 57.5C42 56.6716 42.6716 56 43.5 56H49.5C50.3284 56 51 56.6716 51 57.5V59H42V57.5Z" fill="#CACAD7"/>
<path d="M51 42.5C51 43.3284 50.3284 44 49.5 44L43.5 44C42.6716 44 42 43.3284 42 42.5L42 41L51 41L51 42.5Z" fill="#CACAD7"/>
<rect x="43.5" y="44" width="6" height="12" fill="#898996"/>
<path d="M51 57.5C51 56.6716 51.6716 56 52.5 56H58.5C59.3284 56 60 56.6716 60 57.5V59H51V57.5Z" fill="#CACAD7"/>
<path d="M60 42.5C60 43.3284 59.3284 44 58.5 44L52.5 44C51.6716 44 51 43.3284 51 42.5L51 41L60 41L60 42.5Z" fill="#CACAD7"/>
<rect x="52.5" y="44" width="6" height="12" fill="#898996"/>
<rect x="12" y="59" width="48" height="3" fill="#756E78"/>
<rect x="12" y="38" width="48" height="3" fill="#C6C1C8"/>
<path d="M34.5 21.5C34.5 20.6716 35.1716 20 36 20C36.8284 20 37.5 20.6716 37.5 21.5V24.5H34.5V21.5Z" fill="#898996"/>
<path d="M51 38H36H21C21 29.7157 27.7157 23 36 23C44.2843 23 51 29.7157 51 38Z" fill="#47475C"/>
<rect x="12" y="35" width="48" height="3" fill="#DFDDE2"/>
<path d="M31.5 53C31.5 50.5147 33.5147 48.5 36 48.5C38.4853 48.5 40.5 50.5147 40.5 53V59H31.5V53Z" fill="#47475C"/>
<path d="M25 15C25 10.5817 28.5817 7 33 7H39C43.4183 7 47 10.5817 47 15V21C47 25.4183 43.4183 29 39 29H33C28.5817 29 25 25.4183 25 21V15Z" fill="#3FBF70"/>
<path d="M43 15.5374L34.9086 23.5L29 17.6854L32.0865 14.648L34.9086 17.4252L39.9135 12.5L43 15.5374Z" fill="white"/>
</svg>
