<svg width="72" height="72" viewBox="0 0 72 72" fill="none" xmlns="http://www.w3.org/2000/svg">
<path d="M42.7852 50.6674H45.4302C46.4832 50.6674 47.3356 49.815 47.3356 48.762V45.25H42.7852V50.6674Z" fill="#FFD2C2"/>
<path d="M42.7847 45.6429L48.3255 45.6178C48.3255 38.7231 42.6844 33.082 35.7897 33.082C28.895 33.082 23.2539 38.7231 23.2539 45.6178L29.0329 45.6429V53.1644H42.7847V45.6429Z" fill="#2C3F31"/>
<path d="M36.4911 35.8325H35.0871C33.7457 35.8325 32.6426 34.7294 32.6426 33.388V28.2609C32.6426 26.9196 33.7457 25.8164 35.0871 25.8164H36.4911C37.8324 25.8164 38.9355 26.9196 38.9355 28.2609V33.388C38.9355 34.7294 37.8324 35.8325 36.4911 35.8325Z" fill="#F1BBA7"/>
<path d="M29.031 50.6625H26.3859C25.3329 50.6625 24.4805 49.8101 24.4805 48.7571L24.5062 45.5898H29.0567L29.031 50.6625Z" fill="#FFD2C2"/>
<path d="M47.3493 24.01H45.5943C44.7293 24.01 44.0273 23.308 44.0273 22.443V20.9888C44.0273 20.1239 44.7293 19.4219 45.5943 19.4219H47.3493C48.2143 19.4219 48.9163 20.1239 48.9163 20.9888V22.443C48.9163 23.2954 48.2018 24.01 47.3493 24.01Z" fill="#F2BBA7"/>
<path d="M25.8884 24.01H24.1334C23.2684 24.01 22.5664 23.308 22.5664 22.443V20.9888C22.5664 20.1239 23.2684 19.4219 24.1334 19.4219H25.8884C26.7534 19.4219 27.4554 20.1239 27.4554 20.9888V22.443C27.4554 23.2954 26.7534 24.01 25.8884 24.01Z" fill="#F2BBA7"/>
<path d="M37.9605 32.8787H33.5354C29.2857 32.8787 25.8008 29.3938 25.8008 25.1441V14.5639C25.8008 10.8283 28.8595 7.76953 32.5952 7.76953H38.8881C42.6238 7.76953 45.6825 10.8283 45.6825 14.5639V25.1441C45.6951 29.3938 42.2101 32.8787 37.9605 32.8787Z" fill="#FFD2C2"/>
<path d="M35.6662 28.0699C34.7886 28.0699 33.8359 27.8317 32.9083 27.1799C32.6325 26.9793 32.5573 26.5907 32.7579 26.3024C32.9584 26.0266 33.347 25.9514 33.6354 26.1519C35.7038 27.6186 37.7596 26.2146 37.8474 26.1519C38.1357 25.9514 38.5243 26.014 38.7249 26.3024C38.9255 26.5782 38.8628 26.9793 38.5745 27.1799C38.0103 27.5936 36.9197 28.0699 35.6662 28.0699Z" fill="#917368"/>
<path d="M31.7797 23.3954C32.3959 23.3954 32.8954 22.8959 32.8954 22.2797C32.8954 21.6636 32.3959 21.1641 31.7797 21.1641C31.1636 21.1641 30.6641 21.6636 30.6641 22.2797C30.6641 22.8959 31.1636 23.3954 31.7797 23.3954Z" fill="#312926"/>
<path d="M39.7153 23.3954C40.3315 23.3954 40.831 22.8959 40.831 22.2797C40.831 21.6636 40.3315 21.1641 39.7153 21.1641C39.0991 21.1641 38.5996 21.6636 38.5996 22.2797C38.5996 22.8959 39.0991 23.3954 39.7153 23.3954Z" fill="#312926"/>
<path d="M35.7401 24.7989C35.3891 24.7989 35.1133 24.5231 35.1133 24.1721V23.3573C35.1133 23.0063 35.3891 22.7305 35.7401 22.7305C36.0911 22.7305 36.3669 23.0063 36.3669 23.3573V24.1721C36.3669 24.5231 36.0785 24.7989 35.7401 24.7989Z" fill="#917368"/>
<path d="M41.3446 26.7908C42.1131 26.7908 42.7361 26.1678 42.7361 25.3993C42.7361 24.6308 42.1131 24.0078 41.3446 24.0078C40.5761 24.0078 39.9531 24.6308 39.9531 25.3993C39.9531 26.1678 40.5761 26.7908 41.3446 26.7908Z" fill="#FF8597"/>
<path d="M30.3895 26.7908C31.158 26.7908 31.781 26.1678 31.781 25.3993C31.781 24.6308 31.158 24.0078 30.3895 24.0078C29.621 24.0078 28.998 24.6308 28.998 25.3993C28.998 26.1678 29.621 26.7908 30.3895 26.7908Z" fill="#FF8597"/>
<path d="M48.8785 9.11145C46.9605 3.38259 40.8431 1.91591 35.7535 2.00366C35.741 2.00366 35.741 2.00366 35.7285 2.00366C35.7159 2.00366 35.7159 2.00366 35.7034 2.00366C30.6013 1.91591 24.4838 3.38259 22.5659 9.11145C20.6479 14.8528 24.2206 19.4033 24.2206 19.4033H25.8126H27.3187L29.5985 17.4603L35.7285 17.4101L41.8585 17.4603H45.6443V19.4033H47.2363C47.2238 19.4033 50.7965 14.8528 48.8785 9.11145Z" fill="#444236"/>
<path d="M37.2098 13.5117C37.2098 13.5117 35.6052 19.4035 30.616 19.4035H26.3789C26.3789 19.4035 30.616 15.9311 30.616 13.5117" fill="#444236"/>
<path d="M45.6981 13.5117C45.6981 13.5117 44.0935 19.4035 39.1043 19.4035H34.8672C34.8672 19.4035 39.1043 15.9311 39.1043 13.5117" fill="#444236"/>
<path d="M38.7629 19.8056H34.5258C34.2625 19.8056 34.0243 19.6426 33.9366 19.3919C33.8488 19.1412 33.9241 18.8654 34.1246 18.6899C35.2403 17.7748 38.1361 15.0169 38.1361 13.2869C38.1361 12.9359 38.4119 12.6602 38.7629 12.6602C39.1139 12.6602 39.3897 12.9359 39.3897 13.2869C39.3897 15.1046 37.4968 17.2608 36.1554 18.552H38.7629C43.2131 18.552 44.6923 13.3371 44.755 13.124C44.8427 12.798 45.1937 12.5975 45.5197 12.6852C45.8581 12.773 46.0462 13.124 45.9584 13.4499C45.9459 13.5126 44.1658 19.8056 38.7629 19.8056Z" fill="#3A382C"/>
<rect x="23" y="48" width="26" height="22" rx="4" fill="#B46A3B"/>
<rect x="27.5" y="51.5" width="17" height="15" rx="3.5" stroke="#9A5A31"/>
<path d="M37.8825 56.7913H37.686C37.2009 56.7913 36.7711 56.4673 36.6237 55.9909L36.5623 55.8004C36.2307 54.7332 34.7755 54.7332 34.4378 55.8004L34.3764 55.9909C34.229 56.4673 33.7992 56.7913 33.3141 56.7913H33.1176C32.0369 56.7913 31.5886 58.2205 32.4606 58.8811L32.6202 59.0018C33.0132 59.294 33.1728 59.8149 33.0255 60.2913L32.9641 60.4819C32.6325 61.549 33.8053 62.4319 34.6834 61.7713L34.843 61.6506C35.236 61.3584 35.7641 61.3584 36.1571 61.6506L36.3167 61.7713C37.1948 62.4319 38.3676 61.5426 38.036 60.4819L37.9746 60.2913C37.8272 59.8149 37.9869 59.294 38.3799 59.0018L38.5395 58.8811C39.4114 58.2205 38.9632 56.7913 37.8825 56.7913Z" fill="#DDBB2B"/>
<rect x="35" y="35" width="2" height="9" fill="#D9D9D9"/>
<rect x="34" y="30" width="4" height="5" rx="2" fill="#454C53"/>
<path d="M38.7704 47.5408C40.3005 47.5408 41.5408 46.3005 41.5408 44.7704C41.5408 43.2404 40.3005 42 38.7704 42C37.2404 42 36 43.2404 36 44.7704C36 46.3005 37.2404 47.5408 38.7704 47.5408Z" fill="#FFD2C2"/>
<path d="M19 49C19 50.1046 19.8954 51 21 51H51C52.1046 51 53 50.1046 53 49V44H19V49Z" fill="#D8834D"/>
</svg>
