<svg width="72" height="72" viewBox="0 0 72 72" fill="none" xmlns="http://www.w3.org/2000/svg">
<path d="M28.2368 17.349C29.7801 12.7423 34.7657 10.2589 39.3725 11.8022L52.6316 16.2442C57.2383 17.7875 59.7217 22.7731 58.1784 27.3798L49.7241 52.6156C48.1807 57.2223 43.1952 59.7057 38.5884 58.1624L25.3293 53.7204C20.7226 52.1771 18.2392 47.1915 19.7825 42.5848L28.2368 17.349Z" fill="#5E262B"/>
<path d="M25.2427 16.3451C26.786 11.7384 31.7716 9.25501 36.3783 10.7983L49.6374 15.2403C54.2442 16.7836 56.7275 21.7692 55.1842 26.3759L46.7299 51.6117C45.1866 56.2184 40.201 58.7018 35.5943 57.1585L22.3352 52.7165C17.7284 51.1732 15.2451 46.1876 16.7884 41.5809L25.2427 16.3451Z" fill="#C9CDD2"/>
<path d="M22.2495 15.3412C23.7928 10.7345 28.7784 8.2511 33.3851 9.79442L46.6443 14.2364C51.251 15.7797 53.7344 20.7653 52.1911 25.372L43.7368 50.6078C42.1934 55.2145 37.2079 57.6979 32.6011 56.1546L19.342 51.7126C14.7353 50.1693 12.2519 45.1837 13.7952 40.577L22.2495 15.3412Z" fill="#5E262B"/>
<g clip-path="url(#clip0_40006056_338622)">
<path d="M39.913 31.6164L39.6189 31.5178C38.8926 31.2745 38.4116 30.574 38.43 29.7869L38.4336 29.4708C38.4724 27.7069 36.2938 26.977 35.253 28.4052L35.0655 28.6597C34.6059 29.299 33.8 29.5684 33.0737 29.3251L32.7796 29.2266C31.1617 28.6846 29.7738 30.5994 30.7478 32.0257L30.9263 32.2865C31.3681 32.921 31.3459 33.7809 30.8863 34.4202L30.6988 34.6747C29.6672 36.106 30.9801 38.016 32.626 37.4674L32.9255 37.3668C33.6604 37.1264 34.451 37.3913 34.8927 38.0258L35.0712 38.2866C36.0544 39.716 38.2562 38.9728 38.2919 37.2184L38.2955 36.9023C38.3138 36.1152 38.8141 35.4155 39.549 35.1752L39.8485 35.0746C41.4852 34.5229 41.5309 32.1584 39.913 31.6164Z" fill="#DDBB2B"/>
</g>
<path d="M23.0378 12.9883C24.1458 9.68106 27.725 7.89819 31.0323 9.00616L16.9891 50.9243C13.6819 49.8163 11.899 46.2371 13.007 42.9299L23.0378 12.9883Z" fill="#2A1416"/>
<path fill-rule="evenodd" clip-rule="evenodd" d="M45.543 37.1426L58.2568 51.9736L52.1348 51.9736L52.1348 65L38.9521 65L38.9521 51.9736L32.8291 51.9736L45.543 37.1426Z" fill="url(#paint0_linear_40006056_338622)"/>
<defs>
<linearGradient id="paint0_linear_40006056_338622" x1="45.5437" y1="65" x2="45.5437" y2="51.5206" gradientUnits="userSpaceOnUse">
<stop stop-color="#FFE924"/>
<stop offset="1" stop-color="#20D0AC"/>
</linearGradient>
<clipPath id="clip0_40006056_338622">
<rect width="11.052" height="11.052" fill="white" transform="translate(32.0049 25.9844) rotate(18.5215)"/>
</clipPath>
</defs>
</svg>
