<svg width="72" height="72" viewBox="0 0 72 72" fill="none" xmlns="http://www.w3.org/2000/svg">
<path d="M17 15C17 12.7909 18.7909 11 21 11H48C50.2091 11 52 12.7909 52 15V55C52 57.2091 50.2091 59 48 59H21C18.7909 59 17 57.2091 17 55V15Z" fill="#D9DFE6"/>
<rect x="35" y="23" width="10" height="3" rx="1" fill="#96A5B5"/>
<rect x="35" y="34" width="10" height="3" rx="1" fill="#96A5B5"/>
<rect x="35" y="45" width="10" height="3" rx="1" fill="#96A5B5"/>
<path d="M31 21.9329L25.7984 27L22 23.2998L23.9842 21.3669L25.7984 23.1342L29.0158 20L31 21.9329Z" fill="#328BE9"/>
<path d="M31 32.9329L25.7984 38L22 34.2998L23.9842 32.3669L25.7984 34.1342L29.0158 31L31 32.9329Z" fill="#328BE9"/>
<path d="M31 43.9329L25.7984 49L22 45.2998L23.9842 43.3669L25.7984 45.1342L29.0158 42L31 43.9329Z" fill="#96A4B5"/>
<path d="M42 59V50.4198L50.5802 59H42Z" fill="#F9C79A"/>
<path d="M42 59V55.1038L46.2184 59H42Z" fill="#454C53"/>
<path d="M50.58 41.8397L53.6444 44.9041L45.0642 53.4843L42 50.4198L50.58 41.8397Z" fill="#F5B933"/>
<path d="M53.6444 44.9041L56.402 47.6617L47.8218 56.242L45.0642 53.4843L53.6444 44.9041Z" fill="#F5A518"/>
<path d="M56.4025 47.6622L59.1605 50.4202L50.5802 59L47.8223 56.2425L56.4025 47.6622Z" fill="#CB7F10"/>
<path d="M51.8054 40.6144L60.3856 49.1946L59.1605 50.4202L50.58 41.8397L51.8054 40.6144Z" fill="#D4DEED"/>
<path d="M52.8274 39.5923C53.6172 38.8026 54.8977 38.8026 55.6875 39.5923L61.4077 45.3125C62.1974 46.1023 62.1974 47.3828 61.4077 48.1726L60.3862 49.194L51.806 40.6138L52.8274 39.5923Z" fill="#E83E54"/>
</svg>
