<svg width="72" height="72" viewBox="0 0 72 72" fill="none" xmlns="http://www.w3.org/2000/svg">
<path d="M17 25H55L53 20H19L17 25Z" fill="#99865E"/>
<path d="M21 9.00001C21 6.79087 22.7909 5 25 5H46.2623C48.4714 5 50.2623 6.79086 50.2623 9V42.3114C50.2623 44.5206 48.4714 46.3114 46.2623 46.3114H25C22.7909 46.3114 21 44.5206 21 42.3114V9.00001Z" fill="#D9DFE6"/>
<rect x="25.3047" y="12" width="18.9344" height="2.58197" rx="1" fill="#96A5B5"/>
<rect x="25.3047" y="16.3008" width="18.9344" height="2.58197" rx="1" fill="#96A5B5"/>
<rect x="25.3047" y="20.6055" width="8.60655" height="2.58197" rx="1" fill="#96A5B5"/>
<path d="M17 25H55V65C55 66.1046 54.1046 67 53 67H19C17.8954 67 17 66.1046 17 65V25Z" fill="#B9A67D"/>
<rect x="36" y="25" width="1" height="42" fill="#AE9B72"/>
<path d="M26.8825 31.7913H26.686C26.2009 31.7913 25.7711 31.4673 25.6237 30.9909L25.5623 30.8004C25.2307 29.7332 23.7755 29.7332 23.4378 30.8004L23.3764 30.9909C23.229 31.4673 22.7992 31.7913 22.3141 31.7913H22.1176C21.0369 31.7913 20.5886 33.2205 21.4606 33.8811L21.6202 34.0018C22.0132 34.294 22.1728 34.8149 22.0255 35.2913L21.9641 35.4819C21.6325 36.549 22.8053 37.4319 23.6834 36.7713L23.843 36.6506C24.236 36.3584 24.7641 36.3584 25.1571 36.6506L25.3167 36.7713C26.1948 37.4319 27.3676 36.5426 27.036 35.4819L26.9746 35.2913C26.8272 34.8149 26.9869 34.294 27.3799 34.0018L27.5395 33.8811C28.4114 33.2205 27.9632 31.7913 26.8825 31.7913Z" fill="#DDBB2B"/>
</svg>
