<svg width="72" height="72" viewBox="0 0 72 72" fill="none" xmlns="http://www.w3.org/2000/svg">
<path d="M42.7842 50.6674H45.4292C46.4822 50.6674 47.3347 49.815 47.3347 48.762V45.25H42.7842V50.6674Z" fill="#FFD2C2"/>
<path d="M42.7847 45.6429L48.3255 45.6178C48.3255 38.7231 42.6844 33.082 35.7897 33.082C28.895 33.082 23.2539 38.7231 23.2539 45.6178L29.0329 45.6429V53.1644H42.7847V45.6429Z" fill="#2C3F31"/>
<path d="M36.4911 35.8325H35.0871C33.7457 35.8325 32.6426 34.7294 32.6426 33.388V28.2609C32.6426 26.9196 33.7457 25.8164 35.0871 25.8164H36.4911C37.8324 25.8164 38.9355 26.9196 38.9355 28.2609V33.388C38.9355 34.7294 37.8324 35.8325 36.4911 35.8325Z" fill="#F1BBA7"/>
<path d="M29.0319 50.6625H26.3869C25.3339 50.6625 24.4814 49.8101 24.4814 48.7571L24.5072 45.5898H29.0576L29.0319 50.6625Z" fill="#FFD2C2"/>
<path d="M47.3493 24.01H45.5943C44.7293 24.01 44.0273 23.308 44.0273 22.443V20.9888C44.0273 20.1239 44.7293 19.4219 45.5943 19.4219H47.3493C48.2143 19.4219 48.9163 20.1239 48.9163 20.9888V22.443C48.9163 23.2954 48.2018 24.01 47.3493 24.01Z" fill="#F2BBA7"/>
<path d="M25.8884 24.01H24.1334C23.2684 24.01 22.5664 23.308 22.5664 22.443V20.9888C22.5664 20.1239 23.2684 19.4219 24.1334 19.4219H25.8884C26.7534 19.4219 27.4554 20.1239 27.4554 20.9888V22.443C27.4554 23.2954 26.7534 24.01 25.8884 24.01Z" fill="#F2BBA7"/>
<path d="M37.9595 32.8787H33.5344C29.2848 32.8787 25.7998 29.3938 25.7998 25.1441V14.5639C25.7998 10.8283 28.8585 7.76953 32.5942 7.76953H38.8872C42.6228 7.76953 45.6816 10.8283 45.6816 14.5639V25.1441C45.6941 29.3938 42.2092 32.8787 37.9595 32.8787Z" fill="#FFD2C2"/>
<path d="M35.6671 28.0699C34.7896 28.0699 33.8369 27.8317 32.9093 27.1799C32.6335 26.9793 32.5583 26.5907 32.7588 26.3024C32.9594 26.0266 33.348 25.9514 33.6363 26.1519C35.7047 27.6186 37.7606 26.2146 37.8484 26.1519C38.1367 25.9514 38.5253 26.014 38.7259 26.3024C38.9264 26.5782 38.8638 26.9793 38.5754 27.1799C38.0113 27.5936 36.9207 28.0699 35.6671 28.0699Z" fill="#917368"/>
<path d="M31.7807 23.3954C32.3969 23.3954 32.8964 22.8959 32.8964 22.2797C32.8964 21.6636 32.3969 21.1641 31.7807 21.1641C31.1645 21.1641 30.665 21.6636 30.665 22.2797C30.665 22.8959 31.1645 23.3954 31.7807 23.3954Z" fill="#312926"/>
<path d="M39.7163 23.3954C40.3324 23.3954 40.832 22.8959 40.832 22.2797C40.832 21.6636 40.3324 21.1641 39.7163 21.1641C39.1001 21.1641 38.6006 21.6636 38.6006 22.2797C38.6006 22.8959 39.1001 23.3954 39.7163 23.3954Z" fill="#312926"/>
<path d="M35.742 24.7989C35.391 24.7989 35.1152 24.5231 35.1152 24.1721V23.3573C35.1152 23.0063 35.391 22.7305 35.742 22.7305C36.093 22.7305 36.3688 23.0063 36.3688 23.3573V24.1721C36.3688 24.5231 36.0805 24.7989 35.742 24.7989Z" fill="#917368"/>
<path d="M41.3456 26.7908C42.1141 26.7908 42.737 26.1678 42.737 25.3993C42.737 24.6308 42.1141 24.0078 41.3456 24.0078C40.5771 24.0078 39.9541 24.6308 39.9541 25.3993C39.9541 26.1678 40.5771 26.7908 41.3456 26.7908Z" fill="#FF8597"/>
<path d="M30.3895 26.7908C31.158 26.7908 31.781 26.1678 31.781 25.3993C31.781 24.6308 31.158 24.0078 30.3895 24.0078C29.621 24.0078 28.998 24.6308 28.998 25.3993C28.998 26.1678 29.621 26.7908 30.3895 26.7908Z" fill="#FF8597"/>
<path d="M48.8785 9.11145C46.9605 3.38259 40.8431 1.91591 35.7535 2.00366C35.741 2.00366 35.741 2.00366 35.7285 2.00366C35.7159 2.00366 35.7159 2.00366 35.7034 2.00366C30.6013 1.91591 24.4838 3.38259 22.5659 9.11145C20.6479 14.8528 24.2206 19.4033 24.2206 19.4033H25.8126H27.3187L29.5985 17.4603L35.7285 17.4101L41.8585 17.4603H45.6443V19.4033H47.2363C47.2238 19.4033 50.7965 14.8528 48.8785 9.11145Z" fill="#444236"/>
<path d="M37.2089 13.5117C37.2089 13.5117 35.6043 19.4035 30.615 19.4035H26.3779C26.3779 19.4035 30.615 15.9311 30.615 13.5117" fill="#444236"/>
<path d="M45.6962 13.5117C45.6962 13.5117 44.0916 19.4035 39.1023 19.4035H34.8652C34.8652 19.4035 39.1023 15.9311 39.1023 13.5117" fill="#444236"/>
<path d="M38.7619 19.8056H34.5248C34.2616 19.8056 34.0234 19.6426 33.9356 19.3919C33.8479 19.1412 33.9231 18.8654 34.1237 18.6899C35.2393 17.7748 38.1351 15.0169 38.1351 13.2869C38.1351 12.9359 38.4109 12.6602 38.7619 12.6602C39.1129 12.6602 39.3887 12.9359 39.3887 13.2869C39.3887 15.1046 37.4958 17.2608 36.1545 18.552H38.7619C43.2121 18.552 44.6913 13.3371 44.754 13.124C44.8418 12.798 45.1928 12.5975 45.5187 12.6852C45.8572 12.773 46.0452 13.124 45.9574 13.4499C45.9449 13.5126 44.1648 19.8056 38.7619 19.8056Z" fill="#3A382C"/>
<rect x="23" y="48" width="26" height="22" rx="4" fill="#B46A3B"/>
<rect x="27.5" y="51.5" width="17" height="15" rx="3.5" stroke="#9A5A31"/>
<path d="M37.8825 56.7913H37.686C37.2009 56.7913 36.7711 56.4673 36.6237 55.9909L36.5623 55.8004C36.2307 54.7332 34.7755 54.7332 34.4378 55.8004L34.3764 55.9909C34.229 56.4673 33.7992 56.7913 33.3141 56.7913H33.1176C32.0369 56.7913 31.5886 58.2205 32.4606 58.8811L32.6202 59.0018C33.0132 59.294 33.1728 59.8149 33.0255 60.2913L32.9641 60.4819C32.6325 61.549 33.8053 62.4319 34.6834 61.7713L34.843 61.6506C35.236 61.3584 35.7641 61.3584 36.1571 61.6506L36.3167 61.7713C37.1948 62.4319 38.3676 61.5426 38.036 60.4819L37.9746 60.2913C37.8272 59.8149 37.9869 59.294 38.3799 59.0018L38.5395 58.8811C39.4114 58.2205 38.9632 56.7913 37.8825 56.7913Z" fill="#DDBB2B"/>
<rect x="35" y="35" width="2" height="9" fill="#D9D9D9"/>
<rect x="34" y="30" width="4" height="5" rx="2" fill="#454C53"/>
<path d="M38.7704 47.5408C40.3005 47.5408 41.5408 46.3005 41.5408 44.7704C41.5408 43.2404 40.3005 42 38.7704 42C37.2404 42 36 43.2404 36 44.7704C36 46.3005 37.2404 47.5408 38.7704 47.5408Z" fill="#FFD2C2"/>
<path d="M19 49C19 50.1046 19.8954 51 21 51H51C52.1046 51 53 50.1046 53 49V44H19V49Z" fill="#D8834D"/>
</svg>
