<svg width="72" height="72" viewBox="0 0 72 72" fill="none" xmlns="http://www.w3.org/2000/svg">
<path d="M12 34.1289C12 31.9198 13.7909 30.1289 16 30.1289H55.8064C58.0156 30.1289 59.8064 31.9198 59.8064 34.1289V50.645C59.8064 55.0633 56.2247 58.645 51.8064 58.645H20C15.5817 58.645 12 55.0633 12 50.645V34.1289Z" fill="#9A6C2E"/>
<path d="M53.0977 49.1405C53.0977 46.9789 51.3453 45.2266 49.1837 45.2266C48.1029 45.2266 47.2267 46.1027 47.2267 47.1836V52.4524C47.2267 53.5569 48.1221 54.4524 49.2267 54.4524H53.0977V49.1405Z" fill="#EFBAA8"/>
<path d="M54.9531 40C54.9531 37.7909 53.1623 36 50.9531 36H49.4047C48.3002 36 47.4047 36.8954 47.4047 38V47.4194C47.4047 48.5239 48.3002 49.4194 49.4047 49.4194H50.9531C53.1623 49.4194 54.9531 47.6285 54.9531 45.4194V40Z" fill="#FFD2C2"/>
<path d="M22.0645 14C22.0645 11.7909 23.8553 10 26.0645 10H46.5806C48.7897 10 50.5806 11.7909 50.5806 14V46.2581C50.5806 48.4672 48.7897 50.2581 46.5806 50.2581H26.0645C23.8553 50.2581 22.0645 48.4672 22.0645 46.2581V14Z" fill="#D9DFE6"/>
<rect x="26.2578" y="15.8711" width="8.3871" height="8.3871" rx="2" fill="#96A5B5"/>
<rect x="26.2578" y="31.8047" width="18.4516" height="2.51613" rx="1" fill="#96A5B5"/>
<rect x="26.2578" y="36" width="18.4516" height="2.51613" rx="1" fill="#96A5B5"/>
<rect x="26.2578" y="40.1953" width="8.3871" height="2.51613" rx="1" fill="#96A5B5"/>
<rect width="9.22581" height="10.0645" rx="2" transform="matrix(-1 0 0 1 54.7734 51.9336)" fill="#693D2F"/>
<path d="M54.7734 53.9336C54.7734 52.829 53.878 51.9336 52.7734 51.9336H47.5476C46.4431 51.9336 45.5476 52.829 45.5476 53.9336V55.2884H54.7734V53.9336Z" fill="white"/>
<rect x="46.0312" y="33.4844" width="10.0645" height="5.03226" rx="2" transform="rotate(36.5697 46.0312 33.4844)" fill="#FFD2C2"/>
<rect x="46.0312" y="34.75" width="2.22362" height="2.99647" rx="1.11181" transform="rotate(36.5697 46.0312 34.75)" fill="#FFE8E0"/>
</svg>
