<svg width="72" height="72" viewBox="0 0 72 72" fill="none" xmlns="http://www.w3.org/2000/svg">
<path d="M9 9.00001C9 6.79087 10.7909 5 13 5H34.2623C36.4714 5 38.2623 6.79086 38.2623 9V42.3114C38.2623 44.5206 36.4714 46.3114 34.2623 46.3114H13C10.7909 46.3114 9 44.5206 9 42.3114V9.00001Z" fill="#D9DFE6"/>
<rect x="13.3047" y="11.0234" width="8.60655" height="8.60655" rx="2" fill="#96A5B5"/>
<rect x="13.3047" y="27.3789" width="18.9344" height="2.58197" rx="1" fill="#96A5B5"/>
<rect x="13.3047" y="31.6797" width="18.9344" height="2.58197" rx="1" fill="#96A5B5"/>
<rect x="13.3047" y="35.9844" width="8.60655" height="2.58197" rx="1" fill="#96A5B5"/>
<rect x="40.8438" y="48.6328" width="6.93074" height="18.0199" transform="rotate(-45 40.8438 48.6328)" fill="#D9D9D9"/>
<rect x="47.7051" y="57.4531" width="9.70303" height="13.1684" rx="2" transform="rotate(-45 47.7051 57.4531)" fill="#444236"/>
<circle cx="35.2489" cy="37.2762" r="17.6434" fill="#444236"/>
<g clip-path="url(#clip0_40006075_362013)">
<circle cx="37.5488" cy="37.2734" r="16.5" fill="#6EC4DB"/>
<g opacity="0.5">
<path d="M-0.951172 -11.9258C-0.951172 -14.1349 0.839689 -15.9258 3.04883 -15.9258H53.0488C55.258 -15.9258 57.0488 -14.1349 57.0488 -11.9258V61.9566C57.0488 64.1657 55.258 65.9566 53.0488 65.9566H3.04883C0.839688 65.9566 -0.951172 64.1657 -0.951172 61.9566V-11.9258Z" fill="#D9DFE6"/>
<rect x="14.0488" y="27.0742" width="28" height="5" rx="1" fill="#96A5B5"/>
<rect x="14.0488" y="36.0742" width="28" height="5" rx="1" fill="#96A5B5"/>
<rect x="14.0488" y="44.3086" width="17.0588" height="5.11765" rx="1" fill="#96A5B5"/>
</g>
</g>
<defs>
<clipPath id="clip0_40006075_362013">
<rect x="21.0488" y="23.0742" width="28.4016" height="28.4016" rx="14.2008" fill="white"/>
</clipPath>
</defs>
</svg>
