<svg width="72" height="72" viewBox="0 0 72 72" fill="none" xmlns="http://www.w3.org/2000/svg">
<path d="M31 61L31.002 52H22C17.5817 52 14 48.4183 14 44V28C14 23.5817 17.5817 20 22 20H50C54.4183 20 58 23.5817 58 28V44C58 48.4183 54.4183 52 50 52H41L31 61Z" fill="#D9DFE6"/>
<rect x="28" y="11" width="18" height="18" rx="4" fill="#328BE9"/>
<path d="M43 17.7613L36.0646 25L31 19.714L33.6456 16.9527L36.0646 19.4775L40.3544 15L43 17.7613Z" fill="white"/>
<circle cx="25" cy="36" r="4" fill="#697A8E"/>
<circle cx="37" cy="36" r="3" fill="#96A4B5"/>
<circle cx="48" cy="36" r="3" fill="#96A4B5"/>
</svg>
