<svg width="86" height="28" viewBox="0 0 86 28" fill="none" xmlns="http://www.w3.org/2000/svg">
<rect x="0.75" y="0.75" width="26.5" height="26.5" rx="5.25" fill="white" stroke="#E8EBED" stroke-width="1.5"/>
<path d="M14.1404 8.71627C15.003 8.71627 15.6987 8.02059 15.6987 7.15794C15.6987 6.29529 15.003 5.59961 14.1404 5.59961C13.2777 5.59961 12.582 6.29529 12.582 7.15794C12.582 8.02059 13.2777 8.71627 14.1404 8.71627Z" fill="#3E7BFD"/>
<path d="M16.0705 22.3992V16.5499H16.5436C17.0333 16.5499 17.434 16.1492 17.434 15.6594V11.5799C17.434 11.0902 17.0333 10.6895 16.5436 10.6895H11.7406C11.2508 10.6895 10.8501 11.0902 10.8501 11.5799V15.6594C10.8501 16.1492 11.2508 16.5499 11.7406 16.5499H12.2136V22.3992" fill="#3E7BFD"/>
<rect x="29.75" y="0.75" width="26.5" height="26.5" rx="5.25" fill="white" stroke="#E8EBED" stroke-width="1.5"/>
<path d="M42.7868 9.59504C43.505 9.59504 44.0843 9.01579 44.0843 8.29752C44.0843 7.57925 43.505 7 42.7868 7C42.0685 7 41.4893 7.57925 41.4893 8.29752C41.4893 9.01579 42.0685 9.59504 42.7868 9.59504Z" fill="#F6503B"/>
<path d="M43.9731 20.9999V18.252H44.9647C45.4328 18.252 45.8359 17.8071 45.6876 17.3576C45.4976 16.7784 44.8582 15.4484 44.4921 14.707C44.3253 14.3687 44.2696 13.9933 44.3253 13.618C44.4133 13.0526 44.5338 12.2139 44.5152 11.8385C44.5013 11.491 44.1399 11.25 43.7924 11.25H41.7766C41.429 11.25 41.0676 11.4863 41.0537 11.8385C41.0352 12.2092 41.1556 13.048 41.2437 13.618C41.3039 13.9887 41.2437 14.3687 41.0769 14.707C40.7154 15.4484 40.0759 16.7737 39.8813 17.3576C39.733 17.8025 40.1362 18.252 40.6042 18.252H41.5959V20.9999" fill="#F6503B"/>
<rect x="58.75" y="0.75" width="26.5" height="26.5" rx="5.25" fill="white" stroke="#E8EBED" stroke-width="1.5"/>
<path d="M70.2088 22.6603C67.3397 22.6603 65 20.3259 65 17.4516C65 15.4665 66.101 13.6826 67.8796 12.7933C68.139 12.661 68.4566 12.7668 68.589 13.0315C68.7213 13.2909 68.6154 13.6085 68.3508 13.7408C66.9374 14.4502 66.0534 15.8688 66.0534 17.4516C66.0534 19.7383 67.9167 21.6016 70.2035 21.6016C72.1462 21.6016 73.8083 20.2836 74.2424 18.3938C74.3059 18.1079 74.5918 17.9333 74.8776 17.9968C75.1635 18.0603 75.3381 18.3462 75.2746 18.632C74.7241 21.0035 72.6385 22.6603 70.2035 22.6603H70.2088Z" fill="#26282B"/>
<path d="M78.1549 21.3246C78.1126 21.3246 78.0702 21.3246 78.0331 21.3087C77.8902 21.2717 77.7632 21.1817 77.6944 21.0494L75.2276 16.5605H70.7758C70.5111 16.5605 70.2835 16.3646 70.2518 16.1L69.5054 10.4148C69.4683 10.1236 69.6695 9.85897 69.9606 9.82192C70.2517 9.77957 70.5164 9.98602 70.5535 10.2772L71.2363 15.5018H75.5346C75.7305 15.5018 75.9052 15.6077 76.0005 15.7771L78.3349 20.0277L79.8435 18.9955C80.087 18.8314 80.4152 18.8896 80.5793 19.1331C80.7434 19.3766 80.6852 19.7048 80.4417 19.8689L78.4513 21.2293C78.3613 21.2929 78.2555 21.3193 78.1549 21.3193V21.3246Z" fill="#26282B"/>
<path d="M75.3438 13.2169H70.9131C70.622 13.2169 70.3838 12.9787 70.3838 12.6876C70.3838 12.3964 70.622 12.1582 70.9131 12.1582H75.3438C75.6349 12.1582 75.8731 12.3964 75.8731 12.6876C75.8731 12.9787 75.6349 13.2169 75.3438 13.2169Z" fill="#26282B"/>
<path d="M69.7801 10.8806C68.4356 10.8806 67.3398 9.78483 67.3398 8.44029C67.3398 7.09575 68.4356 6 69.7801 6C71.1247 6 72.2204 7.09575 72.2204 8.44029C72.2204 9.78483 71.1247 10.8806 69.7801 10.8806ZM69.7801 7.06399C69.0179 7.06399 68.3985 7.68332 68.3985 8.44558C68.3985 9.20784 69.0179 9.82718 69.7801 9.82718C70.5424 9.82718 71.1617 9.20784 71.1617 8.44558C71.1617 7.68332 70.5424 7.06399 69.7801 7.06399Z" fill="#26282B"/>
</svg>
