<svg width="24" height="28" viewBox="0 0 24 28" fill="none" xmlns="http://www.w3.org/2000/svg">
<g clip-path="url(#clip0_40006669_21872)">
<path d="M15.0704 14.5502L5.58203 16.2002V4.00834C5.58203 3.45156 6.04007 3.0002 6.6051 3.0002H22.9776C23.5426 3.0002 24.0006 3.45156 24.0006 4.00834V8.5002L15.0704 14.5502Z" fill="#185C37"/>
<path d="M15.0704 25H6.6051C6.04007 25 5.58203 24.5486 5.58203 23.9919V19.5L15.0704 14L20.0937 12.35L24.0006 14V19.5L15.0704 25Z" fill="#21A366"/>
<path d="M5.58203 19.5H15.0704V14H5.58203V19.5Z" fill="#107C41"/>
<path opacity="0.1" d="M12.3729 20.6006H5.58203V6.85059H12.3729C12.9372 6.85239 13.3942 7.3027 13.396 7.85873V19.5924C13.3942 20.1485 12.9372 20.5988 12.3729 20.6006Z" fill="black"/>
<path opacity="0.2" d="M11.8148 20.0498H5.58203V6.2998H11.8148C12.379 6.30161 12.836 6.75192 12.8378 7.30795V19.0417C12.836 19.5977 12.379 20.048 11.8148 20.0498Z" fill="black"/>
<path opacity="0.2" d="M11.8148 20.0498H5.58203V7.39981H11.8148C12.379 7.40161 12.836 7.85192 12.8378 8.40795V19.0417C12.836 19.5977 12.379 20.048 11.8148 20.0498Z" fill="black"/>
<path opacity="0.2" d="M11.2566 20.0498H5.58203V7.39981H11.2566C11.8209 7.40161 12.2779 7.85192 12.2797 8.40795V19.0417C12.2779 19.5977 11.8209 20.048 11.2566 20.0498Z" fill="black"/>
<path d="M1.02307 20.0498H11.256C11.821 20.0498 12.2791 19.5984 12.2791 19.0417V8.95796C12.2791 8.40118 11.821 7.94981 11.256 7.94981H1.02307C0.458041 7.9498 0 8.40117 0 8.95795V19.0417C0 19.5984 0.458041 20.0498 1.02307 20.0498Z" fill="url(#paint0_linear_40006669_21872)"/>
<path d="M3.16797 10.723L5.32015 14.0092L3.34825 17.2773H4.93448L6.01057 15.1873C6.10993 14.9888 6.17801 14.8414 6.21486 14.744H6.22881C6.29837 14.9001 6.37282 15.054 6.45206 15.2055L7.60238 17.2762H9.05857L7.03643 14.0274L9.10993 10.723H7.56053L6.31755 13.017C6.259 13.1146 6.20932 13.2172 6.16909 13.3234H6.15068C6.11427 13.2193 6.06595 13.1197 6.00667 13.0264L4.72686 10.723H3.16797Z" fill="white"/>
<path d="M22.9775 25H15.0703V19.5H24.0005V23.9919C24.0005 24.5486 23.5425 25 22.9775 25Z" fill="#33C481"/>
<path d="M15.0703 14H24.0005V8.5H15.0703V14Z" fill="#107C41"/>
</g>
<defs>
<linearGradient id="paint0_linear_40006669_21872" x1="2.13312" y1="20.8375" x2="9.97068" y2="7.06234" gradientUnits="userSpaceOnUse">
<stop stop-color="#18884F"/>
<stop offset="0.5" stop-color="#117E43"/>
<stop offset="1" stop-color="#0B6631"/>
</linearGradient>
<clipPath id="clip0_40006669_21872">
<rect width="24" height="22" fill="white" transform="matrix(1 0 0 -1 0 25)"/>
</clipPath>
</defs>
</svg>
