<svg width="24" height="28" viewBox="0 0 24 28" fill="none" xmlns="http://www.w3.org/2000/svg">
<path d="M1 8.5C1 6.29086 2.79086 4.5 5 4.5H11C13.2091 4.5 15 6.29086 15 8.5V12.5C15 14.7091 13.2091 16.5 11 16.5H5C2.79086 16.5 1 14.7091 1 12.5V8.5Z" fill="#FFA000"/>
<path d="M1 11.5C1 9.29086 2.79086 7.5 5 7.5H19C21.2091 7.5 23 9.29086 23 11.5V19.5C23 21.7091 21.2091 23.5 19 23.5H5C2.79086 23.5 1 21.7091 1 19.5V11.5Z" fill="#FFCA28"/>
<path d="M6 22C6 21.1716 6.67157 20.5 7.5 20.5H16.5C17.3284 20.5 18 21.1716 18 22C18 22.8284 17.3284 23.5 16.5 23.5H7.5C6.67157 23.5 6 22.8284 6 22Z" fill="#A47018"/>
</svg>
