<svg width="16" height="16" viewBox="0 0 16 16" fill="none" xmlns="http://www.w3.org/2000/svg">
<path d="M9.88667 9.64781C9.35333 10.1811 8.48667 10.1811 7.96 9.64781L6.35333 8.04114C5.82 7.50781 5.82 6.64115 6.35333 6.11448C7.07333 5.39448 7.07333 4.22115 6.35333 3.50115L5.12 2.26781C4.77333 1.92115 4.20667 1.92115 3.85333 2.26781L3.34 2.78115C1.55333 4.56781 1.55333 7.50114 3.34 9.28781L6.71333 12.6611C8.5 14.4478 11.4333 14.4478 13.22 12.6611L13.7333 12.1478C14.08 11.8011 14.08 11.2345 13.7333 10.8811L12.5 9.64781C11.78 8.92781 10.6067 8.92781 9.88667 9.64781Z" fill="#454C53"/>
</svg>
